<svg width="38" height="50" viewBox="0 0 38 50" fill="none" xmlns="http://www.w3.org/2000/svg">
<path d="M29.5701 12.3416V10.6559C29.5701 4.78136 24.7888 0 18.9142 0C13.0397 0 8.25834 4.78136 8.25834 10.6559V12.3416H0.51416V43.2775C0.51416 46.9861 3.52805 50 7.23668 50H30.5918C34.3004 50 37.3143 46.9861 37.3143 43.2775V12.3416H29.5701ZM10.884 20.188C9.63758 20.188 8.62613 19.1765 8.62613 17.9301C8.62613 16.6837 9.63758 15.6723 10.884 15.6723C12.1304 15.6723 13.1419 16.6837 13.1419 17.9301C13.1419 19.1868 12.1304 20.188 10.884 20.188ZM24.656 12.3416H13.1725V10.6559C13.1725 7.48876 15.7471 4.91418 18.9142 4.91418C22.0814 4.91418 24.656 7.48876 24.656 10.6559V12.3416ZM26.9445 20.188C25.6981 20.188 24.6866 19.1765 24.6866 17.9301C24.6866 16.6837 25.6981 15.6723 26.9445 15.6723C28.1909 15.6723 29.2023 16.6837 29.2023 17.9301C29.1921 19.1868 28.1909 20.188 26.9445 20.188Z" fill="#5ABBA4"/>
</svg>
