<svg width="60" height="60" viewBox="0 0 60 60" fill="none" xmlns="http://www.w3.org/2000/svg">
<path d="M59.2593 8.3526C59.2593 4.20148 55.8815 0.823708 51.7304 0.823708H39.0023C34.8512 0.823708 31.4734 4.20148 31.4734 8.3526V21.0807C31.4734 25.2319 34.8512 28.6096 39.0023 28.6096H51.7304C55.8815 28.6096 59.2593 25.2319 59.2593 21.0807V8.3526ZM57.7778 21.0807C57.7778 24.4156 55.0652 27.1282 51.7304 27.1282H39.0023C35.6675 27.1282 32.9549 24.4156 32.9549 21.0807V8.3526C32.9549 5.01778 35.6675 2.30519 39.0023 2.30519H51.7304C55.0652 2.30519 57.7778 5.01778 57.7778 8.3526V21.0807Z" fill="black"/>
<path d="M45.3659 7.1237C41.1792 7.1237 37.7733 10.5296 37.7733 14.7163C37.7733 18.903 41.1792 22.3096 45.3659 22.3096C49.5526 22.3096 52.9592 18.903 52.9592 14.7163C52.9592 10.5296 49.5526 7.1237 45.3659 7.1237ZM50.8207 17.4578H39.9118C39.6015 16.8422 39.3911 16.1689 39.3044 15.457H51.4281C51.3415 16.1689 51.1318 16.8422 50.8207 17.4578ZM39.3044 13.9756C39.3911 13.2637 39.6015 12.5904 39.9118 11.9748H50.8207C51.1311 12.5904 51.3415 13.2637 51.4281 13.9756H39.3044ZM45.3659 8.60518C47.0978 8.60518 48.66 9.33259 49.7726 10.4933H40.9592C42.0726 9.33185 43.6348 8.60518 45.3659 8.60518ZM45.3659 20.8281C43.6341 20.8281 42.0718 20.1007 40.9592 18.9393H49.7741C48.6607 20.1007 47.0978 20.8281 45.3659 20.8281Z" fill="black"/>
<path d="M59.2593 52.4659V39.7378C59.2593 35.5867 55.8815 32.2089 51.7304 32.2089H39.0023C34.8512 32.2089 31.4734 35.5867 31.4734 39.7378V52.4659C31.4734 56.617 34.8512 59.9948 39.0023 59.9948H51.7304C55.8815 59.9948 59.2593 56.617 59.2593 52.4659ZM32.9549 52.4659V39.7378C32.9549 36.403 35.6675 33.6904 39.0023 33.6904H51.7304C55.0652 33.6904 57.7778 36.403 57.7778 39.7378V52.4659C57.7778 55.8007 55.0652 58.5133 51.7304 58.5133H39.0023C35.6675 58.5133 32.9549 55.8007 32.9549 52.4659Z" fill="black"/>
<path d="M45.3659 38.5089C41.1792 38.5089 37.7733 41.9155 37.7733 46.1022C37.7733 50.2889 41.1792 53.6948 45.3659 53.6948C49.5526 53.6948 52.9592 50.2889 52.9592 46.1022C52.9592 41.9155 49.5526 38.5089 45.3659 38.5089ZM39.2548 46.1022C39.2548 42.983 41.6044 40.4067 44.6259 40.04V52.1644C41.6052 51.797 39.2548 49.2207 39.2548 46.1022ZM46.1074 52.1637V40.04C49.1289 40.4074 51.4778 42.9837 51.4778 46.1022C51.4778 49.22 49.1289 51.7963 46.1074 52.1637Z" fill="black"/>
<path d="M0 52.4659C0 56.617 3.37778 59.9948 7.52889 59.9948H20.257C24.4081 59.9948 27.7859 56.617 27.7859 52.4659V39.7378C27.7859 35.5867 24.4081 32.2089 20.257 32.2089H7.52889C3.37778 32.2089 0 35.5867 0 39.7378V52.4659ZM1.48148 39.7378C1.48148 36.403 4.19407 33.6904 7.52889 33.6904H20.257C23.5919 33.6904 26.3044 36.403 26.3044 39.7378V52.4659C26.3044 55.8007 23.5919 58.5133 20.257 58.5133H7.52889C4.19407 58.5133 1.48148 55.8007 1.48148 52.4659V39.7378V39.7378Z" fill="black"/>
<path d="M13.8934 53.6948C18.0801 53.6948 21.486 50.2889 21.486 46.1022C21.486 41.9155 18.0801 38.5089 13.8934 38.5089C9.70672 38.5089 6.30005 41.9155 6.30005 46.1022C6.30005 50.2889 9.70672 53.6948 13.8934 53.6948ZM20.0045 46.1022C20.0045 47.4689 19.5475 48.7281 18.7867 49.7474L10.2475 41.2081C11.2667 40.4467 12.526 39.9896 13.8934 39.9896C17.263 39.9904 20.0045 42.7318 20.0045 46.1022ZM9.17116 42.2267L17.7682 50.823C16.7126 51.6904 15.363 52.2126 13.8934 52.2126C10.523 52.2126 7.78153 49.4711 7.78153 46.1015C7.78153 44.6318 8.30301 43.2822 9.17116 42.2267Z" fill="black"/>
<path d="M7.57481 28.697H20.3881C24.5644 28.697 27.9622 25.2993 27.9622 21.1222V8.30963C27.9622 4.1326 24.5644 0.734818 20.3881 0.734818H7.57481C3.39778 0.735558 0 4.13334 0 8.30963V21.1222C0 25.2993 3.39778 28.697 7.57481 28.697ZM1.48148 8.30963C1.48148 6.81482 2.02444 5.44667 2.92074 4.38519L4.34296 5.80815C4.48741 5.9526 4.67704 6.02519 4.86667 6.02519C5.0563 6.02519 5.24593 5.9526 5.39037 5.80815C5.68 5.51852 5.68 5.05037 5.39037 4.76074L4.00889 3.37926C5.01259 2.65111 6.24222 2.21704 7.57407 2.21704H13.7956V3.73778C13.7956 4.14741 14.1267 4.47852 14.5363 4.47852C14.9459 4.47852 15.277 4.14741 15.277 3.73778V2.21704H20.3867C23.7459 2.21704 26.4793 4.95037 26.4793 8.31037V12.1504C26.4674 12.1496 26.4578 12.1437 26.4459 12.1437H24.2741C23.8644 12.1437 23.5333 12.4748 23.5333 12.8844C23.5333 13.2941 23.8644 13.6252 24.2741 13.6252H26.4474C26.4593 13.6252 26.4689 13.6193 26.4807 13.6185V21.123C26.4807 24.4822 23.7481 27.2163 20.3881 27.2163H19.9822V25.3274C19.9822 24.9178 19.6511 24.5867 19.2415 24.5867C18.8319 24.5867 18.5007 24.9178 18.5007 25.3274V27.2163H7.57481C4.21556 27.2163 1.48148 24.483 1.48148 21.123V8.30963V8.30963Z" fill="black"/>
<path d="M5.21486 15.4415H3.78005C3.37042 15.4415 3.03931 15.7726 3.03931 16.1822C3.03931 16.5919 3.37042 16.923 3.78005 16.923H5.46894C5.8482 18.3956 6.60375 19.7911 7.75486 20.9422C8.11857 21.3059 8.51042 21.6222 8.91708 21.9089L7.80079 23.0244C7.51116 23.3141 7.51116 23.7822 7.80079 24.0719C7.94523 24.2163 8.13486 24.2889 8.32449 24.2889C8.51412 24.2889 8.70375 24.2163 8.8482 24.0719L10.243 22.677C11.4238 23.2296 12.7 23.5163 13.9793 23.5163C16.2341 23.5163 18.4889 22.6585 20.2052 20.9415C23.6378 17.5081 23.6378 11.9222 20.2052 8.48889C17.7356 6.01926 14.1549 5.3363 11.06 6.41926C11.0326 6.37778 11.0149 6.33259 10.9786 6.2963L9.44153 4.76C9.1519 4.47037 8.68375 4.47037 8.39412 4.76C8.10449 5.04963 8.10449 5.51778 8.39412 5.80741L9.64671 7.05926C8.96968 7.44222 8.32968 7.91259 7.75412 8.48889C5.85412 10.3911 5.01116 12.9519 5.21486 15.4415ZM8.80301 9.53778C10.2312 8.10963 12.1052 7.3963 13.9808 7.3963C15.8556 7.3963 17.7312 8.11037 19.1593 9.53778C22.0141 12.3926 22.0141 17.04 19.1593 19.8948C16.3038 22.7489 11.6571 22.7496 8.80301 19.8948C5.94746 17.0385 5.94746 12.3933 8.80301 9.53778Z" fill="black"/>
<path d="M18.4726 5.25704H20.6466C21.0563 5.25704 21.3874 4.92593 21.3874 4.5163C21.3874 4.10667 21.0563 3.77556 20.6466 3.77556H18.4726C18.0629 3.77556 17.7318 4.10667 17.7318 4.5163C17.7318 4.92593 18.0637 5.25704 18.4726 5.25704Z" fill="black"/>
<path d="M15.0681 24.5859H12.8941C12.4844 24.5859 12.1533 24.917 12.1533 25.3267C12.1533 25.7363 12.4844 26.0674 12.8941 26.0674H15.0681C15.4778 26.0674 15.8089 25.7363 15.8089 25.3267C15.8089 24.917 15.4778 24.5859 15.0681 24.5859Z" fill="black"/>
<path d="M24.5911 19.4896C25.0007 19.4896 25.3318 19.1585 25.3318 18.7489V16.5756C25.3318 16.1659 25.0007 15.8348 24.5911 15.8348C24.1815 15.8348 23.8503 16.1659 23.8503 16.5756V18.7489C23.8503 19.1585 24.1822 19.4896 24.5911 19.4896Z" fill="black"/>
<path d="M4.33776 10.1452C4.4822 10.2896 4.67183 10.3622 4.86146 10.3622C5.05109 10.3622 5.24072 10.2896 5.38516 10.1452C5.67479 9.85556 5.67479 9.38741 5.38516 9.09778L3.84813 7.56074C3.5585 7.27111 3.09035 7.27111 2.80072 7.56074C2.51109 7.85037 2.51109 8.31852 2.80072 8.60815L4.33776 10.1452Z" fill="black"/>
<path d="M23.7192 9.37704C23.8637 9.52148 24.0533 9.59407 24.2429 9.59407C24.4326 9.59407 24.6222 9.52148 24.7666 9.37704C25.0563 9.08741 25.0563 8.61926 24.7666 8.32963L23.2296 6.79259C22.94 6.50296 22.4718 6.50296 22.1822 6.79259C21.8926 7.08222 21.8926 7.55037 22.1822 7.84L23.7192 9.37704Z" fill="black"/>
<path d="M3.85411 23.2674L5.3904 21.7304C5.68003 21.4407 5.68003 20.9726 5.3904 20.683C5.10077 20.3933 4.63263 20.3933 4.343 20.683L2.8067 22.22C2.51707 22.5096 2.51707 22.9778 2.8067 23.2674C2.95114 23.4118 3.14077 23.4844 3.3304 23.4844C3.52003 23.4844 3.70966 23.4118 3.85411 23.2674Z" fill="black"/>
<path d="M21.4141 21.4511C21.1245 21.7407 21.1245 22.2089 21.4141 22.4985L22.9504 24.0348C23.0949 24.1793 23.2845 24.2519 23.4741 24.2519C23.6637 24.2519 23.8534 24.1793 23.9978 24.0348C24.2875 23.7452 24.2875 23.277 23.9978 22.9874L22.4615 21.4511C22.1726 21.1622 21.7038 21.1622 21.4141 21.4511Z" fill="black"/>
</svg>
