<svg width="60" height="60" viewBox="0 0 60 60" fill="none" xmlns="http://www.w3.org/2000/svg">
<path d="M56.0435 47.0526C55.8044 47.0526 55.645 46.9737 55.4856 46.8158L15.3116 4.89474C14.9928 4.57895 14.9928 4.10527 15.3116 3.78948C15.6305 3.47369 16.1087 3.47369 16.4276 3.78948L56.6015 45.7105C56.9203 46.0263 56.9203 46.5 56.6015 46.8158C56.4421 46.9737 56.2029 47.0526 56.0435 47.0526Z" fill="black"/>
<path d="M52.6956 58.8947C52.3768 58.8947 52.0579 58.7368 51.9782 58.4211L29.1811 1.73684C29.0217 1.3421 29.1811 0.868419 29.6594 0.710524C30.0579 0.55263 30.5362 0.710525 30.6956 1.18421L53.4927 57.8684C53.6521 58.2632 53.4927 58.7368 53.0145 58.8947C52.855 58.8947 52.7753 58.8947 52.6956 58.8947Z" fill="black"/>
<path d="M14.7535 35.2895C13.5579 35.2895 12.3622 34.8158 11.5651 33.9474L6.62308 29.0526C4.86946 27.3158 4.86946 24.4737 6.62308 22.6579L11.5651 17.7632C12.4419 16.8947 13.5579 16.4211 14.7535 16.4211C15.9492 16.4211 17.1448 16.8947 17.9419 17.7632L22.8839 22.6579C24.6376 24.3947 24.6376 27.2368 22.8839 29.0526L17.9419 34.0263C17.0651 34.8158 15.9492 35.2895 14.7535 35.2895ZM12.6811 32.9211C13.797 34.0263 15.71 34.0263 16.826 32.9211L21.768 28.0263C22.8839 26.9211 22.8839 25.0263 21.768 23.9211L16.826 18.9474C15.71 17.8421 13.797 17.8421 12.6811 18.9474L7.73902 23.8421C6.62308 24.9474 6.62308 26.8421 7.73902 27.9474L12.6811 32.9211Z" fill="black"/>
<path d="M17.942 22.7368C17.0652 21.8684 15.9493 21.3947 14.6739 21.3947C13.4783 21.3947 12.2826 21.8684 11.4058 22.7368C9.65217 24.4737 9.65217 27.3947 11.4058 29.1316C12.2826 30 13.3985 30.4737 14.6739 30.4737C15.8696 30.4737 17.0652 30 17.942 29.1316C18.8188 28.2632 19.2971 27.1579 19.2971 25.8947C19.2971 24.7105 18.8188 23.6053 17.942 22.7368ZM12.6014 23.8421C13.558 22.8947 14.9927 22.7368 16.1884 23.3684L12.1232 27.3947C11.4855 26.2105 11.6449 24.7895 12.6014 23.8421ZM16.8261 28.0263C15.8696 28.9737 14.4348 29.1316 13.2391 28.5L17.3043 24.4737C17.5435 24.9474 17.7029 25.4211 17.7029 25.8947C17.7029 26.6842 17.3841 27.4737 16.8261 28.0263Z" fill="black"/>
<path d="M12.0436 59.3684C10.848 59.3684 9.73202 58.8947 8.85521 58.0263L3.91318 53.1316C3.03637 52.2631 2.55811 51.1579 2.55811 49.9737C2.55811 48.7895 3.03637 47.6053 3.91318 46.8158L8.85521 41.921C10.6088 40.1842 13.4784 40.1842 15.3117 41.921L20.2538 46.8158C21.1306 47.6842 21.6088 48.7895 21.6088 49.9737C21.6088 51.1579 21.1306 52.3421 20.2538 53.1316L15.3117 58.0263C14.3552 58.9737 13.2393 59.3684 12.0436 59.3684ZM9.97115 56.921C11.0871 58.0263 13.0001 58.0263 14.1161 56.921L19.0581 52.0263C19.6161 51.4737 19.9349 50.7631 19.9349 49.9737C19.9349 49.1842 19.6161 48.4737 19.0581 47.921L14.1161 43.0263C13.0001 41.921 11.0871 41.921 9.97115 43.0263L5.02912 47.921C4.47115 48.4737 4.15231 49.1842 4.15231 49.9737C4.15231 50.7631 4.47115 51.4737 5.02912 52.0263L9.97115 56.921Z" fill="black"/>
<path d="M15.3117 46.7368C14.4348 45.8684 13.3189 45.3947 12.0435 45.3947C10.7682 45.3947 9.65223 45.8684 8.77542 46.7368C7.0218 48.4737 7.0218 51.3947 8.77542 53.1316C9.65223 54 10.7682 54.4737 12.0435 54.4737C13.3189 54.4737 14.4348 54 15.3117 53.1316C16.1885 52.2632 16.6667 51.1579 16.6667 49.8947C16.6667 48.7895 16.1885 47.6053 15.3117 46.7368ZM9.97107 47.9211C10.9276 46.9737 12.3624 46.8158 13.558 47.4474L9.49281 51.4737C8.85513 50.2895 9.01455 48.8684 9.97107 47.9211ZM14.1957 52.0263C13.2392 52.9737 11.8044 53.1316 10.6088 52.5L14.674 48.4737C14.9131 48.9474 15.0725 49.4211 15.0725 49.8947C15.0725 50.7632 14.7537 51.4737 14.1957 52.0263Z" fill="black"/>
<path d="M33.9637 47.5263H26.9492C24.4782 47.5263 22.4058 45.4737 22.4058 43.0263V36.0789C22.4058 33.6316 24.4782 31.5789 26.9492 31.5789H33.9637C36.4348 31.5789 38.5072 33.6316 38.5072 36.0789V43.0263C38.5072 45.5526 36.5145 47.5263 33.9637 47.5263ZM26.9492 33.1579C25.355 33.1579 24 34.5 24 36.0789V43.0263C24 44.6053 25.355 45.9474 26.9492 45.9474H33.9637C35.5579 45.9474 36.913 44.6053 36.913 43.0263V36.0789C36.913 34.5 35.5579 33.1579 33.9637 33.1579H26.9492Z" fill="black"/>
<path d="M30.4566 35.0526C27.9058 35.0526 25.9131 37.1053 25.9131 39.5526C25.9131 42 27.9855 44.0526 30.4566 44.0526C32.9276 44.0526 35 42 35 39.5526C35 37.1053 33.0073 35.0526 30.4566 35.0526ZM30.4566 36.6316C31.8116 36.6316 32.9276 37.579 33.3261 38.7632H27.587C27.9855 37.5 29.1015 36.6316 30.4566 36.6316ZM30.4566 42.5526C29.1015 42.5526 27.9855 41.6053 27.587 40.4211H33.3261C33.0073 41.6053 31.8913 42.5526 30.4566 42.5526Z" fill="black"/>
</svg>
