<svg width="60" height="60" viewBox="0 0 60 60" fill="none" xmlns="http://www.w3.org/2000/svg">
<path d="M45.2223 2.31467C45.6524 2.31467 46 1.98414 46 1.57522C46 1.16631 45.6524 0.835777 45.2223 0.835777H30.7627C30.3326 0.835777 29.9849 1.16631 29.9849 1.57522V9.52353H19.5145C18.1363 9.52353 17.014 10.5876 17.014 11.8957V13.4507H15.5502C15.1201 13.4507 14.7725 13.7813 14.7725 14.1902V18.3074C14.7725 18.7163 15.1201 19.0468 15.5502 19.0468H16.6438L18.9289 59.2912C18.9514 59.6831 19.2929 59.9907 19.7059 59.9907H41.5193C41.9331 59.9907 42.2745 59.6824 42.2963 59.2897L44.5005 19.0468H45.2075C45.6376 19.0468 45.9853 18.7163 45.9853 18.3074V14.1902C45.9853 13.7813 45.6376 13.4507 45.2075 13.4507H43.7429V11.8957C43.7429 10.5876 42.6222 9.52353 41.2432 9.52353H31.5405V2.31467H45.2223ZM41.5053 45.2942H19.6927L18.7018 27.8433H42.4604L41.5053 45.2942ZM20.4424 58.5118L19.7759 46.7731H41.4236L40.7804 58.5118H20.4424ZM42.5421 26.3651H18.6178L18.2024 19.0476H42.9426L42.5421 26.3651ZM44.4297 17.568H16.328V14.9296H44.4297V17.568ZM42.1874 11.8957V13.4507H18.5695V11.8957C18.5695 11.4032 18.9934 11.0024 19.5145 11.0024H41.244C41.7635 11.0024 42.1874 11.4032 42.1874 11.8957Z" fill="black"/>
<path d="M23.158 35.4186L26.0086 38.0527L25.3358 41.7718C25.2789 42.0887 25.4149 42.4099 25.6878 42.5992C25.9633 42.7893 26.326 42.813 26.6237 42.6642L30.1508 40.9065L33.676 42.6642C33.8058 42.7285 33.948 42.7606 34.0894 42.7606C34.2734 42.7606 34.4574 42.7065 34.6129 42.5992C34.8867 42.4099 35.0227 42.0887 34.9649 41.7718L34.292 38.0527L37.1426 35.4186C37.3844 35.1938 37.4724 34.8583 37.3684 34.5524C37.2644 34.2465 36.9853 34.0234 36.6502 33.9769L32.7081 33.4335L30.9472 30.0482C30.797 29.76 30.4877 29.5775 30.1508 29.5775C29.8139 29.5775 29.5037 29.76 29.3543 30.0482L27.5926 33.4335L23.6505 33.9769C23.3154 34.0234 23.0371 34.2456 22.9322 34.5524C22.8274 34.8592 22.9154 35.1938 23.158 35.4186ZM28.3082 35.0417C28.597 35.002 28.8468 34.8296 28.9775 34.5803L30.1499 32.3282L31.3214 34.5803C31.4512 34.8296 31.7019 35.002 31.9907 35.0417L34.6076 35.4025L32.7152 37.151C32.5054 37.3445 32.4094 37.6259 32.4592 37.9006L32.9063 40.3724L30.5623 39.2037C30.3037 39.0752 29.9934 39.0752 29.7366 39.2037L27.3908 40.3724L27.8379 37.9006C27.8877 37.6259 27.7917 37.3454 27.5819 37.151L25.6895 35.4025L28.3082 35.0417Z" fill="black"/>
</svg>
