<svg width="60" height="60" viewBox="0 0 60 60" fill="none" xmlns="http://www.w3.org/2000/svg">
<path d="M30.9217 42.3022C28.2949 42.3022 26.1583 44.4395 26.1583 47.0663V54.5093C26.1583 57.1361 28.2949 59.2727 30.9217 59.2727H38.6003C41.2271 59.2727 43.3637 57.1361 43.3637 54.5093V47.0663C43.3637 44.4395 41.2271 42.3022 38.6003 42.3022H30.9217ZM41.9003 47.0663V54.5093C41.9003 56.3283 40.42 57.8093 38.6003 57.8093H30.9217C29.102 57.8093 27.6217 56.329 27.6217 54.5093V47.0663C27.6217 45.2466 29.102 43.7656 30.9217 43.7656H38.6003C40.42 43.7656 41.9003 45.2466 41.9003 47.0663Z" fill="black"/>
<path d="M29.2468 50.7878C29.2468 53.828 31.72 56.3012 34.7602 56.3012C37.8005 56.3012 40.2737 53.828 40.2737 50.7878C40.2737 47.7476 37.8005 45.2744 34.7602 45.2744C31.72 45.2744 29.2468 47.7476 29.2468 50.7878ZM30.7102 50.7878C30.7102 49.4422 31.3732 48.2502 32.3866 47.5134C32.2893 47.7629 32.2176 48.0717 32.2176 48.4712C32.2176 49.2637 32.4978 49.7027 32.7034 50.0224C32.868 50.2793 32.958 50.4205 32.958 50.7849C32.958 51.15 32.8673 51.2912 32.7034 51.548C32.4985 51.8685 32.2176 52.3076 32.2176 53.1C32.2176 53.5024 32.2907 53.8127 32.3888 54.0637C31.3739 53.3268 30.7102 52.1349 30.7102 50.7878ZM34.3556 54.8173C34.2612 54.3856 34.0812 54.0915 33.9356 53.8632C33.771 53.6063 33.681 53.4651 33.681 53.1C33.681 52.7349 33.7717 52.5937 33.9356 52.3368C34.1405 52.0163 34.4215 51.5773 34.4215 50.7849C34.4215 49.9924 34.1412 49.5534 33.9356 49.2337C33.771 48.9768 33.681 48.8356 33.681 48.4712C33.681 48.1076 33.7717 47.9671 33.9356 47.7102C34.0812 47.4827 34.2612 47.1893 34.3556 46.7583C34.4888 46.7451 34.6241 46.7378 34.761 46.7378C34.8598 46.7378 34.9571 46.7458 35.0544 46.7524C35.148 47.1871 35.3295 47.4827 35.4759 47.7117C35.6405 47.9685 35.7305 48.1097 35.7305 48.4749C35.7305 48.84 35.6398 48.9812 35.4759 49.238C35.271 49.5585 34.99 49.9976 34.99 50.79C34.99 51.5824 35.2702 52.0215 35.4759 52.3412C35.6405 52.598 35.7305 52.7393 35.7305 53.1036C35.7305 53.4673 35.6398 53.6085 35.4759 53.8654C35.3295 54.0936 35.1488 54.3885 35.0544 54.8232C34.9571 54.8305 34.8598 54.8378 34.761 54.8378C34.6241 54.8378 34.4888 54.8305 34.3556 54.8173ZM38.811 50.7878C38.811 52.2058 38.0763 53.4541 36.97 54.1778C37.0929 53.9078 37.1939 53.5727 37.1939 53.1036C37.1939 52.3112 36.9137 51.8722 36.708 51.5524C36.5434 51.2956 36.4534 51.1544 36.4534 50.79C36.4534 50.4249 36.5441 50.2837 36.708 50.0268C36.9129 49.7063 37.1939 49.2673 37.1939 48.4749C37.1939 48.0044 37.0922 47.6671 36.9693 47.3971C38.0763 48.1207 38.811 49.369 38.811 50.7878Z" fill="black"/>
<path d="M58.8986 0.741952C58.4991 0.693659 58.1311 0.973172 58.0791 1.37415L54.6972 27.5993L50.5016 0.820976C50.4394 0.421464 50.064 0.149269 49.6652 0.211464C49.2664 0.274391 48.9935 0.649025 49.0557 1.04781L54.0284 32.7849L50.7196 58.4473C50.6677 58.8483 50.9508 59.2149 51.3518 59.2668C51.3833 59.2705 51.4147 59.2727 51.4462 59.2727C51.8084 59.2727 52.123 59.0034 52.1706 58.6346L54.8377 37.95L58.0813 58.6544C58.1377 59.0151 58.4486 59.2727 58.8028 59.2727C58.8408 59.2727 58.8789 59.2698 58.9169 59.2639C59.3157 59.201 59.5886 58.8263 59.5264 58.4276L55.5057 32.7644L59.5294 1.56146C59.582 1.16049 59.2996 0.793903 58.8986 0.741952Z" fill="black"/>
<path d="M23.7026 6.28683V15.0915C23.7026 18.0841 26.1378 20.5193 29.1304 20.5193H37.9358C40.9285 20.5193 43.3636 18.0841 43.3636 15.0915V6.28683C43.3636 3.29341 40.9285 0.858292 37.9358 0.858292H29.1304C26.1378 0.858292 23.7026 3.29341 23.7026 6.28683ZM29.1304 2.32171H37.9358C40.1214 2.32171 41.9002 4.10049 41.9002 6.28683V15.0915C41.9002 17.2771 40.1214 19.0559 37.9358 19.0559H29.1304C26.9441 19.0559 25.1661 17.2771 25.1661 15.0915V6.28683C25.1661 4.09975 26.9448 2.32171 29.1304 2.32171Z" fill="black"/>
<path d="M33.5332 16.1612C36.5508 16.1612 39.0057 13.7071 39.0057 10.6888C39.0057 7.67049 36.5508 5.21634 33.5332 5.21634C30.5157 5.21634 28.0608 7.67049 28.0608 10.6888C28.0608 13.7071 30.5157 16.1612 33.5332 16.1612ZM37.1691 9.01097C37.3074 9.30878 37.4105 9.62561 37.472 9.95707H29.5944C29.6559 9.62561 29.7591 9.30878 29.8974 9.01097H37.1691ZM37.1691 12.3666H29.8974C29.7591 12.0688 29.6559 11.7519 29.5944 11.4205H37.4713C37.4098 11.7527 37.3066 12.0688 37.1691 12.3666ZM31.0505 13.83H36.0159C35.3325 14.3715 34.4705 14.6978 33.5332 14.6978C32.5959 14.6978 31.734 14.3715 31.0505 13.83ZM36.0159 7.54756H31.0505C31.734 7.0061 32.5959 6.67975 33.5332 6.67975C34.4705 6.67975 35.3325 7.0061 36.0159 7.54756Z" fill="black"/>
<path d="M15.4146 0.736099H6.49073C3.46293 0.736099 1 3.19903 1 6.22756V15.1507C1 18.1793 3.46366 20.6422 6.49073 20.6422H15.4146C18.4424 20.6422 20.9054 18.1793 20.9054 15.1507V6.22756C20.9061 3.19903 18.4424 0.736099 15.4146 0.736099ZM19.4427 8.68098H18.1212C17.7173 8.68098 17.3895 9.00805 17.3895 9.41268C17.3895 9.81732 17.7173 10.1444 18.1212 10.1444H19.4427V15.1507C19.4427 17.3715 17.6361 19.1788 15.4154 19.1788H14.7656V17.9751C14.7656 17.5705 14.4378 17.2434 14.0339 17.2434C13.63 17.2434 13.3022 17.5705 13.3022 17.9751V19.1788H6.49146C4.27073 19.1788 2.46415 17.3715 2.46415 15.1507V11.1249H3.30195C3.70585 11.1249 4.03366 10.7978 4.03366 10.3932C4.03366 9.98854 3.70585 9.66147 3.30195 9.66147H2.46341V6.22756C2.46341 5.32464 2.76561 4.49195 3.26976 3.81951L4.08781 4.63756C4.23049 4.78025 4.4178 4.85195 4.60512 4.85195C4.79244 4.85195 4.97976 4.78025 5.12244 4.63756C5.40854 4.35147 5.40854 3.88903 5.12244 3.60293L4.34463 2.82512C4.96659 2.43073 5.70122 2.19951 6.49073 2.19951H10.9776V3.04976C10.9776 3.45439 11.3054 3.78147 11.7093 3.78147C12.1132 3.78147 12.441 3.45439 12.441 3.04976V2.19951H15.4146C17.6354 2.19951 19.442 4.00683 19.442 6.22756V8.68098H19.4427Z" fill="black"/>
<path d="M15.4418 6.20049C13.701 4.45975 11.1942 3.94902 8.99835 4.65585L7.94542 3.60292C7.65933 3.31683 7.19689 3.31683 6.91079 3.60292C6.62469 3.88902 6.62469 4.35146 6.91079 4.63756L7.58615 5.31292C7.1881 5.56171 6.80981 5.85439 6.46445 6.19975C6.19884 6.4661 5.96689 6.75219 5.75835 7.05073L5.11957 6.41122C4.83347 6.12512 4.37103 6.12512 4.08493 6.41122C3.79884 6.69731 3.79884 7.15975 4.08493 7.44585L5.03762 8.39854C4.1625 10.6705 4.63518 13.3471 6.46445 15.1771C6.92323 15.6359 7.43542 16.0083 7.98055 16.2973L7.44567 16.8322C7.15957 17.1183 7.15957 17.5807 7.44567 17.8668C7.58835 18.0095 7.77567 18.0812 7.96298 18.0812C8.1503 18.0812 8.33762 18.0095 8.4803 17.8668L9.49006 16.8571C9.97079 16.9705 10.461 17.0341 10.9527 17.0341C12.5786 17.0341 14.2037 16.4151 15.4418 15.1778C17.9164 12.7024 17.9164 8.67512 15.4418 6.20049ZM14.4071 14.1432C12.5025 16.0463 9.40445 16.0478 7.49908 14.1432C5.59445 12.2385 5.59445 9.13902 7.49908 7.23512C9.40371 5.33195 12.5018 5.33049 14.4071 7.23512C16.311 9.13902 16.311 12.2385 14.4071 14.1432Z" fill="black"/>
<path d="M16.5122 5.01732C16.2261 5.30341 16.2261 5.76585 16.5122 6.05195L17.5827 7.12244C17.7253 7.26512 17.9127 7.33683 18.1 7.33683C18.2873 7.33683 18.4746 7.26512 18.6173 7.12244C18.9034 6.83634 18.9034 6.3739 18.6173 6.0878L17.5468 5.01732C17.2614 4.73195 16.7983 4.73195 16.5122 5.01732Z" fill="black"/>
<path d="M4.0878 14.692L3.01731 15.7624C2.73121 16.0485 2.73121 16.511 3.01731 16.7971C3.15999 16.9398 3.34731 17.0115 3.53462 17.0115C3.72194 17.0115 3.90926 16.9398 4.05194 16.7971L5.12243 15.7266C5.40853 15.4405 5.40853 14.978 5.12243 14.692C4.83633 14.4059 4.37389 14.4059 4.0878 14.692Z" fill="black"/>
<path d="M15.9773 15.2268C15.6912 15.5129 15.6912 15.9754 15.9773 16.2615L17.0478 17.3319C17.1904 17.4746 17.3778 17.5463 17.5651 17.5463C17.7524 17.5463 17.9397 17.4746 18.0824 17.3319C18.3685 17.0459 18.3685 16.5834 18.0824 16.2973L17.0119 15.2268C16.7258 14.9415 16.2626 14.9415 15.9773 15.2268Z" fill="black"/>
<path d="M43.3637 28.391C43.3637 25.7481 41.2132 23.5968 38.5695 23.5968H30.9525C28.3088 23.5968 26.1583 25.7473 26.1583 28.391V36.0088C26.1583 38.6517 28.3088 40.8029 30.9525 40.8029H38.5695C41.2132 40.8029 43.3637 38.6524 43.3637 36.0088V28.391V28.391ZM41.9003 36.0088C41.9003 37.8454 40.4061 39.3395 38.5695 39.3395H30.9525C29.1159 39.3395 27.6217 37.8454 27.6217 36.0088V28.391C27.6217 26.5544 29.1159 25.0602 30.9525 25.0602H38.5695C40.4061 25.0602 41.9003 26.5544 41.9003 28.391V36.0088V36.0088Z" fill="black"/>
<path d="M34.761 27.3666C32.0962 27.3666 29.9288 29.5346 29.9288 32.1995C29.9288 34.8644 32.0969 37.0317 34.761 37.0317C37.4252 37.0317 39.5932 34.8637 39.5932 32.1995C39.5932 29.5346 37.4252 27.3666 34.761 27.3666ZM31.3915 32.2002C31.3915 30.5941 32.5227 29.2515 34.0286 28.9156V35.4841C32.5227 35.1483 31.3915 33.8063 31.3915 32.2002ZM35.4927 35.4841V28.9156C36.9986 29.2515 38.1298 30.5941 38.1298 32.2002C38.1298 33.8063 36.9986 35.1483 35.4927 35.4841Z" fill="black"/>
<path d="M18.8281 23.5968C15.8486 23.5968 13.4244 26.0202 13.4244 29.0005C13.4244 31.9807 15.8486 34.4049 18.8281 34.4049C21.8076 34.4049 24.2318 31.9807 24.2318 29.0005C24.2318 26.0202 21.8076 23.5968 18.8281 23.5968ZM18.8281 32.9407C16.6557 32.9407 14.8879 31.1729 14.8879 28.9998C14.8879 26.8273 16.6557 25.0595 18.8281 25.0595C21.0005 25.0595 22.7683 26.8273 22.7683 28.9998C22.7683 31.1729 21.0005 32.9407 18.8281 32.9407Z" fill="black"/>
<path d="M18.828 26.6561C17.5351 26.6561 16.4829 27.7083 16.4829 29.0005C16.4829 30.2927 17.5351 31.3449 18.828 31.3449C20.121 31.3449 21.1724 30.2927 21.1724 29.0005C21.1724 27.7083 20.121 26.6561 18.828 26.6561ZM18.828 29.8815C18.3422 29.8815 17.9463 29.4863 17.9463 29.0005C17.9463 28.5146 18.3422 28.1195 18.828 28.1195C19.3139 28.1195 19.709 28.5146 19.709 29.0005C19.709 29.4863 19.3139 29.8815 18.828 29.8815Z" fill="black"/>
<path d="M18.8281 36.0307C15.8486 36.0307 13.4244 38.4549 13.4244 41.4351C13.4244 44.4154 15.8486 46.8388 18.8281 46.8388C21.8076 46.8388 24.2318 44.4154 24.2318 41.4351C24.2318 38.4549 21.8076 36.0307 18.8281 36.0307ZM18.8281 45.3754C16.6557 45.3754 14.8879 43.6076 14.8879 41.4351C14.8879 39.262 16.6557 37.4941 18.8281 37.4941C21.0005 37.4941 22.7683 39.262 22.7683 41.4351C22.7683 43.6076 21.0005 45.3754 18.8281 45.3754Z" fill="black"/>
<path d="M18.828 39.09C17.5351 39.09 16.4829 40.1422 16.4829 41.4351C16.4829 42.728 17.5351 43.7795 18.828 43.7795C20.121 43.7795 21.1724 42.7273 21.1724 41.4351C21.1724 40.1415 20.121 39.09 18.828 39.09ZM18.828 42.3161C18.3422 42.3161 17.9463 41.921 17.9463 41.4351C17.9463 40.9493 18.3422 40.5534 18.828 40.5534C19.3139 40.5534 19.709 40.9493 19.709 41.4351C19.709 41.921 19.3139 42.3161 18.828 42.3161Z" fill="black"/>
<path d="M18.8281 48.4654C15.8486 48.4654 13.4244 50.8888 13.4244 53.869C13.4244 56.8493 15.8486 59.2727 18.8281 59.2727C21.8076 59.2727 24.2318 56.8493 24.2318 53.869C24.2318 50.8888 21.8076 48.4654 18.8281 48.4654ZM18.8281 57.8093C16.6557 57.8093 14.8879 56.0415 14.8879 53.869C14.8879 51.6966 16.6557 49.9288 18.8281 49.9288C21.0005 49.9288 22.7683 51.6966 22.7683 53.869C22.7683 56.0415 21.0005 57.8093 18.8281 57.8093Z" fill="black"/>
<path d="M18.828 51.5246C17.5351 51.5246 16.4829 52.5768 16.4829 53.869C16.4829 55.1612 17.5351 56.2134 18.828 56.2134C20.121 56.2134 21.1724 55.1612 21.1724 53.869C21.1724 52.5768 20.121 51.5246 18.828 51.5246ZM18.828 54.75C18.3422 54.75 17.9463 54.3549 17.9463 53.869C17.9463 53.3832 18.3422 52.988 18.828 52.988C19.3139 52.988 19.709 53.3832 19.709 53.869C19.709 54.3549 19.3139 54.75 18.828 54.75Z" fill="black"/>
<path d="M6.40366 34.4041C9.38317 34.4041 11.8073 31.98 11.8073 28.9998C11.8073 26.0195 9.38317 23.5961 6.40366 23.5961C3.42415 23.5961 1 26.0195 1 28.9998C1 31.98 3.42415 34.4041 6.40366 34.4041ZM6.40366 25.0602C8.5761 25.0602 10.3439 26.828 10.3439 29.0005C10.3439 31.1737 8.5761 32.9415 6.40366 32.9415C4.23122 32.9415 2.46341 31.1729 2.46341 29.0005C2.46341 26.828 4.23122 25.0602 6.40366 25.0602Z" fill="black"/>
<path d="M6.40372 31.3449C7.69664 31.3449 8.74811 30.2927 8.74811 29.0005C8.74811 27.7083 7.69591 26.6561 6.40372 26.6561C5.11079 26.6561 4.05859 27.7083 4.05859 29.0005C4.05859 30.2927 5.11079 31.3449 6.40372 31.3449ZM6.40372 28.1195C6.88957 28.1195 7.28469 28.5146 7.28469 29.0005C7.28469 29.4863 6.88957 29.8815 6.40372 29.8815C5.91786 29.8815 5.52201 29.4863 5.52201 29.0005C5.52201 28.5146 5.91786 28.1195 6.40372 28.1195Z" fill="black"/>
<path d="M6.40366 46.8388C9.38317 46.8388 11.8073 44.4154 11.8073 41.4351C11.8073 38.4549 9.38317 36.0307 6.40366 36.0307C3.42415 36.0307 1 38.4549 1 41.4351C1 44.4154 3.42415 46.8388 6.40366 46.8388ZM6.40366 37.4941C8.5761 37.4941 10.3439 39.262 10.3439 41.4351C10.3439 43.6076 8.5761 45.3754 6.40366 45.3754C4.23122 45.3754 2.46341 43.6076 2.46341 41.4351C2.46341 39.262 4.23122 37.4941 6.40366 37.4941Z" fill="black"/>
<path d="M6.40372 43.7795C7.69664 43.7795 8.74811 42.7273 8.74811 41.4351C8.74811 40.1415 7.69591 39.09 6.40372 39.09C5.11079 39.09 4.05859 40.1422 4.05859 41.4351C4.05933 42.7273 5.11079 43.7795 6.40372 43.7795ZM6.40372 40.5534C6.88957 40.5534 7.28469 40.9493 7.28469 41.4351C7.28469 41.921 6.88957 42.3161 6.40372 42.3161C5.91786 42.3161 5.52201 41.921 5.52201 41.4351C5.52201 40.9493 5.91786 40.5534 6.40372 40.5534Z" fill="black"/>
<path d="M6.40366 59.2727C9.38317 59.2727 11.8073 56.8493 11.8073 53.869C11.8073 50.8888 9.38317 48.4654 6.40366 48.4654C3.42415 48.4654 1 50.8888 1 53.869C1 56.8493 3.42415 59.2727 6.40366 59.2727ZM6.40366 49.9288C8.5761 49.9288 10.3439 51.6966 10.3439 53.869C10.3439 56.0415 8.5761 57.8093 6.40366 57.8093C4.23122 57.8093 2.46341 56.0415 2.46341 53.869C2.46341 51.6966 4.23122 49.9288 6.40366 49.9288Z" fill="black"/>
<path d="M6.40372 56.2134C7.69664 56.2134 8.74811 55.1612 8.74811 53.869C8.74811 52.5768 7.69591 51.5246 6.40372 51.5246C5.11079 51.5246 4.05859 52.5768 4.05859 53.869C4.05859 55.1612 5.11079 56.2134 6.40372 56.2134ZM6.40372 52.988C6.88957 52.988 7.28469 53.3832 7.28469 53.869C7.28469 54.3549 6.88957 54.75 6.40372 54.75C5.91786 54.75 5.52201 54.3549 5.52201 53.869C5.52201 53.3832 5.91786 52.988 6.40372 52.988Z" fill="black"/>
</svg>
