<svg width="60" height="60" viewBox="0 0 60 60" fill="none" xmlns="http://www.w3.org/2000/svg">
<path d="M37.5 44.9333C37.5 40.0835 27.8394 37.4667 18.75 37.4667C9.66065 37.4667 0 40.0835 0 44.9333C0 44.9462 0.0290625 45.3793 0.0326719 45.406C0.265847 47.7362 2.23372 58 18.75 58C35.2663 58 37.2342 47.7362 37.4673 45.406C37.4709 45.3793 37.5 44.9462 37.5 44.9333ZM18.75 39.3333C28.6949 39.3333 35.625 42.2846 35.625 44.9333C35.6148 45.1933 35.5477 45.4478 35.4283 45.6793C30.1645 43.3941 24.4922 42.1881 18.75 42.1333C13.0078 42.1881 7.33546 43.3941 2.07167 45.6793C1.95232 45.4478 1.8852 45.1933 1.875 44.9333C1.875 42.2846 8.80508 39.3333 18.75 39.3333ZM34.086 47.1404C31.5228 48.9929 25.9307 50.5333 18.75 50.5333C11.5693 50.5333 5.97725 48.9929 3.414 47.1404C8.27961 45.1346 13.4842 44.0688 18.75 44C24.0158 44.0688 29.2204 45.1346 34.086 47.1404V47.1404ZM18.75 56.1333C8.89189 56.1333 4.79233 52.3453 3.08773 49.1723C6.66475 51.2881 12.8276 52.4 18.75 52.4C24.6916 52.4 30.876 51.2814 34.4479 49.1521C32.7651 52.3293 28.678 56.1333 18.75 56.1333Z" fill="black"/>
<path d="M59.6735 43.9316L47.8124 13.9569V7.6C48.5583 7.6 49.2737 7.305 49.8011 6.7799C50.3286 6.2548 50.6249 5.54261 50.6249 4.8C50.6249 4.05739 50.3286 3.3452 49.8011 2.8201C49.2737 2.295 48.5583 2 47.8124 2H36.5624C35.8165 2 35.1011 2.295 34.5737 2.8201C34.0462 3.3452 33.7499 4.05739 33.7499 4.8C33.7499 5.54261 34.0462 6.2548 34.5737 6.7799C35.1011 7.305 35.8165 7.6 36.5624 7.6V13.9632L28.1844 36.2052C28.0987 36.4367 28.1084 36.6925 28.2115 36.9168C28.3146 37.1411 28.5027 37.3157 28.7347 37.4024C28.9667 37.4891 29.2237 37.4808 29.4496 37.3795C29.6755 37.2781 29.8519 37.0919 29.9403 36.8615L38.1495 15.0667H46.2368C46.2368 15.0667 57.9932 44.8267 58.0214 44.9333H40.3124C40.0637 44.9333 39.8253 45.0317 39.6495 45.2067C39.4737 45.3817 39.3749 45.6191 39.3749 45.8667C39.3749 46.1142 39.4737 46.3516 39.6495 46.5266C39.8253 46.7017 40.0637 46.8 40.3124 46.8H57.9521C57.7595 47.3444 57.4024 47.8161 56.9297 48.1503C56.4571 48.4845 55.8921 48.6649 55.3124 48.6667H38.4374C38.1887 48.6667 37.9503 48.765 37.7745 48.94C37.5987 49.1151 37.4999 49.3525 37.4999 49.6C37.4999 49.8475 37.5987 50.0849 37.7745 50.26C37.9503 50.435 38.1887 50.5333 38.4374 50.5333H55.3124C56.5551 50.5319 57.7466 50.0397 58.6253 49.1649C59.5041 48.29 59.9984 47.1039 59.9999 45.8667V45.6425C60.0002 45.0568 59.8895 44.4764 59.6735 43.9316V43.9316ZM35.6249 4.8C35.6251 4.55254 35.724 4.31529 35.8998 4.14031C36.0755 3.96533 36.3138 3.86691 36.5624 3.86667H47.8124C48.061 3.86667 48.2995 3.965 48.4753 4.14003C48.6511 4.31507 48.7499 4.55246 48.7499 4.8C48.7499 5.04754 48.6511 5.28493 48.4753 5.45997C48.2995 5.635 48.061 5.73333 47.8124 5.73333H36.5624C36.3138 5.73309 36.0755 5.63467 35.8998 5.45969C35.724 5.28471 35.6251 5.04746 35.6249 4.8ZM38.4374 13.2V7.6H45.9374V13.2H38.4374Z" fill="black"/>
<path d="M34.6875 39.3333H49.6875C49.8361 39.3333 49.9825 39.2982 50.1148 39.2308C50.247 39.1633 50.3613 39.0656 50.4481 38.9456C50.535 38.8257 50.592 38.6868 50.6144 38.5406C50.6368 38.3944 50.624 38.245 50.577 38.1047L46.827 26.9047C46.7647 26.7189 46.6453 26.5573 46.4857 26.4428C46.3261 26.3282 46.1343 26.2666 45.9375 26.2667H38.4375C38.2408 26.2666 38.049 26.3282 37.8894 26.4428C37.7298 26.5573 37.6104 26.7189 37.5481 26.9047L33.7981 38.1047C33.7511 38.245 33.7383 38.3944 33.7607 38.5406C33.7831 38.6868 33.8401 38.8257 33.927 38.9456C34.0138 39.0656 34.1281 39.1633 34.2603 39.2308C34.3926 39.2982 34.539 39.3333 34.6875 39.3333V39.3333ZM39.1132 28.1333H45.2619L48.387 37.4667H35.9881L39.1132 28.1333Z" fill="black"/>
</svg>
