<svg width="60" height="60" viewBox="0 0 60 60" fill="none" xmlns="http://www.w3.org/2000/svg">
<path d="M52.5 15.3128H50.625V17.1878H52.5V15.3128Z" fill="black"/>
<path d="M49.6875 18.1253H47.8125V20.0003H49.6875V18.1253Z" fill="black"/>
<path d="M52.5 20.9378H50.625V22.8128H52.5V20.9378Z" fill="black"/>
<path d="M56.8408 20.6133C57.0669 20.1275 57.1852 19.5986 57.1875 19.0628C57.1856 18.5058 57.0598 17.9563 56.8191 17.4541C56.5783 16.9518 56.2288 16.5095 55.7959 16.1592C55.9848 15.81 56.1157 15.4324 56.1837 15.0413C57.4202 14.4708 60 12.6992 60 7.81277C59.9999 7.67035 59.9674 7.52981 59.905 7.40182C59.8425 7.27383 59.7517 7.16175 59.6395 7.07408C59.5272 6.98642 59.3965 6.92546 59.2572 6.89586C59.1179 6.86625 58.9736 6.86876 58.8354 6.9032C56.9491 7.4487 55.3271 8.66462 54.2744 10.3223C53.9251 8.26579 52.8062 6.41933 51.145 5.15777C50.9823 5.075 50.8063 5.02159 50.625 5C50.4714 5.00406 50.3209 5.04395 50.1855 5.11648C50.0501 5.18901 49.9335 5.29217 49.845 5.41775C49.2421 6.34196 48.902 7.41275 48.861 8.51545C48.82 9.61816 49.0797 10.7112 49.6123 11.6777C49.3306 11.6046 49.041 11.5661 48.75 11.5628C47.7558 11.5638 46.8025 11.9593 46.0995 12.6623C45.3965 13.3653 45.0011 14.3185 45 15.3128C45 15.3521 45.0009 15.3915 45.0019 15.4309C44.2433 15.6297 43.5662 16.0614 43.0658 16.6651C41.8405 14.5591 40.088 12.8084 37.9809 11.5851C35.8737 10.3618 33.4845 9.70811 31.048 9.68826C28.6116 9.6684 26.212 10.2831 24.0852 11.4719C21.9584 12.6607 20.1777 14.3826 18.9182 16.4683C17.3172 14.9711 15.3134 13.9747 13.1535 13.6017C10.9936 13.2287 8.77168 13.4953 6.76131 14.3688C4.75094 15.2422 3.03981 16.6844 1.8385 18.5178C0.637203 20.3512 -0.00184645 22.4958 4.00734e-06 24.6878C4.00734e-06 24.9158 0.251432 43.8688 17.8125 49.9873V52.8128C17.8125 53.0115 17.8757 53.2051 17.9929 53.3656C18.11 53.5261 18.2751 53.6452 18.4644 53.7059C22.1833 54.9539 26.0773 55.6018 30 55.6253C33.9227 55.6018 37.8167 54.9539 41.5356 53.7059C41.7249 53.6452 41.89 53.5261 42.0071 53.3656C42.1243 53.2051 42.1875 53.0115 42.1875 52.8128V49.9873C59.7486 43.8688 60 24.9158 60 24.6878C59.4405 23.0101 58.3262 21.5731 56.8408 20.6133ZM57.0453 31.547C53.4314 35.2366 42.317 37.8128 30 37.8128C17.683 37.8128 6.56857 35.2366 2.95469 31.547C2.55166 30.1209 2.25443 28.667 2.06543 27.1972C5.38147 30.0578 13.4985 35.0003 30 35.0003C46.5015 35.0003 54.6185 30.0578 57.9346 27.1972C57.7456 28.667 57.4483 30.1209 57.0453 31.547V31.547ZM6.5625 24.6878C6.56114 23.9234 6.74704 23.1704 7.10396 22.4945C7.46088 21.8186 7.97794 21.2404 8.60994 20.8105C9.24195 20.3806 9.96964 20.1121 10.7294 20.0284C11.4892 19.9447 12.2579 20.0484 12.9683 20.3305C10.3785 21.5056 8.20175 23.4321 6.7206 25.8599C6.61861 25.4774 6.56549 25.0836 6.5625 24.6878V24.6878ZM18.75 20.9378C20.4764 20.9361 22.1831 21.3036 23.7557 22.0158C25.3283 22.728 26.7304 23.7684 27.8679 25.067C27.2839 25.894 26.7912 26.7816 26.3981 27.7145C25.4222 26.3324 24.0902 25.2404 22.5435 24.5545C20.9968 23.8686 19.2932 23.6145 17.6136 23.819C15.9341 24.0235 14.3413 24.6792 13.0044 25.7162C11.6676 26.7533 10.6365 28.1331 10.0208 29.709C9.08111 29.3183 8.23265 28.9173 7.47157 28.5163C8.39462 26.2817 9.95786 24.3699 11.9647 23.0214C13.9715 21.6729 16.3322 20.948 18.75 20.9378V20.9378ZM50.9395 29.292C50.1439 29.6531 49.2787 30.0084 48.3294 30.3483C47.6649 28.2059 46.2544 26.3727 44.3538 25.1815C42.4532 23.9903 40.1885 23.5201 37.9707 23.8561C35.753 24.192 33.7292 25.3121 32.2667 27.0128C30.8042 28.7135 30 30.8822 30 33.1253C29.03 33.1253 28.1007 33.1016 27.1904 33.0675C27.2031 30.177 28.2431 27.3853 30.1245 25.191C32.0059 22.9966 34.6062 21.5427 37.4608 21.0889C40.3154 20.6351 43.2384 21.2109 45.7075 22.7136C48.1766 24.2163 50.0311 26.548 50.9395 29.292V29.292ZM43.8079 31.6702C43.4698 30.623 42.7725 29.7291 41.8392 29.1462C40.9059 28.5633 39.7967 28.329 38.7074 28.4847C37.6181 28.6403 36.6188 29.1759 35.8861 29.9969C35.1534 30.8178 34.7344 31.8713 34.7031 32.9712C33.7902 33.0304 32.8537 33.0771 31.8762 33.1011C31.8817 31.3061 32.5308 29.5726 33.7058 28.2155C34.8808 26.8585 36.5036 25.9679 38.2794 25.7057C40.0552 25.4435 41.8661 25.827 43.3832 26.7865C44.9002 27.746 46.0227 29.2179 46.5468 30.9347C45.6892 31.1959 44.7784 31.4428 43.8079 31.6702ZM41.9758 32.0624C40.3344 32.3801 38.5391 32.6376 36.5932 32.8213C36.6586 32.1999 36.9298 31.6182 37.3637 31.1686C37.7977 30.719 38.3695 30.4274 38.9882 30.3402C39.6069 30.253 40.237 30.3751 40.7784 30.6871C41.3197 30.9992 41.7412 31.4833 41.9758 32.0624ZM18.75 27.5003C17.6885 27.5026 16.6592 27.8649 15.8303 28.5281C15.0014 29.1912 14.4221 30.116 14.1869 31.1511C13.3307 30.9077 12.5251 30.6515 11.7702 30.3827C12.3119 28.9978 13.2539 27.8056 14.476 26.9584C15.6981 26.1112 17.145 25.6473 18.6319 25.626C20.1188 25.6046 21.5784 26.0268 22.8244 26.8386C24.0703 27.6503 25.0462 28.8149 25.6274 30.1837C25.4322 31.1008 25.3293 32.0351 25.3203 32.9727C22.1791 32.7876 19.0593 32.3357 15.9947 31.6221C16.1349 30.9397 16.5234 30.3335 17.0849 29.9211C17.6464 29.5088 18.341 29.3194 19.0341 29.3898C19.7272 29.4603 20.3696 29.7854 20.8367 30.3023C21.3038 30.8192 21.5624 31.4911 21.5625 32.1878H23.4375C23.436 30.945 22.9417 29.7536 22.063 28.8748C21.1842 27.9961 19.9928 27.5017 18.75 27.5003V27.5003ZM28.1382 22.6817C28.1578 22.1529 28.3277 21.6406 28.6279 21.2049C28.9282 20.7691 29.3464 20.4279 29.8336 20.2213C30.3208 20.0146 30.8567 19.9511 31.3787 20.0381C31.9007 20.1251 32.3871 20.3591 32.7809 20.7126C31.3899 21.4589 30.1337 22.433 29.0647 23.5945C28.7687 23.2735 28.459 22.9712 28.1382 22.6817ZM34.6136 19.9103C34.0891 19.2418 33.392 18.7294 32.5975 18.4282C31.8031 18.127 30.9414 18.0485 30.1056 18.2012C29.2698 18.354 28.4916 18.7321 27.8549 19.2948C27.2183 19.8574 26.7475 20.5833 26.4932 21.394C25.9634 21.0393 25.4097 20.7214 24.8363 20.4425C25.2742 19.3049 26.0212 18.3122 26.9931 17.5765C27.965 16.8407 29.1231 16.3911 30.3369 16.2783C31.5507 16.1655 32.7718 16.394 33.8626 16.9381C34.9535 17.4822 35.8706 18.3202 36.5107 19.3577C35.866 19.4966 35.232 19.6813 34.6136 19.9103ZM53.574 27.9372C53.9995 27.3952 54.2678 26.7467 54.3494 26.0624C54.9251 25.737 55.4042 25.2648 55.7381 24.694C56.0719 24.1232 56.2486 23.4741 56.25 22.8128C56.2469 22.6899 56.2375 22.5672 56.2218 22.4453C56.9635 22.9917 57.5638 23.7076 57.9726 24.5332C56.6861 25.8828 55.2032 27.0304 53.574 27.9372V27.9372ZM58.0252 9.25703C57.9638 9.98908 57.7503 10.7003 57.3984 11.3451C57.0464 11.9899 56.5638 12.5542 55.9813 13.0018C55.8543 12.6867 55.6848 12.3903 55.4775 12.1211C55.9606 10.8947 56.8635 9.87971 58.0252 9.25702L58.0252 9.25703ZM50.918 7.4571C51.7215 8.34448 52.2453 9.4492 52.4238 10.6329C52.0378 10.6433 51.6558 10.7139 51.2916 10.8421C51.0093 10.3303 50.831 9.7678 50.7669 9.18688C50.7028 8.60596 50.7541 8.0181 50.918 7.45709L50.918 7.4571ZM45.91 17.1882H45.911C45.9348 17.1914 46.0336 17.2024 46.0574 17.2038C46.213 17.2156 46.3689 17.1873 46.5104 17.1218C46.6519 17.0562 46.7743 16.9556 46.8659 16.8293C46.959 16.7047 47.0197 16.5589 47.0424 16.405C47.0651 16.251 47.0491 16.0939 46.9959 15.9477C46.9184 15.7448 46.8775 15.5299 46.875 15.3128C46.8756 14.8157 47.0733 14.3391 47.4248 13.9876C47.7763 13.6361 48.2529 13.4383 48.75 13.4378C49.0726 13.4408 49.3888 13.5281 49.6674 13.6909C49.8767 13.8091 50.1235 13.8424 50.3567 13.7839C50.5899 13.7255 50.7918 13.5798 50.9207 13.3768C51.062 13.1506 51.25 12.9572 51.4723 12.8096C51.6945 12.6621 51.9457 12.5638 52.2091 12.5214C52.4724 12.479 52.7418 12.4935 52.9991 12.5639C53.2564 12.6343 53.4956 12.7589 53.7008 12.9294C53.9059 13.0999 54.0721 13.3123 54.1883 13.5524C54.3045 13.7925 54.368 14.0547 54.3745 14.3214C54.3809 14.5881 54.3302 14.853 54.2258 15.0985C54.1213 15.3439 53.9656 15.5641 53.7689 15.7444C53.6514 15.8534 53.5637 15.9907 53.5144 16.1433C53.465 16.2958 53.4556 16.4585 53.487 16.6157C53.5184 16.7729 53.5896 16.9194 53.6938 17.0413C53.7979 17.1632 53.9316 17.2563 54.082 17.3118C54.4109 17.4302 54.6997 17.6388 54.9155 17.9138C55.1313 18.1887 55.2653 18.5188 55.3022 18.8664C55.339 19.2139 55.2773 19.5649 55.124 19.879C54.9708 20.1931 54.7321 20.4577 54.4355 20.6425C54.2319 20.7714 54.0859 20.9738 54.0276 21.2076C53.9693 21.4414 54.0032 21.6887 54.1224 21.8981C54.2852 22.1756 54.3723 22.491 54.375 22.8128C54.373 23.2008 54.2505 23.5787 54.0243 23.894C53.7981 24.2094 53.4794 24.4466 53.1125 24.5729C52.9213 24.6395 52.7569 24.7662 52.6437 24.934C52.5305 25.1018 52.4746 25.3018 52.4844 25.504C52.4853 25.5448 52.4905 25.5855 52.5 25.6253C52.4938 26.101 52.3052 26.5562 51.9732 26.897C50.4067 23.7734 47.7441 21.3367 44.4943 20.0525C44.378 19.6259 44.2429 19.2082 44.0891 18.7994C44.1493 18.3573 44.3663 17.9514 44.7005 17.6558C45.0346 17.3601 45.4639 17.1942 45.91 17.1882V17.1882ZM30.9375 11.5628C33.4 11.5748 35.8019 12.3278 37.8305 13.7239C39.8591 15.1199 41.4205 17.0943 42.3115 19.39C41.3471 19.1765 40.3627 19.0668 39.375 19.0628C39.0773 19.0628 38.7863 19.0892 38.4932 19.1075C37.7762 17.6345 36.6449 16.4029 35.2381 15.5636C33.8313 14.7243 32.2101 14.3139 30.5734 14.3827C28.9367 14.4514 27.3556 14.9964 26.0241 15.9508C24.6927 16.9051 23.6687 18.2273 23.0778 19.7551C21.9729 19.4018 20.8285 19.1867 19.6707 19.1146C20.598 16.8875 22.1615 14.9832 24.1655 13.64C26.1695 12.2968 28.525 11.5742 30.9375 11.5628ZM11.25 15.3128C12.5164 15.3129 13.7695 15.5708 14.9331 16.0706C16.0967 16.5704 17.1465 17.3018 18.0184 18.2201C17.8938 18.5099 17.779 18.8048 17.6739 19.1048C16.8647 19.1705 16.0628 19.3071 15.2774 19.5128C14.1396 18.6171 12.7368 18.1242 11.2888 18.1112C9.84084 18.0983 8.42947 18.5661 7.27583 19.4413C6.1222 20.3164 5.29148 21.5496 4.91383 22.9475C4.53617 24.3455 4.63293 25.8292 5.18893 27.1662C3.97039 26.3878 2.86119 25.4503 1.89068 24.3785C1.97198 21.9492 2.99319 19.6463 4.73912 17.9551C6.48504 16.2639 8.81931 15.3166 11.25 15.3128V15.3128ZM40.3125 52.1234C36.977 53.1838 33.5 53.7323 30 53.7503C26.5 53.7323 23.023 53.1838 19.6875 52.1234V50.5677C23.0499 51.4684 26.5192 51.9083 30 51.8753C33.4808 51.9083 36.9501 51.4684 40.3125 50.5677V52.1234ZM30 50.0003C13.8224 50.0003 6.95418 41.7555 4.03479 34.67C9.24511 37.7319 19.0503 39.6878 30 39.6878C40.9497 39.6878 50.7549 37.7319 55.9652 34.67C53.0458 41.7555 46.1776 50.0003 30 50.0003Z" fill="black"/>
</svg>
