<svg width="26" height="26" viewBox="0 0 26 26" fill="none" xmlns="http://www.w3.org/2000/svg">
<path d="M13 8.83438C10.7063 8.83438 8.8344 10.7063 8.8344 13C8.8344 15.2938 10.7063 17.1656 13 17.1656C15.2938 17.1656 17.1657 15.2938 17.1657 13C17.1657 10.7063 15.2938 8.83438 13 8.83438ZM25.4938 13C25.4938 11.275 25.5094 9.56563 25.4125 7.84376C25.3157 5.84376 24.8594 4.06876 23.3969 2.60626C21.9313 1.14063 20.1594 0.687508 18.1594 0.590633C16.4344 0.493758 14.725 0.509383 13.0031 0.509383C11.2781 0.509383 9.56878 0.493758 7.8469 0.590633C5.8469 0.687508 4.0719 1.14376 2.6094 2.60626C1.14378 4.07188 0.690651 5.84376 0.593776 7.84376C0.496901 9.56876 0.512526 11.2781 0.512526 13C0.512526 14.7219 0.496901 16.4344 0.593776 18.1563C0.690651 20.1563 1.1469 21.9313 2.6094 23.3938C4.07503 24.8594 5.8469 25.3125 7.8469 25.4094C9.5719 25.5063 11.2813 25.4906 13.0031 25.4906C14.7282 25.4906 16.4375 25.5063 18.1594 25.4094C20.1594 25.3125 21.9344 24.8563 23.3969 23.3938C24.8625 21.9281 25.3157 20.1563 25.4125 18.1563C25.5125 16.4344 25.4938 14.725 25.4938 13ZM13 19.4094C9.45315 19.4094 6.59065 16.5469 6.59065 13C6.59065 9.45313 9.45315 6.59063 13 6.59063C16.5469 6.59063 19.4094 9.45313 19.4094 13C19.4094 16.5469 16.5469 19.4094 13 19.4094ZM19.6719 7.82501C18.8438 7.82501 18.175 7.15626 18.175 6.32813C18.175 5.50001 18.8438 4.83126 19.6719 4.83126C20.5 4.83126 21.1688 5.50001 21.1688 6.32813C21.169 6.52477 21.1305 6.71953 21.0553 6.90125C20.9802 7.08297 20.8699 7.24809 20.7309 7.38713C20.5919 7.52618 20.4267 7.63643 20.245 7.71157C20.0633 7.78671 19.8685 7.82525 19.6719 7.82501Z" fill="white"/>
</svg>
