<svg width="211" height="70" viewBox="0 0 211 70" fill="none" xmlns="http://www.w3.org/2000/svg">
<path fill-rule="evenodd" clip-rule="evenodd" d="M14.0665 48.73C14.1429 48.8304 14.047 48.7015 14.3662 49.1167C14.3857 49.1437 14.4052 49.1707 14.4217 49.1976L14.6794 49.5303L15.0107 49.9605C15.0331 49.9905 15.0541 50.0219 15.0736 50.0519L15.3614 50.4311C15.5873 50.7326 15.6842 51.1115 15.6308 51.4845C15.5774 51.8574 15.3781 52.1939 15.0766 52.4199L14.9987 52.4753C14.548 52.7661 14.1534 53.0234 13.8147 53.2472L12.3264 54.2379C11.8049 54.5856 11.2898 54.9533 10.7812 55.3409C10.2727 55.7286 9.7691 56.1368 9.27052 56.5654C8.81656 56.9546 8.38662 57.371 7.9831 57.8123C7.62088 58.2061 7.28732 58.6253 6.98496 59.0668C6.86126 59.2448 6.75628 59.4352 6.67171 59.6348C7.62781 59.618 8.58236 59.5505 9.5313 59.4325C11.0635 59.2412 12.5801 58.9407 14.0695 58.5332C15.6437 58.1079 17.1946 57.6001 18.7155 57.012C20.2596 56.4128 21.7719 55.7345 23.2462 54.9797C24.7519 54.2124 26.2007 53.3921 27.5925 52.5188C28.9843 51.6456 30.3387 50.7118 31.6556 49.7177C32.9625 48.7265 34.1669 47.7274 35.269 46.7202C36.3245 45.7536 37.3252 44.7289 38.2665 43.6508C38.5862 43.2442 38.8994 42.8025 39.2062 42.326C38.8405 42.286 38.4523 42.263 38.0416 42.257C37.4262 42.247 36.8202 42.2545 36.2237 42.2795C35.6617 42.302 35.1026 42.3439 34.5496 42.4039C32.6652 42.6037 30.8133 42.8036 28.9938 43.0034L23.5984 43.5924C21.9678 43.7712 20.2158 43.9666 18.3423 44.1784C16.7222 44.3612 14.9672 44.5636 13.0968 44.7779L12.9934 44.7869C12.4039 44.8248 11.8044 44.8468 11.1949 44.8528C10.5854 44.8588 10.0279 44.8458 9.5223 44.8138C8.97116 44.7819 8.42313 44.7093 7.8827 44.5965C7.35828 44.4887 6.84352 44.3383 6.3435 44.1469C5.84542 43.9516 5.36549 43.7129 4.90922 43.4335C4.4426 43.1472 4 42.8234 3.58583 42.4653C3.14079 42.0761 2.72687 41.6527 2.34788 41.1989C1.93089 40.7012 1.54451 40.1787 1.19086 39.6342C1.15537 39.5806 1.12382 39.5245 1.09644 39.4664C0.829379 38.9162 0.661923 38.323 0.601853 37.7144C0.54394 37.1133 0.602464 36.5067 0.774211 35.9279C0.915314 35.4422 1.09627 34.969 1.31525 34.5131C1.52854 34.0613 1.7792 33.6282 2.06462 33.2182L2.0931 33.1792C3.03519 31.9358 4.06601 30.7623 5.17748 29.6677C6.35606 28.5042 7.60754 27.4169 8.92431 26.4124C10.2542 25.3913 11.653 24.4051 13.1208 23.4539C14.5885 22.5027 16.0967 21.6 17.6454 20.7457C19.2211 19.8815 20.8052 19.0681 22.3979 18.3058C23.9656 17.5584 25.6007 16.8355 27.3032 16.1371C28.9668 15.4547 30.5905 14.8247 32.1741 14.2472C33.8137 13.6477 35.3774 13.1142 36.8651 12.6466C38.3129 12.191 39.7847 11.7578 41.2804 11.3472C42.6962 10.9605 44.0501 10.6223 45.342 10.3325C46.6548 10.0388 47.8368 9.80449 48.888 9.62964C49.979 9.44879 50.9432 9.3269 51.7805 9.26396C52.8382 9.16025 53.906 9.25685 54.9278 9.54871C55.9136 9.83594 56.8246 10.3352 57.5971 11.0115C57.6255 11.0354 57.6525 11.0609 57.678 11.0879C58.0183 11.3917 58.3383 11.7177 58.6357 12.0636C58.9826 12.466 59.3064 12.8878 59.6054 13.327C59.9147 13.7784 60.1898 14.2523 60.4282 14.7448C60.652 15.2038 60.8317 15.6831 60.9647 16.1761C60.9647 16.2046 60.9782 16.2331 60.9842 16.26C61.1083 16.8947 61.0759 17.5501 60.8898 18.1694C60.6984 18.797 60.3937 19.3842 59.9905 19.9019C59.96 19.9429 59.9269 19.9819 59.8916 20.0189C59.1288 20.9246 58.3072 21.7792 57.4322 22.5772C56.4748 23.4456 55.4675 24.2573 54.4153 25.0081C53.3532 25.7725 52.2661 26.5093 51.154 27.2187C50.01 27.9491 48.888 28.6246 47.7879 29.245C46.6878 29.8655 45.5643 30.465 44.4173 31.0435C43.3182 31.6 42.2191 32.1251 41.12 32.6187C38.9219 33.6038 37.0879 34.3937 35.6182 34.9882C35.5722 35.0073 35.5252 35.0238 35.4773 35.0376C35.236 35.129 35.0157 35.207 34.8179 35.2744C34.5496 35.3643 34.3248 35.4243 34.1479 35.4753C33.881 35.5437 33.6067 35.579 33.3311 35.5802C33.0493 35.5803 32.7688 35.541 32.4978 35.4633C32.219 35.3816 31.9532 35.261 31.708 35.1051C31.4674 34.9545 31.242 34.7808 31.0351 34.5865C30.8732 34.4366 30.6874 34.2523 30.4746 34.0335C30.2617 33.8147 30.0429 33.5839 29.8286 33.3501C29.6819 33.1894 29.5738 32.9975 29.5126 32.7887C29.4514 32.58 29.4387 32.3601 29.4754 32.1457C29.5121 31.9313 29.5973 31.7281 29.7245 31.5516C29.8517 31.3752 30.0175 31.2301 30.2093 31.1274C31.2494 30.504 32.2555 29.911 33.2277 29.3484C34.1999 28.7859 35.2385 28.1954 36.3436 27.5769C37.3627 27.0074 38.3789 26.4204 39.392 25.8159C40.4311 25.1955 41.4338 24.5775 42.3999 23.962C43.3661 23.3465 44.3418 22.6971 45.327 22.0137C46.3011 21.3392 47.2469 20.6568 48.1641 19.9664C48.8185 19.4738 49.4615 18.9582 50.0929 18.4197C49.4605 18.5416 48.8265 18.6705 48.191 18.8064C46.0658 19.265 43.9361 19.8145 41.802 20.455C39.6518 21.1004 37.5536 21.8193 35.5073 22.6116C33.461 23.404 31.4213 24.2852 29.388 25.2554C27.3387 26.2336 25.3784 27.2617 23.507 28.3398C21.6355 29.4179 19.7771 30.5884 17.9317 31.8513C16.1152 33.0953 14.3862 34.3822 12.7446 35.7121C11.9263 36.3745 11.1269 37.0494 10.3466 37.7368L10.6599 37.7533C11.8169 37.8073 12.9799 37.8098 14.1489 37.7608C15.2819 37.7129 16.4809 37.6419 17.7458 37.548C18.9808 37.4551 20.1908 37.3452 21.3758 37.2183C22.4858 37.0984 23.7098 36.969 25.0477 36.8301C26.1612 36.7132 27.3737 36.5888 28.703 36.4554C29.941 36.3305 31.165 36.2371 32.3749 36.1752C33.6409 36.1112 34.8519 36.0792 36.0079 36.0792C36.0615 36.0792 36.115 36.0822 36.1682 36.0882C37.0479 36.1107 37.9241 36.206 38.788 36.373C39.6599 36.544 40.5131 36.7989 41.3359 37.1343C42.2328 37.4952 43.0412 38.0459 43.7054 38.7485C44.3777 39.4742 44.9061 40.321 45.2625 41.2439C45.2775 41.2843 45.2925 41.3263 45.3045 41.3668C45.4793 41.9492 45.5379 42.5602 45.4768 43.1652C45.4155 43.7751 45.2524 44.3703 44.9943 44.9262C44.7584 45.4448 44.4854 45.9457 44.1774 46.425C43.8594 46.9145 43.5089 47.3821 43.1283 47.8248C42.1605 48.9628 41.1197 50.0366 40.0125 51.0396C38.7911 52.1513 37.5125 53.1983 36.1817 54.1764C34.7759 55.2145 33.3366 56.1917 31.8639 57.1079C30.3652 58.0391 28.8349 58.9114 27.2733 59.7247C25.7116 60.538 24.1284 61.2849 22.5238 61.9653C20.9142 62.6487 19.3155 63.2527 17.7278 63.7773C16.2054 64.2864 14.654 64.7043 13.0818 65.0287C11.6884 65.3189 10.2751 65.5032 8.85387 65.5803C8.35011 65.6294 7.84222 65.6163 7.34166 65.5413L7.29069 65.5323C6.77833 65.4502 6.276 65.3146 5.79196 65.1276C4.79539 64.7532 3.88192 64.187 3.10324 63.4611C2.7212 63.1061 2.37896 62.7106 2.0826 62.2816C1.79127 61.8554 1.5518 61.3961 1.36922 60.9132C1.16431 60.3877 1.06644 59.8265 1.08137 59.2626C1.09629 58.6987 1.22371 58.1435 1.45614 57.6295C1.91709 56.574 2.54232 55.5983 3.30857 54.7384C3.69925 54.2906 4.11244 53.8629 4.54652 53.457C4.99914 53.0314 5.46424 52.6317 5.94183 52.258C6.36747 51.9263 6.86055 51.5651 7.42108 51.1745C7.94863 50.8058 8.4702 50.4601 8.98576 50.1373C9.5313 49.7946 10.0668 49.4699 10.5924 49.1632C11.1369 48.8484 11.676 48.5487 12.2095 48.2639C12.5222 48.0954 12.8865 48.0499 13.231 48.1364C13.5755 48.223 13.8751 48.4352 14.071 48.7315L14.0665 48.73ZM9.87002 62.2651C8.87513 62.3871 7.87469 62.4586 6.87256 62.4794C7.14468 62.5804 7.42567 62.6556 7.71184 62.7042H7.75381C8.02936 62.7481 8.30938 62.7567 8.58709 62.7297H8.66503C9.95479 62.6622 11.2375 62.4959 12.5018 62.2321C13.9638 61.9266 15.4066 61.5353 16.8226 61.0601C18.3673 60.5475 19.89 59.9725 21.3908 59.335C22.8915 58.6976 24.4077 57.9812 25.9394 57.1859C27.4641 56.3935 28.9319 55.5583 30.3427 54.68C31.7765 53.7868 33.1523 52.8535 34.4702 51.8804C35.7229 50.9613 36.9269 49.9778 38.0776 48.9338C39.0942 48.011 40.0494 47.0227 40.9372 45.9754C41.2348 45.6275 41.5087 45.26 41.757 44.8753C41.989 44.5156 42.1944 44.1394 42.3715 43.7497C42.5013 43.4786 42.5859 43.188 42.6218 42.8895C42.6429 42.6664 42.6226 42.4412 42.5618 42.2255C42.2681 42.7771 41.9598 43.3056 41.6371 43.8112C41.2914 44.3507 40.9127 44.8818 40.5011 45.4044C40.4741 45.4403 40.4471 45.4763 40.4171 45.5108C39.406 46.6696 38.3302 47.7705 37.1949 48.808C36.0199 49.888 34.7449 50.9496 33.3701 51.9928C31.9953 53.0359 30.5705 54.0176 29.0957 54.9378C27.615 55.864 26.0933 56.7253 24.5306 57.5216C22.9697 58.318 21.3689 59.0339 19.7347 59.6663C18.1206 60.2925 16.4747 60.8333 14.8038 61.2864C13.1864 61.7285 11.5397 62.055 9.876 62.2636L9.87002 62.2651ZM38.0791 39.4064C38.5662 39.4064 39.0308 39.4409 39.4759 39.4873C39.0648 39.3584 38.6471 39.2519 38.2245 39.1681C37.5148 39.0296 36.7951 38.9489 36.0723 38.9268H35.9899C34.7909 38.9268 33.6284 38.9553 32.5023 39.0123C31.3243 39.0722 30.1448 39.1621 28.9638 39.282C27.8713 39.3914 26.6498 39.5173 25.3204 39.6552L21.6575 40.0434C20.3836 40.1813 19.1442 40.2952 17.9392 40.3851C16.7632 40.473 15.5322 40.544 14.2463 40.5979C12.9964 40.6509 11.7554 40.6509 10.5235 40.5979C9.2915 40.545 8.06854 40.4331 6.85457 40.2622C6.58746 40.2295 6.33506 40.1219 6.12665 39.9517C5.91823 39.7814 5.76232 39.5556 5.67699 39.3004C5.59166 39.0452 5.5804 38.771 5.64452 38.5097C5.70863 38.2483 5.8455 38.0105 6.03925 37.8238C7.58894 36.337 9.22207 34.8987 10.9386 33.5089C12.6552 32.1191 14.4471 30.7837 16.3146 29.5028C18.162 28.2379 20.0839 27.0304 22.0802 25.8804C24.0915 24.7224 26.1147 23.6573 28.15 22.6851C30.1853 21.7129 32.292 20.8052 34.4702 19.9619C36.6283 19.1286 38.798 18.3842 40.9792 17.7288C43.1603 17.0733 45.3644 16.5048 47.5916 16.0232C49.7587 15.5566 51.9489 15.1774 54.162 14.8857C54.4569 14.8345 54.7604 14.8777 55.0293 15.009C55.2982 15.1403 55.5189 15.3531 55.6598 15.6171C55.8008 15.8811 55.8549 16.1828 55.8144 16.4794C55.7739 16.7759 55.641 17.0521 55.4344 17.2687C54.5672 18.1779 53.6629 19.0527 52.7217 19.8929C51.7805 20.7332 50.8268 21.5166 49.8606 22.243C48.8885 22.9743 47.9133 23.6787 46.9351 24.3562C45.9569 25.0336 44.9533 25.6995 43.9242 26.354C42.8781 27.0194 41.8534 27.6519 40.8503 28.2514C39.8201 28.8658 38.778 29.4653 37.7239 30.0498C36.7447 30.5974 35.7206 31.1804 34.6515 31.7989C34.1519 32.0896 33.6604 32.3764 33.1768 32.6591L33.1992 32.6741C33.2232 32.6902 33.2495 32.7023 33.2772 32.7101C33.2945 32.7132 33.3123 32.7132 33.3296 32.7101C33.3721 32.7096 33.4144 32.7041 33.4555 32.6936C33.6054 32.6561 33.7553 32.6112 33.9141 32.5587C34.079 32.5048 34.2618 32.4388 34.4597 32.3639L34.5406 32.3279C36.0813 31.7045 37.8858 30.9291 39.954 30.0019C40.9872 29.5403 42.0467 29.0342 43.1328 28.4837C44.1819 27.9511 45.268 27.3681 46.3911 26.7347C47.5141 26.1012 48.5922 25.4557 49.6253 24.7983C50.6774 24.1249 51.7196 23.418 52.7517 22.6776C53.7149 21.9885 54.6367 21.2433 55.5123 20.446C56.294 19.7406 57.0289 18.9852 57.7125 18.1844L57.7275 18.1649C57.9191 17.9272 58.0668 17.6572 58.1636 17.3676C58.2185 17.1874 58.2282 16.9964 58.1921 16.8116C58.1079 16.5184 57.9986 16.2331 57.8654 15.9588C57.6888 15.598 57.4848 15.2513 57.2554 14.9217C57.0186 14.5715 56.7619 14.2352 56.4865 13.9145C56.2737 13.6651 56.0444 13.4302 55.8001 13.2116C55.7761 13.1936 55.7506 13.1726 55.7267 13.1517C55.2642 12.7442 54.7185 12.4425 54.1275 12.2674C53.4448 12.0804 52.7333 12.022 52.0293 12.0951H52.0173C51.231 12.153 50.3442 12.2644 49.3571 12.4293C48.3239 12.6001 47.1939 12.8229 45.9669 13.0977C44.717 13.3775 43.4081 13.7047 42.0403 14.0794C40.7514 14.4331 39.3171 14.8592 37.7374 15.3578C36.1957 15.8434 34.669 16.3614 33.1573 16.912C31.5916 17.4825 30.005 18.0975 28.3973 18.7569C26.8267 19.4014 25.24 20.1063 23.6374 20.8716C22.0607 21.624 20.525 22.4113 19.0303 23.2336C17.5095 24.0679 16.0608 24.9332 14.6839 25.8294C13.3071 26.7257 11.9702 27.6709 10.6733 28.665C9.456 29.5947 8.2982 30.5998 7.20677 31.6745C6.19449 32.6739 5.25537 33.7447 4.39665 34.8787C4.20712 35.1486 4.03972 35.4333 3.89608 35.73C3.74432 36.0458 3.619 36.3737 3.5214 36.7102C3.45136 36.9462 3.42743 37.1935 3.45094 37.4386C3.47904 37.6866 3.54686 37.9285 3.65178 38.155C3.92434 38.5713 4.22057 38.9716 4.53902 39.354C4.82244 39.6926 5.13215 40.0083 5.46524 40.2982C5.76174 40.5542 6.0785 40.7858 6.41243 40.9906C6.72656 41.1827 7.05708 41.3467 7.40011 41.4807C7.75204 41.6171 8.11441 41.7248 8.48369 41.8029C8.88776 41.8872 9.29754 41.9413 9.70964 41.9648C10.1992 41.9947 10.6938 42.0077 11.1934 42.0037C11.67 42.0037 12.209 41.9817 12.8105 41.9378C14.4277 41.7504 16.1707 41.5496 18.0561 41.3383C19.6837 41.1535 21.4392 40.9576 23.3226 40.7508L28.7181 40.1633L34.2738 39.5638C34.8603 39.5008 35.4818 39.4559 36.1383 39.4289C36.7597 39.4039 37.4137 39.3964 38.1001 39.4064H38.0791ZM54.6131 50.8717C53.7962 51.3003 52.9437 51.6573 52.0653 51.9388C52.0076 51.9616 51.9485 51.9806 51.8884 51.9958C52.0202 52.027 52.1539 52.0495 52.2886 52.0632C52.9056 52.1113 53.5247 52.0009 54.0871 51.7425C55.0819 51.2522 56.0344 50.6802 56.9347 50.0324C57.4502 49.6647 57.9583 49.2871 58.4589 48.8994C58.9384 48.5297 59.438 48.1265 59.9576 47.6899C60.4392 47.2903 60.9253 46.8686 61.4158 46.425C61.8575 46.0253 62.3236 45.5927 62.8142 45.1271C63.1139 44.8423 63.5635 44.4087 64.163 43.8262C64.5867 43.4115 64.9933 43.0119 65.383 42.6272C65.5933 42.402 65.871 42.2513 66.1744 42.1976C66.4778 42.1439 66.7905 42.1901 67.0653 42.3294C67.3401 42.4687 67.5623 42.6934 67.6984 42.9698C67.8345 43.2463 67.8771 43.5594 67.8199 43.8621C67.7105 44.4437 67.6131 45.0177 67.5202 45.5797C67.4272 46.1417 67.3703 46.5718 67.3433 46.9091C67.3112 47.1942 67.3061 47.4817 67.3283 47.7678C67.3438 47.9571 67.3841 48.1436 67.4482 48.3224C67.5054 48.4821 67.5841 48.6334 67.682 48.772C67.709 48.8125 67.739 48.8514 67.7705 48.8904C67.827 48.0846 67.9377 47.2834 68.1017 46.4924C68.2962 45.557 68.5777 44.6418 68.9425 43.7587C69.3786 42.7096 69.7098 41.9078 69.9331 41.3608C70.0935 40.9696 70.4292 40.1438 70.9493 38.8594C71.0127 38.7092 71.057 38.5516 71.0812 38.3903C71.0812 38.3453 71.0932 38.3318 71.0917 38.3288C71.0776 38.284 71.0569 38.2416 71.0302 38.2029C70.9877 38.1486 70.9372 38.1011 70.8803 38.0621C70.7791 37.9848 70.673 37.9142 70.5626 37.8507L54.6056 50.8777L54.6131 50.8717ZM94.6022 58.7446L94.8915 58.7355L95.2527 58.6741C95.7623 58.5617 95.9421 58.3534 96.3602 57.9547C96.5701 57.7539 96.7859 57.5456 97.0107 57.3267L97.6102 56.7437C98.3975 55.9954 99.2053 55.22 100.034 54.4177C100.845 53.6324 101.66 52.8331 102.478 52.0197C103.266 51.2424 104.081 50.4616 104.921 49.6772C105.71 48.9399 106.544 48.1845 107.422 47.4112C108.301 46.6378 109.158 45.9169 109.994 45.2485C110.902 44.5201 111.799 43.8342 112.683 43.1907C113.567 42.5473 114.506 41.9218 115.499 41.3143L115.689 41.1989C115.641 41.3982 115.595 41.5901 115.551 41.7759C115.238 43.0858 114.976 44.4577 114.766 45.8914C114.587 46.8245 114.725 47.7908 115.16 48.6356C115.583 49.4349 116.27 50.0844 117.221 50.584C118.1 51.0944 119.091 51.3806 120.106 51.4173C121.096 51.4357 122.074 51.2081 122.954 50.7548C122.988 50.7398 123.021 50.7248 123.056 50.7069C123.495 50.4703 123.918 50.2049 124.322 49.9125C124.751 49.6128 125.199 49.2516 125.671 48.8514L125.93 48.6266V48.6446C125.981 48.9444 126.04 49.2246 126.106 49.4854C126.169 49.7357 126.255 50.0114 126.357 50.3112C126.461 50.6142 126.592 50.9076 126.747 51.1879C126.892 51.4477 127.062 51.6931 127.254 51.9208L127.284 51.9568C127.58 52.3023 127.908 52.6194 128.264 52.904C128.614 53.1856 128.992 53.4316 129.391 53.6384C130.117 54.0204 130.9 54.2836 131.709 54.4177C132.117 54.4844 132.531 54.508 132.944 54.4882C133.359 54.4674 133.771 54.4041 134.173 54.2993C134.599 54.1908 135.009 54.0297 135.395 53.8197C135.773 53.6153 136.125 53.3662 136.444 53.0778L136.462 53.0614C136.675 52.868 136.952 52.6117 137.291 52.279C137.712 51.8714 138.071 51.5192 138.373 51.2179C138.705 50.8832 139.13 50.4471 139.645 49.9095C140.107 49.4269 140.569 48.9333 141.033 48.4288C141.447 47.9822 141.914 47.4636 142.434 46.8731C142.46 46.8461 142.487 46.8192 142.511 46.7907C142.964 46.2761 143.47 45.6896 144.029 45.0312C144.483 44.4946 144.986 43.8921 145.535 43.2237C146.085 42.5553 146.55 41.9792 146.932 41.4956C147.175 41.2242 147.305 40.8698 147.295 40.5055C147.285 40.1412 147.136 39.7945 146.878 39.5368L145.171 37.8283C145.141 37.7998 145.111 37.7713 145.078 37.7443C144.935 37.6242 144.769 37.5335 144.59 37.4774C144.412 37.4213 144.224 37.401 144.038 37.4176C143.851 37.4341 143.67 37.4872 143.504 37.5739C143.338 37.6606 143.191 37.7791 143.071 37.9227C142.644 38.4312 142.211 38.9478 141.773 39.4724L140.45 41.0685C140.066 41.5301 139.623 42.0427 139.121 42.6062C138.65 43.1358 138.2 43.6234 137.772 44.069C137.31 44.5506 136.86 44.9907 136.423 45.3893C136.123 45.6531 135.823 45.9124 135.524 46.1642C135.723 45.7495 135.909 45.3679 136.08 45.0192C136.351 44.4751 136.642 43.9161 136.946 43.3466C137.3 42.6871 137.603 42.1121 137.857 41.6216C138.1 41.1539 138.391 40.5794 138.731 39.898C139.037 39.2865 139.311 38.687 139.554 38.0995C139.802 37.494 140.024 36.8895 140.218 36.2861C140.363 35.8558 140.41 35.3986 140.357 34.9477C140.295 34.4979 140.142 34.0654 139.907 33.6768C139.874 33.6207 139.838 33.5666 139.798 33.5149C139.45 33.0629 139.035 32.6658 138.569 32.3369C138.813 32.4413 139.063 32.5304 139.318 32.6037C139.77 32.7527 140.257 32.7611 140.714 32.6277C141.331 32.4218 141.89 31.8183 142.391 30.8172C142.436 30.7288 142.506 30.5954 142.604 30.414C142.674 30.2822 142.729 30.1832 142.768 30.1143C142.849 29.9794 142.918 29.858 142.975 29.7501C143.014 29.6752 143.062 29.5778 143.115 29.4594C143.128 29.4351 143.14 29.4101 143.151 29.3844C143.191 29.293 143.227 29.2195 143.253 29.1671C143.278 29.1146 143.318 29.0397 143.369 28.9483C143.42 28.8569 143.467 28.7759 143.537 28.659L143.773 28.2814C143.793 28.2514 143.811 28.2214 143.827 28.1914C144.026 27.8347 144.2 27.495 144.348 27.1723C144.488 26.8661 144.607 26.5512 144.706 26.2296C144.816 25.8844 144.875 25.5248 144.88 25.1625C144.881 24.7835 144.806 24.408 144.661 24.0579C144.411 23.4484 143.945 22.9114 143.265 22.4468C142.962 22.2433 142.647 22.0581 142.322 21.8923C142.022 21.7424 141.661 21.57 141.255 21.3977C141.225 21.3827 141.193 21.3692 141.163 21.3572C140.631 21.1331 140.059 21.0209 139.482 21.0275C138.885 21.0397 138.304 21.2279 137.814 21.5685C137.433 21.8317 137.093 22.1487 136.803 22.5097C136.511 22.8775 136.265 23.2803 136.072 23.7087C135.707 24.5199 135.455 25.3771 135.323 26.2566V26.3045C135.257 26.7421 135.207 27.1548 135.173 27.5425C135.139 27.9301 135.122 28.2993 135.122 28.65C135.111 29.1834 135.216 29.7128 135.431 30.2012C135.665 30.7327 136.075 31.1675 136.592 31.4332C136.67 31.4751 136.75 31.5156 136.827 31.5546C136.568 31.4959 136.304 31.4563 136.039 31.4362C135.311 31.3703 134.577 31.4778 133.899 31.7501C133.22 32.0223 132.616 32.4514 132.135 33.0024L132.099 33.0443C131.79 33.413 131.464 33.8491 131.117 34.3482L131.06 34.4246C130.708 34.9392 130.34 35.5137 129.959 36.1482C129.559 36.8206 129.193 37.4661 128.86 38.0845C128.799 38.2014 128.736 38.3198 128.673 38.4412C128.56 38.5282 128.445 38.6181 128.328 38.7125C127.907 39.0532 127.466 39.4359 127.008 39.8605C126.608 40.2337 126.161 40.6459 125.671 41.0925C125.025 41.68 124.55 42.1116 124.256 42.3754C123.763 42.816 123.289 43.2297 122.834 43.6119C122.585 43.8217 122.307 44.05 122.001 44.2968L122.086 44.048C122.238 43.6164 122.391 43.1867 122.546 42.7591C122.72 42.2925 122.856 41.8123 122.951 41.3233C123.046 40.8535 123.096 40.3758 123.101 39.8965C123.101 39.3805 123.022 38.8675 122.867 38.3753C122.709 37.8796 122.481 37.4089 122.191 36.977C121.852 36.4866 121.445 36.0475 120.981 35.6731C120.466 35.2487 119.915 34.871 119.333 34.5445L119.262 34.5056C118.892 34.3175 118.5 34.1761 118.095 34.0844C117.695 33.993 117.284 33.9612 116.875 33.99C116.537 34.0148 116.201 34.0649 115.871 34.1399C115.565 34.2104 115.265 34.301 114.971 34.4111C114.934 34.4219 114.897 34.4349 114.861 34.4501C114.232 34.7019 113.572 35.0016 112.879 35.3494C112.187 35.6971 111.501 36.0703 110.823 36.4689C110.164 36.8586 109.479 37.2837 108.77 37.7443C108.125 38.162 107.447 38.6226 106.734 39.1262C106.022 39.6297 105.358 40.1123 104.743 40.5739C104.101 41.0535 103.452 41.5531 102.794 42.0727C102.383 42.3984 101.979 42.7206 101.585 43.0393C101.977 42.277 102.383 41.5001 102.8 40.7088C103.747 38.9173 104.738 37.0974 105.771 35.249C106.804 33.4005 107.898 31.5521 109.053 29.7036C110.184 27.8922 111.373 26.0907 112.618 24.2992C113.882 22.4907 115.157 20.7872 116.442 19.1885C117.727 17.5899 119.093 15.9997 120.542 14.4181C121.884 12.9562 123.315 11.5792 124.827 10.2951C126.233 9.10138 127.722 8.00811 129.281 7.02335L129.731 6.76857C129.95 6.64717 130.167 6.52877 130.375 6.41637C130.879 6.16663 131.276 5.74429 131.493 5.22638C131.603 4.9526 131.654 4.65881 131.642 4.36416C131.63 4.06951 131.557 3.78061 131.426 3.51632C131.369 3.39082 131.294 3.27421 131.204 3.17011C130.599 2.45031 129.919 1.79716 129.175 1.22176C128.541 0.720273 127.813 0.349445 127.035 0.130692C126.223 -0.0602424 125.375 -0.0416789 124.572 0.184644C123.675 0.432756 122.818 0.805585 122.025 1.29221C121.966 1.32704 121.91 1.36558 121.857 1.4076C120.465 2.53065 119.116 3.69667 117.81 4.90565C116.535 6.08964 115.273 7.34808 114.024 8.68095C111.58 11.2912 109.269 14.0234 107.1 16.867C105.993 18.3188 104.928 19.7785 103.906 21.2463C102.866 22.737 101.854 24.2578 100.87 25.8084C99.9307 27.2852 98.973 28.8524 97.9969 30.51C97.0677 32.0866 96.1659 33.6783 95.2916 35.2849L95.2812 35.3014C94.6577 36.4205 94.0852 37.5035 93.5636 38.5506L87.3874 42.8685C87.3094 42.5358 87.2405 42.2085 87.1805 41.8868C87.0155 41.0345 86.9109 40.1716 86.8673 39.3045C86.8288 38.5648 86.8609 37.823 86.9632 37.0894C87.0473 36.4728 87.2063 35.8689 87.4368 35.2909C87.6349 34.7939 87.9068 34.3296 88.2431 33.9136C88.5798 33.5057 88.9771 33.1519 89.4211 32.8645C90.3433 32.265 91.5653 31.9263 93.087 31.8483H93.5561C93.7655 31.8481 93.9738 31.8189 94.1751 31.7614C94.3883 31.6997 94.5906 31.6052 94.7746 31.4811C95.0673 31.2851 95.2768 30.9874 95.3624 30.6456C95.448 30.3039 95.4035 29.9425 95.2377 29.6317C95.0437 29.2665 94.8233 28.9158 94.5783 28.5826C94.3336 28.2499 94.0646 27.9358 93.7734 27.6429C93.4849 27.3563 93.1775 27.0894 92.8532 26.8441C92.5296 26.6003 92.189 26.3799 91.8341 26.1846C91.1099 25.7844 90.3244 25.5069 89.5096 25.3633C89.0974 25.2853 88.679 25.2452 88.2596 25.2434C87.8615 25.2444 87.4643 25.2806 87.0726 25.3513L86.9812 25.3678C86.2261 25.5281 85.4897 25.7667 84.7841 26.0797C84.0856 26.3906 83.4228 26.776 82.8072 27.2292C82.2084 27.6708 81.6502 28.1648 81.1392 28.7055C80.6322 29.2402 80.1751 29.8201 79.7738 30.438C79.3701 31.0611 79.0282 31.7222 78.7532 32.4118C78.4788 33.1022 78.2715 33.8174 78.1342 34.5475C77.8602 36.0213 77.8985 37.5362 78.2466 38.9943L78.2556 39.0527C78.299 39.267 78.3545 39.5023 78.422 39.7496C78.2221 40.0144 77.9993 40.2962 77.7535 40.5949C77.3668 41.0725 76.9672 41.5396 76.5545 41.9962C76.1419 42.4529 75.6868 42.9364 75.1892 43.447C74.7126 43.9346 74.213 44.4057 73.6904 44.8603C73.1679 45.3149 72.6139 45.7645 72.0284 46.2092C71.6597 46.4864 71.279 46.7442 70.9058 46.987C71.0633 46.2538 71.287 45.5365 71.5742 44.8438C71.7886 44.3283 72.1168 43.5294 72.5649 42.4369C73.0745 41.1929 73.4207 40.3386 73.5915 39.9235C73.7496 39.5432 73.8584 39.1443 73.9153 38.7365C73.9729 38.3119 73.9381 37.8799 73.8134 37.4701C73.7066 37.1352 73.5473 36.8195 73.3412 36.5349C73.1386 36.2504 72.8946 35.9978 72.6174 35.7855C72.4021 35.6222 72.1752 35.475 71.9384 35.3449C71.9115 35.3284 71.8845 35.3119 71.856 35.2969C71.5797 35.1504 71.2938 35.0227 71.0002 34.9147C70.7854 34.8338 70.5616 34.7454 70.3288 34.6495C70.1535 34.576 69.9376 34.4816 69.6873 34.3677C69.4 34.2381 69.0777 34.2077 68.7711 34.2812C68.4646 34.3548 68.1911 34.528 67.9938 34.7738C67.5771 35.2904 67.099 35.8634 66.5595 36.4929C66.0649 37.0694 65.4604 37.7583 64.746 38.5596C64.0686 39.32 63.3842 40.0524 62.6928 40.7568C61.9414 41.5241 61.192 42.256 60.4447 42.9524C59.6973 43.6488 58.9115 44.3372 58.0872 45.0177C57.3008 45.6631 56.4885 46.2851 55.6502 46.8836C54.9237 47.4086 54.1615 47.8824 53.3692 48.3014C53.509 47.7339 53.6729 47.1664 53.8608 46.5988C54.1085 45.8535 54.3918 45.0921 54.7105 44.3148C55.0103 43.5844 55.355 42.8195 55.7447 42.0202C56.1343 41.2209 56.527 40.464 56.9226 39.7496C57.3023 39.0652 57.7305 38.3413 58.2071 37.578C58.6837 36.8146 59.1223 36.1387 59.5229 35.5502C59.9226 34.9507 60.3253 34.3842 60.7309 33.8506C60.7784 33.7956 60.8215 33.737 60.8598 33.6753C60.9737 33.4924 61.0816 33.3096 61.1805 33.1282C61.266 32.9784 61.3589 32.788 61.4563 32.5797C61.6356 32.2016 61.7106 31.7825 61.6736 31.3657C61.6414 31.0383 61.5542 30.7186 61.4158 30.42C61.3833 30.3306 61.3416 30.2447 61.2915 30.1637C60.8999 29.5096 60.3793 28.942 59.7613 28.4957C59.1477 28.0625 58.4406 27.7801 57.6975 27.6714C56.9472 27.5579 56.1805 27.6299 55.4644 27.8812C54.7657 28.129 54.124 28.5148 53.5775 29.0157C53.5373 29.0487 53.4987 29.0837 53.4621 29.1206C53.0689 29.5196 52.6963 29.9383 52.3455 30.3751C51.9589 30.8507 51.5677 31.3692 51.172 31.9308C50.3329 33.1325 49.5618 34.3804 48.8625 35.6686C48.4958 36.34 48.1461 37.0339 47.8134 37.7503C47.4667 38.4927 47.1514 39.2246 46.8677 39.946C46.5679 40.6953 46.3176 41.4447 46.0958 42.1941C45.8842 42.924 45.7101 43.6644 45.5743 44.4122C45.4438 45.1325 45.3652 45.8613 45.339 46.5928C45.3152 47.2849 45.3498 47.9778 45.4424 48.6641C45.6104 50.0566 46.2009 51.3642 47.1345 52.4109C47.2962 52.5991 47.4776 52.7694 47.6755 52.919C47.885 53.0804 48.1111 53.219 48.3499 53.3326C48.445 53.3765 48.5371 53.4266 48.6257 53.4825C48.6946 53.526 48.7561 53.5679 48.81 53.6099C48.8605 53.656 48.9141 53.6985 48.9704 53.7373C49.8696 54.374 50.9161 54.7711 52.0113 54.8913C53.1049 54.9904 54.2056 54.8072 55.2081 54.3593L55.2651 54.3338C56.4269 53.7693 57.5381 53.1059 58.5862 52.351C59.1278 51.9673 59.6658 51.5676 60.2004 51.152C60.7579 50.7203 61.2865 50.2952 61.786 49.8766C62.3196 49.4269 62.8287 48.9858 63.3132 48.5532C63.7279 48.1815 64.1156 47.8258 64.4763 47.4861C64.4763 47.6689 64.4868 47.8473 64.5017 48.0211C64.5366 48.461 64.6293 48.8944 64.7775 49.31C64.9251 49.7048 65.1236 50.0787 65.368 50.4221C65.612 50.7655 65.8957 51.079 66.2133 51.3558C66.5486 51.6448 66.9048 51.9088 67.2789 52.1456C67.6316 52.3714 68.0512 52.6127 68.5378 52.8695C68.5573 52.883 68.5768 52.8935 68.5978 52.9055C69.1055 53.1947 69.6607 53.3911 70.2374 53.4855C70.7046 53.5589 71.1817 53.5401 71.6417 53.43C71.1031 53.8927 70.6111 54.3478 70.1654 54.7954C69.6542 55.3076 69.1771 55.8528 68.7372 56.4275C68.3013 56.9969 67.9009 57.5925 67.5382 58.211L67.5172 58.244C67.1249 58.8925 66.7856 59.5716 66.5025 60.2747C66.3632 60.6209 66.2421 60.974 66.1398 61.3328C66.0404 61.6834 65.9603 62.0391 65.9 62.3985C65.8395 62.7632 65.8059 63.1319 65.7996 63.5015C65.792 63.8609 65.8135 64.2202 65.8641 64.5761C65.9229 64.9762 66.0374 65.3662 66.2043 65.7346C66.3703 66.1053 66.5844 66.4525 66.8413 66.7672C66.8768 66.8109 66.9148 66.8524 66.9552 66.8916C67.5638 67.4828 68.2289 68.0129 68.941 68.4743C69.6249 68.9142 70.3564 69.2752 71.1216 69.5504C71.9335 69.8438 72.7897 69.9959 73.653 70C74.5531 70.0003 75.4487 69.8731 76.3132 69.6223H76.3252C80.6216 68.3634 84.1216 66.0653 86.8253 62.7282C86.8493 62.6997 86.8718 62.6712 86.8943 62.6413C87.3936 61.9665 87.8574 61.2662 88.2836 60.543C88.6576 59.913 88.9847 59.2562 89.2623 58.5782C89.492 58.0055 89.6798 57.417 89.8243 56.8172L90.0071 56.9371C90.3418 57.1499 90.7035 57.3657 91.0922 57.5845C91.4669 57.7928 91.8416 57.9847 92.2283 58.16C92.6149 58.3354 93.1065 58.4793 93.4512 58.6097C93.4737 58.6187 94.5813 58.7685 94.6037 58.7775L94.6022 58.7446ZM57.3018 49.2111L54.6131 50.8717C55.5474 50.3823 56.4459 49.8274 57.3018 49.2111ZM59.8946 47.2208L57.3018 49.2111C58.1711 48.5896 59.0354 47.9262 59.8946 47.2208ZM62.3855 45.0341L59.8946 47.2148C60.7259 46.5334 61.5562 45.8045 62.3855 45.0282V45.0341ZM64.7176 42.7606C64.0062 43.488 63.2288 44.2458 62.3855 45.0341L64.7176 42.7606ZM66.8697 40.4705C66.2073 41.2139 65.4899 41.9797 64.7176 42.7681L66.8697 40.4705ZM68.7162 38.3603C68.1167 39.0597 67.5012 39.7631 66.8697 40.4705L68.7162 38.3603ZM69.5225 37.4071C69.2687 37.7069 68.9999 38.0246 68.7162 38.3603L69.5225 37.4071ZM70.0051 37.593C69.8372 37.53 69.6754 37.4671 69.5225 37.4071L70.0051 37.593ZM70.5056 37.8193L70.0051 37.593C70.1769 37.657 70.3441 37.7326 70.5056 37.8193ZM71.7481 49.8091C72.4347 49.4075 73.0973 48.9661 73.7324 48.4872C74.3739 48.0056 74.9834 47.5136 75.5609 47.011C76.0974 46.5414 76.607 46.0648 77.0896 45.5812C76.8183 45.8884 76.5246 46.2137 76.2038 46.5569C75.7902 47.0065 75.378 47.4246 74.9674 47.8248C74.5567 48.2249 74.1521 48.5996 73.7774 48.9219C73.4012 49.2471 73.052 49.5213 72.7283 49.7551C72.451 49.9532 72.1612 50.133 71.8605 50.2932C71.6028 50.4293 71.3347 50.5445 71.0587 50.6379C70.9286 50.6778 70.7907 50.6856 70.657 50.6604C70.5381 50.6413 70.4216 50.6096 70.3093 50.566C70.7849 50.3422 71.2635 50.0924 71.7451 49.8166L71.7481 49.8091ZM80.8694 37.6184C80.7489 36.7758 80.7676 35.9191 80.9248 35.0826C81.0257 34.5311 81.1808 33.9909 81.3879 33.47C81.5929 32.9553 81.8484 32.4623 82.1508 31.9982C82.4589 31.5228 82.81 31.0768 83.1999 30.6658C83.5951 30.2515 84.0264 29.8734 84.4888 29.5358C84.9411 29.2018 85.428 28.9174 85.9411 28.6875C86.4644 28.4569 87.0104 28.2816 87.5702 28.1644H87.5807C87.8045 28.1264 88.0311 28.1078 88.2581 28.109C88.5093 28.1076 88.7601 28.1287 89.0075 28.1719C89.2624 28.2194 89.513 28.2876 89.7569 28.3758C89.9997 28.461 90.2349 28.5668 90.4597 28.692C90.6944 28.8222 90.9197 28.9684 91.1342 29.1296L91.2376 29.2106C90.0417 29.4087 88.8973 29.8433 87.8714 30.489C87.1832 30.9331 86.5679 31.4811 86.0475 32.1136C85.5247 32.7501 85.1022 33.4627 84.7945 34.2268C84.479 35.0175 84.2596 35.8432 84.1411 36.6862C84.0156 37.5937 83.9765 38.511 84.0242 39.4259C84.0735 40.4272 84.1926 41.4238 84.3809 42.4084C84.5887 43.488 84.8564 44.5553 85.1827 45.6052C85.253 45.835 85.3805 46.0431 85.5532 46.2101C85.726 46.3771 85.9383 46.4975 86.1704 46.5599C86.0847 46.813 86.0717 47.0851 86.1329 47.3452C86.3637 48.3209 86.5316 49.0418 86.6365 49.5169C86.7489 50.0264 86.8823 50.6709 87.0367 51.4412C87.1451 51.9757 87.2216 52.5163 87.2659 53.0599C87.3076 53.5714 87.3151 54.0851 87.2884 54.5976C87.2276 55.5928 87.0043 56.5714 86.6275 57.4946C86.4034 58.0418 86.1394 58.5718 85.8377 59.0803C85.4636 59.7107 85.0574 60.3215 84.6207 60.9102C82.2917 63.7908 79.2687 65.7766 75.5519 66.8677C74.9411 67.0481 74.3079 67.1415 73.671 67.1449C73.1312 67.1435 72.5956 67.0508 72.0868 66.8707C71.5249 66.6655 70.9879 66.3975 70.4862 66.0718C70.3902 66.0104 70.2943 65.946 70.1999 65.88H70.2719H70.3498C71.2656 65.7873 72.1672 65.586 73.0355 65.2805C73.9427 64.9601 74.8142 64.5462 75.6358 64.0456C76.4694 63.5403 77.2622 62.9705 78.0068 62.3415C78.754 61.7091 79.451 61.0196 80.0915 60.2793C80.7308 59.5457 81.3106 58.7624 81.8256 57.9367C82.3306 57.1259 82.8147 56.3661 83.1834 55.4713C83.5332 54.5689 83.7796 53.6297 83.9178 52.6717C84.0642 51.786 84.0909 50.8847 83.9972 49.992C83.9718 49.7514 83.8856 49.5213 83.7466 49.3233C83.6076 49.1253 83.4205 48.966 83.2029 48.8604L83.4397 48.7016C83.7092 48.5195 83.9084 48.2509 84.0043 47.9402C84.1003 47.6294 84.0872 47.2953 83.9673 46.993C83.4787 45.6092 83.066 44.4601 82.7293 43.5459L82.5794 43.1263C82.7113 42.9264 82.8357 42.7366 82.9526 42.5568C83.2633 42.0742 83.5371 41.6171 83.7739 41.1854C83.9417 40.8798 83.9913 40.5231 83.9134 40.1833C83.8355 39.8434 83.6354 39.544 83.3513 39.342C83.2224 39.2491 83.0875 39.1486 82.9466 39.0422C82.7817 38.9148 82.6289 38.7919 82.485 38.6735C82.1133 38.3738 81.8376 38.1415 81.6592 37.9916C81.6009 37.9367 81.5383 37.8865 81.4719 37.8417C81.2944 37.7259 81.093 37.6516 80.8829 37.6244L80.8694 37.6184ZM80.5426 45.8735C80.6645 46.2092 80.7914 46.5639 80.9233 46.9375C80.3973 47.2912 79.9222 47.6075 79.5025 47.8862C78.8771 48.2999 78.3135 48.6706 77.812 48.9983C77.9738 48.8304 78.1327 48.6641 78.2886 48.4962C78.6812 48.0756 79.1084 47.594 79.57 47.0515C79.9147 46.6448 80.2389 46.2521 80.5426 45.8735ZM50.1394 51.0785L50.2053 51.122C50.1281 50.9212 50.0978 50.7053 50.1169 50.491C50.1885 49.7083 50.3096 48.9309 50.4796 48.1635C50.665 47.3363 50.8936 46.5194 51.1645 45.7161C51.4453 44.8758 51.7515 44.0515 52.0832 43.2432C52.4339 42.3889 52.8007 41.5686 53.1833 40.7822C53.566 39.9959 53.9811 39.1966 54.4288 38.3843C54.8954 37.544 55.345 36.7747 55.7776 36.0763C56.2103 35.3778 56.6714 34.6719 57.1609 33.9585C57.5996 33.3131 58.0272 32.7136 58.4439 32.1601C58.5278 32.0252 58.6042 31.8948 58.6732 31.7674C58.7151 31.691 58.7526 31.6175 58.7841 31.5621C58.6076 31.28 58.3799 31.0335 58.1127 30.8352C57.86 30.6588 57.5694 30.5443 57.2644 30.501C56.9663 30.4535 56.6612 30.4797 56.3756 30.5774C56.0393 30.702 55.7307 30.8915 55.4674 31.1349C55.1407 31.4631 54.8311 31.8077 54.5397 32.1675C54.2159 32.5672 53.8662 33.0338 53.4906 33.5674C52.7123 34.6793 51.9973 35.8341 51.3489 37.0264C51.0042 37.6559 50.6789 38.2979 50.3732 38.9523C50.0795 39.5818 49.7902 40.2577 49.5054 40.9801C49.2297 41.6795 48.9989 42.3499 48.813 42.9914C48.6293 43.626 48.4793 44.2698 48.3634 44.9202C48.2572 45.5044 48.1931 46.0954 48.1716 46.6888C48.1535 47.2241 48.1805 47.7601 48.2525 48.2909C48.3478 49.1161 48.6935 49.8922 49.2432 50.515L49.2791 50.557C49.3118 50.5957 49.3485 50.6309 49.3885 50.6619C49.4395 50.6969 49.4937 50.727 49.5504 50.7518C49.7569 50.8451 49.9572 50.9518 50.1499 51.071L50.1394 51.0785ZM97.5907 41.4417C97.8528 41.2139 98.0224 40.8979 98.0674 40.5536C98.1124 40.2092 98.0297 39.8603 97.835 39.5728L96.9358 38.2419C97.2175 37.7034 97.5008 37.1793 97.7855 36.6697L97.808 36.6278C98.6713 35.0441 99.558 33.4795 100.468 31.9338C101.341 30.452 102.283 28.9148 103.296 27.3222C104.262 25.8024 105.251 24.3147 106.265 22.8589C107.296 21.3792 108.336 19.9529 109.383 18.5801C111.491 15.8103 113.739 13.1491 116.117 10.6068C117.267 9.37885 118.484 8.16838 119.769 6.97539C121.001 5.83236 122.267 4.73329 123.568 3.67818C124.104 3.35203 124.682 3.09996 125.286 2.92882C125.629 2.824 125.993 2.80547 126.345 2.87487C126.76 2.99978 127.146 3.20332 127.483 3.47436C127.798 3.71483 128.095 3.9778 128.372 4.26119L127.853 4.55344L127.798 4.58642C126.116 5.64766 124.511 6.82556 122.994 8.11143C121.391 9.4716 119.875 10.9302 118.453 12.4787C117.026 14.0274 115.618 15.6695 114.23 17.4051C112.841 19.1406 111.525 20.9021 110.282 22.6896C109.027 24.4951 107.812 26.3375 106.637 28.2169C105.489 30.0533 104.373 31.9408 103.289 33.8791C102.205 35.8175 101.206 37.6559 100.291 39.3944C99.3552 41.1679 98.476 42.8865 97.6536 44.5501C97.6417 44.5755 97.6297 44.5995 97.6207 44.6235C97.3779 45.0887 97.1773 45.5748 97.0212 46.0758C96.8094 46.8241 96.8653 47.4396 97.189 47.9222C97.2384 47.9967 97.2946 48.0665 97.3569 48.1305C97.7945 48.5991 98.3441 48.7455 99.0055 48.5697C99.3127 48.479 99.6031 48.3393 99.8658 48.156C100.277 47.8671 100.667 47.5485 101.032 47.2028C102.174 46.2257 103.345 45.2625 104.545 44.3133C105.152 43.8337 105.781 43.3506 106.43 42.864C107.099 42.3644 107.74 41.8968 108.355 41.4612C108.969 41.0256 109.619 40.5869 110.303 40.1453C110.924 39.7456 111.574 39.343 112.251 38.9373C112.929 38.5317 113.555 38.188 114.129 37.9062C114.717 37.6124 115.306 37.3472 115.898 37.1104L115.949 37.0894C116.122 37.0284 116.299 36.9783 116.479 36.9395C116.67 36.8957 116.864 36.8662 117.059 36.8511C117.192 36.8405 117.325 36.8496 117.455 36.8781C117.533 36.8954 117.609 36.9179 117.684 36.9455C117.523 36.9685 117.367 37.0192 117.223 37.0954C116.131 37.6519 115.057 38.2514 114.002 38.8939C112.984 39.5153 111.982 40.1853 110.997 40.9037C110.012 41.622 109.078 42.3339 108.196 43.0393C107.258 43.7917 106.367 44.5411 105.525 45.2874C104.683 46.0338 103.832 46.8037 102.974 47.597C102.147 48.3693 101.314 49.1687 100.476 49.995C99.6694 50.7943 98.8586 51.5876 98.0433 52.3749C97.255 53.1393 96.4457 53.9156 95.6154 54.704L95.5899 54.7294L95.0264 55.2915C94.845 55.4683 94.6352 55.6707 94.3984 55.891L94.3579 55.9329C94.3555 55.9284 94.3521 55.9244 94.3479 55.9213C94.3438 55.9182 94.339 55.916 94.334 55.9149L94.2635 55.891C93.9638 55.7841 93.6785 55.6691 93.4078 55.5462C93.1 55.4054 92.7883 55.2465 92.4725 55.0697C92.1728 54.9018 91.8611 54.7159 91.5448 54.5121C91.2975 54.3622 91.0607 54.1944 90.8314 54.0295V53.9351C90.8314 53.6534 90.8434 53.3926 90.8659 53.1543C90.8929 52.8755 90.9333 52.5878 90.9873 52.2955C91.0413 52.0033 91.1057 51.696 91.1776 51.4203C91.2376 51.1865 91.3195 50.9187 91.4234 50.6169C91.6048 50.0924 91.6527 49.95 91.6722 49.8945C91.7202 49.7612 91.7681 49.6338 91.8221 49.5184C92.4216 48.1066 92.8892 47.0185 93.2234 46.2436C93.4672 45.6801 93.7595 45.0087 94.1002 44.2293C94.5198 43.9416 94.9344 43.6418 95.3441 43.3301C96.0955 42.7576 96.8448 42.1281 97.5922 41.4417H97.5907ZM89.7359 47.1369L89.2593 48.2519L89.1094 47.594L89.7344 47.1444L89.7359 47.1369ZM68.6787 64.1505C68.6481 63.9461 68.634 63.7396 68.6367 63.533C68.6426 63.3053 68.6651 63.0784 68.7042 62.8541C68.7471 62.5957 68.8046 62.34 68.8765 62.0882C68.932 61.8919 68.9964 61.697 69.0684 61.5037C69.0459 61.5876 69.0264 61.6701 69.0069 61.7525C68.8034 62.6577 68.7252 63.5866 68.7746 64.5132C68.7291 64.3963 68.6969 64.2746 68.6787 64.1505ZM71.7196 62.6937C71.7376 62.5918 71.7586 62.4884 71.7826 62.394C71.9216 61.7817 72.1515 61.1937 72.4645 60.6494C72.8198 60.0348 73.2206 59.4477 73.6635 58.8929C74.1242 58.3121 74.625 57.7642 75.1622 57.2533C75.7257 56.7178 76.3292 56.1947 76.9727 55.6841C77.6161 55.1736 78.2911 54.68 78.9975 54.2034C79.6689 53.7518 80.3183 53.3166 80.9458 52.898C80.8257 53.369 80.6719 53.8308 80.4857 54.2798C80.1784 55.0205 79.811 55.7348 79.3871 56.4155C78.9509 57.1154 78.4603 57.7799 77.9199 58.4028C77.3749 59.0302 76.7827 59.615 76.1484 60.1518C75.5188 60.6818 74.8488 61.1619 74.1446 61.5876C73.4923 61.9885 72.8002 62.3205 72.0793 62.5783C71.9549 62.6218 71.832 62.6622 71.7076 62.6997L71.7196 62.6937ZM133.018 41.9932L133.064 41.9513C133.339 41.6942 133.5 41.3386 133.513 40.9626C133.526 40.5866 133.388 40.2209 133.132 39.946L131.849 38.5746C132.037 38.2389 132.22 37.9207 132.4 37.6199C132.751 37.0364 133.085 36.5139 133.403 36.0523C133.421 36.0268 133.437 35.9998 133.454 35.9728C133.727 35.5802 133.992 35.2275 134.25 34.9147C134.443 34.6914 134.684 34.5151 134.956 34.3992C135.236 34.2948 135.537 34.2559 135.835 34.2853C136.157 34.3055 136.471 34.3955 136.754 34.549C137.034 34.7096 137.281 34.9205 137.484 35.171C137.503 35.2098 137.516 35.2512 137.523 35.2939C137.528 35.3316 137.525 35.3699 137.514 35.4063V35.4183C137.341 35.9539 137.146 36.4879 136.928 37.0204C136.703 37.569 136.459 38.106 136.195 38.6316C135.967 39.0812 135.679 39.6522 135.332 40.3221C134.997 40.9681 134.701 41.5346 134.443 42.0127C134.143 42.5802 133.843 43.1607 133.544 43.7542C133.22 44.4032 132.944 44.9862 132.698 45.5003C132.418 46.102 132.171 46.7184 131.957 47.3467C131.749 47.9593 131.576 48.5833 131.44 49.2156C131.384 49.4785 131.403 49.7518 131.496 50.004C131.589 50.2562 131.751 50.4769 131.964 50.6407C132.177 50.8046 132.432 50.9047 132.7 50.9297C132.967 50.9547 133.237 50.9034 133.476 50.7818C134.044 50.5389 134.594 50.2591 135.125 49.944C135.671 49.6186 136.198 49.2608 136.702 48.8724L136.373 49.2036C135.882 49.6952 135.534 50.0384 135.336 50.2318C135.054 50.503 134.798 50.7458 134.563 50.9586L134.545 50.9751C134.397 51.1111 134.233 51.2293 134.058 51.3273C133.88 51.4245 133.691 51.4991 133.494 51.5491C133.065 51.6609 132.617 51.6828 132.178 51.6136C131.662 51.527 131.163 51.3574 130.701 51.1115C130.468 50.9932 130.247 50.8516 130.043 50.6889C129.828 50.5152 129.63 50.3215 129.452 50.1103L129.416 50.0699C129.345 49.9865 129.282 49.8961 129.229 49.8001C129.154 49.6665 129.091 49.5266 129.04 49.382C128.982 49.2141 128.923 49.0163 128.866 48.7825C128.809 48.5487 128.77 48.3778 128.74 48.198C128.675 47.7438 128.663 47.2835 128.706 46.8266C128.73 46.535 128.77 46.2448 128.826 45.9574L129.697 45.1196L130.975 43.8801C131.366 43.498 131.742 43.1308 132.102 42.8055C132.462 42.4803 132.749 42.2061 133.012 41.9902L133.018 41.9932ZM125.104 45.5527C124.655 45.9664 124.22 46.347 123.82 46.6903C123.42 47.0335 123.032 47.3437 122.678 47.5895C122.377 47.8096 122.061 48.0098 121.734 48.189L121.683 48.2175C121.442 48.3385 121.188 48.432 120.926 48.4962C121.724 48.0675 122.481 47.5658 123.186 46.9975C123.599 46.6728 124.09 46.2701 124.659 45.7895C125.17 45.3609 125.666 44.9297 126.149 44.4961L126.272 44.3867V44.4122L126.251 44.4931C125.885 44.8378 125.506 45.1875 125.112 45.5422L125.104 45.5527ZM117.681 47.3062C117.542 47.0024 117.507 46.6608 117.582 46.3351V46.3006C117.782 44.9697 118.029 43.6793 118.323 42.4294C118.49 41.724 118.644 41.097 118.783 40.5485C118.954 39.867 119.111 39.2551 119.256 38.7125C119.323 38.46 119.319 38.194 119.244 37.9437C119.457 38.1234 119.644 38.3299 119.803 38.5581C119.945 38.7661 120.056 38.9932 120.133 39.2326C120.202 39.4503 120.236 39.6773 120.235 39.9055C120.235 40.2073 120.205 40.5084 120.148 40.8047C120.081 41.1459 119.987 41.4812 119.866 41.8074C119.718 42.215 119.561 42.6557 119.394 43.1293C119.267 43.4965 119.105 43.9746 118.91 44.5591C118.895 44.6055 118.882 44.652 118.871 44.6984L118.627 45.7955C118.45 46.5973 118.58 45.9874 118.477 46.4325C118.477 46.4505 118.477 46.4684 118.467 46.4864L118.317 47.2103C118.263 47.4647 118.279 47.729 118.365 47.9747C118.08 47.8203 117.842 47.592 117.677 47.3137L117.681 47.3062ZM138.01 27.7823C138.037 27.4585 138.08 27.1093 138.136 26.7332V26.6912C138.226 26.0666 138.402 25.4574 138.659 24.8807C138.751 24.6719 138.87 24.4756 139.011 24.2962C139.128 24.149 139.265 24.0194 139.419 23.911C139.457 23.8855 139.503 23.8719 139.549 23.8721C139.737 23.8797 139.922 23.9235 140.093 24.001L140.135 24.0175C140.447 24.1493 140.738 24.2852 141.007 24.4251C141.229 24.5371 141.443 24.6627 141.649 24.8013C141.798 24.8834 141.926 25.0001 142.021 25.1415C142.021 25.1415 142.021 25.1415 142.021 25.1655C142.019 25.2479 142.006 25.3296 141.982 25.4083C141.915 25.6128 141.836 25.813 141.745 26.0078C141.645 26.2386 141.513 26.4964 141.348 26.7811C141.285 26.8845 141.198 27.0209 141.091 27.2038C141.009 27.3401 140.941 27.463 140.879 27.571C140.816 27.6789 140.771 27.7703 140.706 27.9007C140.642 28.0311 140.589 28.1405 140.549 28.2304L140.528 28.2784L140.45 28.4282C140.405 28.5137 140.361 28.5901 140.321 28.6575C140.239 28.7969 140.161 28.9318 140.09 29.0637C140.045 29.1461 139.963 29.308 139.844 29.5448C139.807 29.6111 139.79 29.6876 139.798 29.7636C139.668 29.7111 139.516 29.6452 139.348 29.5643C139.289 29.5359 139.227 29.5119 139.164 29.4923C138.974 29.4174 138.768 29.3305 138.551 29.233C138.334 29.1356 138.167 29.0547 137.996 28.9678C137.977 28.865 137.969 28.7605 137.973 28.656C137.964 28.3923 137.977 28.1 138.004 27.7883L138.01 27.7823Z" fill="#1D1D1B"/>
<path fill-rule="evenodd" clip-rule="evenodd" d="M10.8624 50.3801C11.1062 50.7058 11.3295 51.0006 11.5323 51.2644C11.7351 51.5281 11.9589 51.8229 12.2037 52.1486C11.5133 52.5952 10.6191 53.1847 9.52099 53.9171C8.40454 54.663 7.33539 55.4774 6.3197 56.3555C5.35886 57.1662 4.5079 58.0988 3.78835 59.1297C3.1379 60.0859 2.93508 61.0106 3.17987 61.9038C6.10539 62.0267 9.18429 61.6511 12.4165 60.7768C15.6854 59.8888 18.8528 58.6628 21.8675 57.1184C24.8971 55.5779 27.7844 53.7723 30.4957 51.723C33.1785 49.6907 35.455 47.5975 37.3254 45.4433C38.1185 44.4347 38.8126 43.3521 39.3982 42.2105C38.463 41.8858 37.3454 41.7129 36.0455 41.692C34.8242 41.6681 33.6025 41.7181 32.3871 41.8418C28.6053 42.2475 24.9584 42.6441 21.4464 43.0318C17.9344 43.4195 14.4283 43.8157 10.9283 44.2203C9.82199 44.3007 8.71171 44.3107 7.60413 44.2503C6.66478 44.2022 5.73878 44.007 4.85994 43.6718C4.00179 43.3312 3.20805 42.8466 2.51292 42.239C1.68772 41.4981 0.969454 40.6462 0.378734 39.7076C-0.0204898 38.9258 -0.107811 38.0216 0.13444 37.1778C0.371053 36.3597 0.742339 35.5868 1.23302 34.8907C2.98054 32.5737 5.16519 30.409 7.78697 28.3967C10.4902 26.3348 13.346 24.4811 16.3297 22.8514C19.4119 21.1581 22.5878 19.6415 25.8422 18.3088C29.1134 16.9679 32.2637 15.8189 35.2932 14.8617C38.3226 13.9045 41.1073 13.1426 43.6471 12.5761C46.1879 12.0066 48.2712 11.6609 49.8968 11.539C51.8082 11.3761 53.3933 11.8437 54.6523 12.9418C55.3272 13.5438 55.9217 14.2304 56.4208 14.9846C56.9359 15.7154 57.3221 16.529 57.5628 17.39C57.7267 18.2024 57.4829 19.0357 56.8314 19.8899C55.2838 21.7118 53.5117 23.3303 51.5574 24.7068C49.4704 26.2067 47.3024 27.5906 45.0634 28.8523C42.8273 30.1133 40.6421 31.2213 38.5079 32.1765C36.3738 33.1312 36.1295 33.2961 34.6247 33.9061C34.2066 34.0724 33.7793 34.2145 33.3448 34.3317C33.0452 34.4142 32.7288 34.4142 32.4291 34.3317C32.0958 34.2208 31.7934 34.0328 31.5463 33.7832C31.2406 33.4984 30.8644 33.1122 30.4178 32.6246C32.4501 31.4047 32.9297 30.8352 35.0024 29.6766C37.0752 28.5181 39.1179 27.2981 41.1307 26.0182C43.1435 24.7383 45.0934 23.385 46.9848 21.9627C48.9116 20.5069 50.7161 18.8959 52.3802 17.1458C47.9723 17.7274 43.6187 18.6652 39.3622 19.9499C35.0358 21.2496 30.8159 22.8805 26.7399 24.8282C22.6902 26.7594 18.7963 29.0017 15.0933 31.5351C11.5113 33.9775 8.1363 36.7104 5.00233 39.7062C7.37594 40.0323 9.77404 40.1447 12.1678 40.0419C14.5847 39.9419 17.0237 39.7591 19.4846 39.4933C21.9455 39.2275 24.3844 38.9733 26.8014 38.7305C29.1817 38.4891 31.5727 38.3671 33.9653 38.3648C35.6055 38.3833 37.2282 38.7039 38.7522 39.3105C40.196 39.9 41.2451 41.0075 41.8996 42.6332C42.1434 43.4455 42.0624 44.2993 41.6568 45.1945C41.2286 46.1205 40.6737 46.9826 40.0082 47.7558C38.2607 49.8281 36.025 51.8703 33.3014 53.8826C30.5418 55.9178 27.6263 57.7323 24.5817 59.3095C21.5826 60.8776 18.4627 62.2032 15.2521 63.2737C12.1228 64.3088 9.2752 64.8878 6.70937 65.0107C5.87905 65.0843 5.04316 64.9589 4.27095 64.645C3.4464 64.3381 2.69018 63.8722 2.04532 63.2737C1.43814 62.7183 0.968647 62.0292 0.673998 61.2609C0.532543 60.9052 0.464898 60.5245 0.475204 60.1419C0.48551 59.7593 0.573537 59.3828 0.733932 59.0353C1.13851 58.1227 1.68368 57.2791 2.34957 56.5354C3.08829 55.6972 3.90531 54.9314 4.78951 54.2483C5.73002 53.5188 6.70696 52.8375 7.71653 52.2071C8.75165 51.5566 9.80077 50.9466 10.8639 50.3771L10.8624 50.3801ZM49.5206 51.4772C49.6712 49.9605 49.9986 48.4666 50.4963 47.0259C51.0401 45.3995 51.691 43.8109 52.4446 42.2705C53.2068 40.7028 54.0513 39.1764 54.9745 37.6978C55.8887 36.2341 56.773 34.9352 57.6273 33.8011C57.8195 33.4969 57.9927 33.1811 58.1458 32.8554C58.2882 32.5557 58.2567 32.1945 58.0544 31.7883C57.4039 30.7312 56.5402 30.1218 55.4631 29.9599C54.386 29.798 53.3798 30.1433 52.4446 30.9955C51.6607 31.8082 50.9468 32.6855 50.3105 33.6183C49.5008 34.774 48.7577 35.9749 48.0848 37.2153C47.3625 38.544 46.7238 39.9165 46.1725 41.3248C45.628 42.6838 45.2198 44.0935 44.954 45.5332C44.7131 46.7888 44.6716 48.0745 44.8311 49.343C44.9651 50.4535 45.4358 51.4964 46.18 52.3315C46.3879 52.5788 46.6485 52.7764 46.9428 52.91C47.238 53.0471 47.5145 53.2214 47.7656 53.4285C49.3103 54.4846 50.9364 54.6475 52.644 53.9171C53.7316 53.3866 54.7719 52.7644 55.7538 52.0572C56.811 51.3048 57.8476 50.502 58.8637 49.6487C59.8799 48.7954 60.855 47.9212 61.7892 47.0259C62.7244 46.1327 63.5987 45.2794 64.412 44.4661C64.1682 45.765 64.0053 46.8216 63.9234 47.6359C63.8415 48.4502 63.9029 49.1312 64.1078 49.6787C64.3238 50.2464 64.6801 50.7501 65.1434 51.143C65.8008 51.6791 66.5168 52.1391 67.2776 52.5143C68.0909 52.9609 68.8328 53.0728 69.5032 52.85C70.2326 52.596 70.9209 52.2365 71.546 51.7829C72.3981 51.1509 73.203 50.4577 73.9544 49.7087C74.8277 48.8554 75.6715 47.9512 76.4858 46.996C77.3001 46.0408 78.062 45.0651 78.7713 44.069C79.4026 43.1989 79.983 42.2932 80.5099 41.3563C80.2251 41.1564 79.9099 40.9121 79.5642 40.6234C79.2185 40.3346 78.9237 40.0908 78.6799 39.892C78.1132 40.7461 77.5029 41.5705 76.8515 42.3619C76.0781 43.3171 75.1939 44.3027 74.1987 45.3189C73.1655 46.3667 72.0548 47.3351 70.876 48.2159C69.7296 49.0873 68.4803 49.8142 67.1562 50.3801C67.2111 48.5914 67.5826 46.8266 68.2533 45.1675C68.9037 43.6018 69.5746 41.9652 70.2661 40.2577C70.5088 39.6492 70.5658 39.1501 70.4489 38.7589C70.3232 38.3682 70.0778 38.0269 69.7475 37.7833C69.3661 37.4992 68.9449 37.273 68.4975 37.1118C68.009 36.929 67.5414 36.7362 67.0947 36.5333C66.2415 37.5894 65.1424 38.8699 63.7975 40.3746C62.4527 41.8793 60.9894 43.373 59.4078 44.8558C57.8505 46.3153 56.1982 47.6701 54.4619 48.9113C52.7554 50.1303 51.1068 50.9836 49.5161 51.4712L49.5206 51.4772ZM94.6429 41.2333C93.2561 42.5064 91.7556 43.6497 90.1602 44.649C88.5955 45.6241 87.0408 46.7012 85.4962 47.8802C85.8618 49.4249 86.1666 50.8067 86.4104 52.0257C86.6495 53.1784 86.7417 54.3568 86.6847 55.5327C86.6165 56.685 86.3593 57.8182 85.9233 58.8869C85.4747 60.003 84.7428 61.2519 83.7276 62.6337C81.2068 65.7631 77.9345 67.9172 73.911 69.0962C72.3253 69.5449 70.882 69.5349 69.5811 69.0663C68.2087 68.5529 66.9615 67.7528 65.9227 66.7193C65.5656 66.291 65.3337 65.7723 65.2528 65.2205C65.171 64.6431 65.1811 64.0563 65.2828 63.482C65.389 62.8556 65.5629 62.2425 65.8013 61.6535C66.0564 61.02 66.3621 60.408 66.7155 59.8236C67.3897 58.6672 68.2092 57.602 69.154 56.6538C70.1344 55.6815 71.1865 54.7842 72.3013 53.9696C73.4603 53.1173 74.7303 52.2435 76.1111 51.3483C77.4919 50.453 78.9962 49.4569 80.6238 48.3598C80.1372 46.978 79.7206 45.8195 79.3738 44.8843C79.0271 43.949 78.7424 43.1567 78.5196 42.5073C78.2957 41.8568 78.1129 41.3183 77.971 40.8916C77.8337 40.4824 77.722 40.0649 77.6368 39.6417C77.3124 38.3444 77.2705 36.9925 77.5139 35.6776C77.7507 34.3961 78.2376 33.1739 78.9467 32.0806C79.6611 30.9802 80.5702 30.0193 81.6294 29.245C82.7086 28.4517 83.9462 27.9006 85.2579 27.6294C85.9126 27.5065 86.5844 27.5065 87.2392 27.6294C87.902 27.7479 88.5409 27.9742 89.1306 28.2993C89.7239 28.6278 90.2679 29.0385 90.7462 29.5193C91.232 30.0052 91.6427 30.5609 91.9647 31.1679C91.8387 31.2513 91.6901 31.2942 91.539 31.2908H91.1119C89.2814 31.3717 87.7877 31.7883 86.6307 32.5407C85.4851 33.2762 84.5996 34.353 84.0993 35.6191C83.5698 36.918 83.3465 38.4527 83.4294 40.2232C83.5123 41.9937 83.878 43.9346 84.5265 46.0458L93.6118 39.7047L94.6489 41.2289L94.6429 41.2333ZM68.1783 65.3195C68.0759 63.7462 68.4365 62.1774 69.2154 60.8068C70.0157 59.4301 71.0118 58.1771 72.1724 57.0869C73.4219 55.9092 74.768 54.8383 76.1965 53.8856C77.6803 52.8865 79.1335 51.9213 80.5563 50.9901C80.7192 52.4888 80.4654 54.054 79.795 55.6856C79.111 57.3317 78.1634 58.8554 76.9894 60.1968C75.8082 61.5638 74.4194 62.7367 72.8738 63.6724C71.3282 64.6076 69.763 65.1571 68.1783 65.321V65.3195ZM130.076 41.7894L128.307 39.8995C127.473 40.4619 126.688 41.0942 125.96 41.7894C125.086 42.6027 124.161 43.4465 123.186 44.3207C122.211 45.195 121.245 46.0078 120.289 46.7592C119.5 47.4094 118.629 47.9527 117.698 48.3748C117.821 47.8073 117.921 47.3402 117.998 46.9735C118.079 46.6078 118.16 46.2406 118.242 45.8749C118.566 44.8988 118.88 43.9945 119.186 43.1622C119.477 42.4025 119.632 41.5973 119.643 40.7837C119.64 40.0211 119.406 39.2773 118.973 38.6495C118.526 37.9791 117.733 37.3187 116.595 36.6682C116.089 36.3973 115.519 36.2708 114.946 36.3025C114.403 36.3462 113.869 36.4694 113.362 36.6682C112.034 37.2096 110.75 37.8519 109.521 38.5896C108.18 39.3809 106.849 40.2447 105.527 41.1809C104.205 42.1171 102.914 43.0793 101.654 44.0674C100.393 45.0666 99.194 46.0523 98.057 47.0244C97.0818 47.9237 96.5128 48.2489 96.35 48.0001C96.1871 47.7513 96.3699 47.1019 96.8985 46.0518C98.5241 42.7546 100.394 39.2181 102.508 35.4422C104.622 31.6664 106.929 27.9776 109.429 24.3756C111.879 20.8417 114.568 17.4801 117.478 14.3147C120.343 11.2053 123.362 8.65445 126.533 6.66213C126.818 6.50027 127.203 6.28596 127.691 6.02218C128.18 5.75841 128.321 5.40171 128.117 4.95509C126.858 3.49133 125.709 2.62755 124.67 2.36378C123.631 2.1 122.32 2.43522 120.737 3.36943C118.013 5.56563 115.445 7.94941 113.053 10.5034C110.642 13.0797 108.363 15.7764 106.225 18.583C104.07 21.4076 102.017 24.3551 100.065 27.4255C98.114 30.4959 96.2655 33.6363 94.52 36.8466C93.342 38.9598 92.2749 41.104 91.3187 43.2791C90.3625 45.4543 89.4173 47.6394 88.4831 49.8346C88.4022 50.0369 88.2598 50.4341 88.0575 51.0231C87.8471 51.6398 87.6837 52.2715 87.5689 52.913C87.4517 53.5367 87.3905 54.1697 87.386 54.8044C87.386 55.3929 87.5284 55.7685 87.8132 55.9314C88.436 56.3882 89.0867 56.8057 89.7615 57.1813C90.4243 57.5549 91.1177 57.8713 91.8343 58.127C92.0926 58.231 92.3763 58.2546 92.6483 58.1947C92.9202 58.1348 93.1677 57.9942 93.3585 57.7913C93.8051 57.3647 94.2118 56.9685 94.5785 56.6028C96.2041 55.0581 97.8302 53.483 99.4568 51.8773C101.083 50.2717 102.75 48.7165 104.457 47.2118C106.163 45.7131 107.952 44.2803 109.822 42.9134C111.733 41.526 113.752 40.2926 115.859 39.225C115.533 40.443 115.218 41.692 114.913 42.9719C114.608 44.2518 114.355 45.5832 114.152 46.966C113.908 48.3878 114.477 49.4649 115.859 50.1973C117.358 51.0515 118.861 51.092 120.37 50.3186C121.212 49.8473 122 49.2849 122.719 48.6416C123.592 47.8912 124.476 47.0884 125.371 46.2331C126.267 45.3778 127.13 44.5445 127.963 43.7332C128.796 42.9209 129.495 42.2715 130.061 41.7849L130.076 41.7894ZM143.857 41.4237C142.922 42.6037 141.946 43.7927 140.93 44.9907C139.914 46.1887 138.928 47.3067 137.973 48.3448C137.019 49.382 136.145 50.2967 135.351 51.089C134.558 51.8813 133.938 52.4808 133.492 52.8875C133.017 53.3266 132.441 53.6408 131.814 53.8017C131.198 53.9641 130.554 53.9953 129.925 53.8931C129.264 53.7821 128.625 53.5661 128.033 53.2532C127.392 52.9172 126.823 52.459 126.358 51.9043C126.059 51.5551 125.831 51.1516 125.686 50.7158C125.524 50.2494 125.402 49.7701 125.32 49.283C125.157 48.2249 125.256 47.0154 125.62 45.6546C125.999 44.2613 126.501 42.9042 127.119 41.599C127.735 40.2852 128.417 39.0032 129.162 37.7578C129.759 36.7334 130.432 35.755 131.174 34.8308C131.51 34.4406 131.934 34.1371 132.411 33.9461C132.889 33.7551 133.405 33.6822 133.917 33.7337C135.016 33.8146 135.931 34.3227 136.661 35.2579C136.799 35.473 136.887 35.716 136.918 35.9694C136.95 36.2227 136.925 36.4799 136.844 36.7222C136.464 37.8941 135.996 39.0354 135.443 40.1363C134.873 41.2733 134.284 42.4114 133.674 43.5504C133.065 44.6894 132.496 45.828 131.967 46.966C131.454 48.0569 131.065 49.2021 130.809 50.3801C131.91 49.907 132.945 49.2918 133.887 48.5502C134.916 47.7489 135.884 46.8728 136.784 45.9289C137.718 44.9537 138.633 43.9271 139.527 42.849C140.421 41.7709 141.295 40.7243 142.15 39.7091L143.857 41.4162V41.4237ZM134.52 29.5298C134.529 28.8149 134.59 28.1016 134.702 27.3956C134.812 26.6275 135.028 25.8783 135.344 25.17C135.61 24.5465 136.042 24.0083 136.594 23.6143C137.121 23.2486 137.792 23.2286 138.605 23.5543C139.244 23.8097 139.857 24.1259 140.435 24.4985C140.882 24.8043 141.177 25.1295 141.319 25.4742C141.463 25.8682 141.463 26.3001 141.319 26.6942C141.125 27.2784 140.869 27.8405 140.557 28.3713C140.353 28.6965 140.201 28.9498 140.099 29.1326C139.997 29.3154 139.906 29.4998 139.825 29.6826C139.737 29.8815 139.637 30.0747 139.525 30.2611C139.403 30.461 139.262 30.7253 139.1 31.054C138.774 31.7044 138.489 32.0701 138.245 32.151C138.002 32.232 137.494 32.0896 136.721 31.7239C136.209 31.5299 135.709 31.3062 135.223 31.054C134.754 30.8082 134.52 30.3001 134.52 29.5298Z" fill="#1D1D1B"/>
<path fill-rule="evenodd" clip-rule="evenodd" d="M155.98 43.468L163.246 33.4475V43.468H155.98ZM172.766 43.0184V25.155H161.764L149.654 41.8404V50.8118H162.831V56.8876H172.766V50.8118H177.364V43.0184H172.766ZM181.469 25.155V44.4242C181.469 56.9371 192.471 57.4361 195.878 57.4361C199.285 57.4361 210.287 56.9371 210.287 44.4242V25.155H199.286V43.9715C199.286 45.8749 198.998 49.2756 195.878 49.2756C192.758 49.2756 192.471 45.8749 192.471 43.9715V25.155H181.469Z" fill="#5ABBA4"/>
<path fill-rule="evenodd" clip-rule="evenodd" d="M27.8294 69.2746H22.2841C21.7655 69.2746 21.5062 68.9689 21.5062 68.3574V66.3986C21.5062 65.7991 21.7655 65.4993 22.2841 65.4993H27.8294V66.2487H22.4339C22.2601 66.2487 22.1732 66.3431 22.1732 66.5365V68.203C22.1732 68.4069 22.2571 68.5028 22.4234 68.5028H27.8324V69.2522L27.8294 69.2746ZM37.5486 69.2746H32.0438V68.5118H37.4572C37.6206 68.5118 37.7045 68.4144 37.706 68.212V67.7624H32.8336C32.3031 67.7624 32.0378 67.4627 32.0378 66.8422V65.4933H32.7017V66.7118C32.7017 66.9081 32.7917 67.0115 32.973 67.0115H37.7V65.4993H38.3639V68.3469C38.3639 68.9674 38.0902 69.2776 37.5426 69.2776L37.5486 69.2746ZM47.6875 65.4978H46.9816V68.5088H43.2348V65.4858H42.5754V69.2596H52.0728V65.4858H51.4179V68.5118H47.686V65.4993L47.6875 65.4978ZM56.9467 69.2596L56.2963 69.2686V65.5008H56.9632V68.3604L61.9614 65.4948H62.6254V69.2686H61.9614V66.3581L56.9497 69.2596H56.9467ZM93.6026 68.5103H98.6069V66.5619C98.6069 66.3581 98.5155 66.2622 98.3311 66.2622H93.8619C93.6896 66.2622 93.6026 66.3596 93.6026 66.5619V68.5298V68.5103ZM92.9387 66.3791C92.9387 65.7906 93.2025 65.4963 93.73 65.4963H98.478C99.0076 65.4963 99.2724 65.7961 99.2724 66.3956V68.5148H99.9273V69.2641H92.2838V68.5148H92.9327V66.3836L92.9387 66.3791ZM109.686 69.2581H110.337V65.4993H104.792C104.267 65.4993 104.003 65.8076 104.002 66.424V68.209C104.008 68.2468 104.005 68.2853 103.996 68.3221C103.986 68.3589 103.968 68.3934 103.944 68.4232C103.921 68.4531 103.891 68.4778 103.858 68.4959C103.824 68.514 103.787 68.525 103.749 68.5283H103.61V69.2776H103.873C104.413 69.2776 104.683 68.9814 104.683 68.3889V66.5679C104.683 66.3581 104.768 66.2517 104.941 66.2517H109.693V69.2776L109.686 69.2581ZM114.546 69.2581H115.348L116.144 68.0487H120.222V69.2581H120.872V65.4993H115.337C114.816 65.4993 114.555 65.7961 114.555 66.3896V67.1614C114.555 67.7609 114.82 68.0606 115.351 68.0606L114.546 69.2701V69.2581ZM115.493 66.2382H120.21V67.2873H115.468C115.288 67.2873 115.198 67.1839 115.199 66.9576V66.538C115.199 66.3356 115.297 66.2382 115.487 66.2382H115.493ZM136.576 69.2581H135.787V66.2502H132.49V65.4993H139.87V66.2487H136.576V69.2716V69.2581ZM150.406 69.2581H144.081V65.4993H150.406V66.2487H144.745V67.0085H150.406V67.7579H144.745V68.5073H150.406V69.2566V69.2581ZM160.945 68.3319C160.945 68.9494 160.676 69.2581 160.139 69.2581H154.619V65.4993H160.945V66.2487H155.28V67.0085H160.136C160.674 67.0085 160.943 67.3083 160.942 67.9078V68.3574L160.945 68.3319ZM155.283 68.5043H160.02C160.202 68.5043 160.292 68.4009 160.292 68.197V68.0472C160.292 67.8523 160.2 67.7474 160.017 67.7474H155.28V68.4968L155.283 68.5043ZM165.157 69.2537H165.958L166.753 68.0442H170.832V69.2537H171.483V65.4993H165.948C165.425 65.4993 165.164 65.7961 165.164 66.3896V67.1614C165.164 67.7609 165.43 68.0606 165.961 68.0606L165.157 69.2701V69.2537ZM166.102 66.2337H170.823V67.2828H166.081C165.9 67.2828 165.811 67.1794 165.813 66.9531V66.5335C165.817 66.3566 165.921 66.2487 166.102 66.2487V66.2337Z" fill="white"/>
<path fill-rule="evenodd" clip-rule="evenodd" d="M12.8795 49.5153C13.1243 49.8411 13.3481 50.1358 13.551 50.3996C13.7538 50.6634 13.9771 50.9581 14.2209 51.2839C13.5305 51.7305 12.6362 52.32 11.5382 53.0523C10.4221 53.7987 9.35295 54.6131 8.33689 55.4908C7.3765 56.3015 6.52603 57.2341 5.80703 58.2649C5.15658 59.2211 4.95324 60.1463 5.19704 61.0406C8.12456 61.1615 11.2035 60.7853 14.4337 59.912C17.7029 59.0238 20.8709 57.7978 23.8862 56.2537C26.9154 54.7133 29.8022 52.9078 32.5129 50.8582C35.1976 48.8259 37.4742 46.7327 39.3426 44.5785C40.1367 43.5707 40.8308 42.488 41.4154 41.3458C40.4812 41.021 39.3636 40.8487 38.0627 40.8287C36.8413 40.8041 35.6196 40.8542 34.4043 40.9786C30.6225 41.3862 26.9756 41.7829 23.4636 42.1686C19.9515 42.5542 16.4455 42.9504 12.9455 43.3571C11.8392 43.4374 10.7289 43.4474 9.62129 43.387C8.68245 43.3387 7.75698 43.1435 6.87861 42.8085C6.01998 42.468 5.22576 41.9834 4.53011 41.3758C3.7049 40.6349 2.98664 39.783 2.39592 38.8444C1.99572 38.0628 1.90889 37.158 2.15313 36.3145C2.38857 35.4963 2.75938 34.7232 3.25019 34.0275C4.99771 31.7104 7.18236 29.5458 9.80413 27.5335C12.5073 25.4716 15.3631 23.6179 18.3469 21.9882C21.4291 20.2949 24.605 18.7782 27.8594 17.4455C31.1326 16.1047 34.2829 14.9556 37.3103 13.9984C40.3378 13.0412 43.1224 12.2794 45.6643 11.7129C48.2051 11.1434 50.2884 10.7977 51.914 10.6758C53.8254 10.5129 55.411 10.9805 56.6709 12.0786C57.345 12.681 57.9389 13.3675 58.4379 14.1213C58.9591 14.8519 59.351 15.6666 59.5965 16.5298C59.7593 17.3421 59.5155 18.1754 58.8651 19.0297C57.3175 20.8515 55.5454 22.47 53.591 23.8466C51.504 25.3464 49.3361 26.7304 47.0971 27.9921C44.861 29.253 42.6763 30.3611 40.5431 31.3163C38.4099 32.2715 36.5895 33.0533 35.0817 33.6618C34.6639 33.8294 34.2365 33.972 33.8018 34.0889C33.5025 34.17 33.1869 34.17 32.8876 34.0889C32.5537 33.9784 32.2507 33.7904 32.0033 33.5404C31.6976 33.2556 31.3214 32.8695 30.8748 32.3819C32.9071 31.1619 34.9598 29.9729 37.0331 28.8149C39.1063 27.6569 41.1491 26.4374 43.1614 25.1565C45.1747 23.8746 47.126 22.5227 49.0154 21.1009C50.9423 19.6452 52.7468 18.0341 54.4109 16.284C50.0031 16.8664 45.6496 17.8042 41.3929 19.0881C37.0665 20.3881 32.8466 22.019 28.7706 23.9665C24.7208 25.8972 20.8273 28.1401 17.1254 30.6748C13.5427 33.1163 10.1671 35.8487 7.03298 38.8444C9.40659 39.1706 11.8047 39.2829 14.1984 39.1801C16.6174 39.0802 19.0563 38.8973 21.5152 38.6316C23.9741 38.3658 26.4131 38.1115 28.832 37.8687C31.2129 37.6273 33.6044 37.5053 35.9975 37.503C37.6371 37.5224 39.2592 37.843 40.7829 38.4487C42.2257 39.0382 43.2748 40.1458 43.9302 41.7714C44.174 42.5847 44.0931 43.4385 43.6874 44.3327C43.2598 45.2591 42.7049 46.1212 42.0388 46.8941C40.2913 48.9673 38.0557 51.0101 35.332 53.0224C32.5721 55.0565 29.6566 56.8705 26.6124 58.4478C23.6132 60.0159 20.4934 61.3415 17.2828 62.4119C14.1535 63.449 11.3059 64.0281 8.74004 64.149C7.90922 64.2228 7.07277 64.0974 6.3001 63.7833C5.47572 63.476 4.71959 63.0101 4.07449 62.4119C3.46777 61.8562 2.99834 61.1671 2.70315 60.3991C2.56169 60.0435 2.49407 59.6628 2.50437 59.2802C2.51468 58.8976 2.60271 58.521 2.7631 58.1735C3.16768 57.2609 3.71284 56.4174 4.37874 55.6736C5.11747 54.8359 5.93449 54.0705 6.81868 53.3881C7.75917 52.6581 8.73608 51.9763 9.74568 51.3453C10.7808 50.6949 11.8274 50.0849 12.8855 49.5153H12.8795ZM51.5378 50.6124C51.6882 49.0962 52.0157 47.6028 52.5135 46.1627C53.0583 44.5362 53.7092 42.9471 54.4618 41.4057C55.224 39.838 56.0684 38.3117 56.9917 36.8331C57.9069 35.3693 58.7911 34.0704 59.6444 32.9364C59.8366 32.6322 60.0098 32.3163 60.163 31.9907C60.3059 31.691 60.2754 31.3353 60.0716 30.9236C59.4211 29.8665 58.5573 29.257 57.4802 29.0951C56.4032 28.9333 55.397 29.2785 54.4618 30.1308C53.6782 30.9437 52.9643 31.8211 52.3276 32.7536C51.519 33.9099 50.776 35.1108 50.102 36.3505C49.3767 37.6811 48.735 39.0556 48.1806 40.466C47.6361 41.825 47.228 43.2348 46.9622 44.6745C46.7212 45.93 46.6798 47.2157 46.8393 48.4842C46.9728 49.5948 47.4436 50.6378 48.1881 51.4727C48.3963 51.7201 48.6569 51.9182 48.951 52.0527C49.2461 52.1894 49.5226 52.3631 49.7738 52.5698C51.3185 53.6279 52.9446 53.7907 54.6521 53.0583C55.7397 52.5278 56.7801 51.9056 57.762 51.1984C58.8191 50.4461 59.8557 49.6432 60.8719 48.79C61.888 47.9367 62.8637 47.0629 63.7989 46.1687C64.7341 45.2694 65.6079 44.4157 66.4202 43.6074C66.1764 44.9063 66.014 45.9629 65.9331 46.7772C65.8522 47.5915 65.9131 48.2724 66.1159 48.8199C66.332 49.3876 66.6883 49.8914 67.1516 50.2842C67.8082 50.8213 68.5243 51.2815 69.2858 51.6555C70.0991 52.1032 70.8409 52.2151 71.5114 51.9912C72.2408 51.7373 72.929 51.3778 73.5541 50.9242C74.4059 50.2923 75.2109 49.5995 75.9626 48.8514C76.8359 47.9971 77.6796 47.0924 78.494 46.1372C79.3083 45.182 80.0701 44.2064 80.7795 43.2102C81.4108 42.3402 81.9912 41.4344 82.518 40.4975C82.2333 40.2977 81.918 40.0539 81.5723 39.7661L80.6881 39.0332C80.1214 39.8874 79.5111 40.7118 78.8596 41.5031C78.0863 42.4593 77.2021 43.445 76.2069 44.4601C75.1744 45.5087 74.0637 46.4772 72.8842 47.3572C71.7382 48.2292 70.4888 48.9561 69.1644 49.5213C69.2193 47.7327 69.5907 45.9678 70.2614 44.3088C70.9119 42.7431 71.5828 41.1065 72.2742 39.3989C72.5185 38.7904 72.574 38.2914 72.4571 37.9002C72.3319 37.5092 72.0864 37.1677 71.7557 36.9245C71.3743 36.6404 70.9531 36.4142 70.5057 36.2531C70.0171 36.0702 69.551 35.8769 69.1029 35.6746C68.2496 36.7307 67.1506 38.0111 65.8057 39.5158C64.4608 41.0205 62.9976 42.5143 61.4159 43.997C59.8583 45.4562 58.2061 46.811 56.4701 48.0526C54.7616 49.2715 53.1129 50.1248 51.5243 50.6124H51.5378ZM96.6601 40.3686C95.2735 41.6419 93.773 42.7853 92.1774 43.7842C90.6127 44.7604 89.058 45.8375 87.5133 47.0155C87.879 48.5602 88.1837 49.9425 88.4275 51.1624C88.6667 52.3147 88.7589 53.4926 88.7018 54.668C88.6337 55.8202 88.3764 56.9534 87.9404 58.0221C87.4918 59.1402 86.76 60.3891 85.7448 61.769C83.224 64.8983 79.9517 67.0525 75.9281 68.2315C74.3425 68.6801 72.8992 68.6701 71.5983 68.2015C70.2259 67.6881 68.9787 66.888 67.9399 65.8545C67.5827 65.4262 67.3509 64.9075 67.27 64.3558C67.1882 63.7783 67.1983 63.1916 67.2999 62.6173C67.4066 61.9909 67.5805 61.3779 67.8185 60.7888C68.0742 60.1555 68.3799 59.5436 68.7327 58.9588C69.4069 57.8025 70.2264 56.7372 71.1712 55.789C72.1512 54.8168 73.2033 53.92 74.3185 53.1063C75.4775 52.252 76.7479 51.3778 78.1298 50.4835C79.5116 49.5893 81.0153 48.5936 82.6409 47.4966C82.1543 46.1127 81.7377 44.9542 81.391 44.021C81.0443 43.0878 80.76 42.295 80.5382 41.6425C80.3134 40.9921 80.1301 40.4535 79.9882 40.0269C79.8515 39.6174 79.7399 39.2 79.654 38.7769C79.3303 37.4795 79.2884 36.1278 79.5311 34.8128C79.7678 33.5314 80.2547 32.3091 80.9639 31.2159C81.6784 30.115 82.5881 29.154 83.6481 28.3802C84.7265 27.5867 85.9638 27.0356 87.275 26.7646C87.9302 26.6417 88.6026 26.6417 89.2578 26.7646C89.9201 26.8834 90.5585 27.1097 91.1477 27.4346C91.7408 27.7635 92.2846 28.1742 92.7634 28.6545C93.2493 29.1407 93.6604 29.6963 93.9833 30.3031C93.8567 30.3863 93.7077 30.4292 93.5562 30.426H93.1291C91.2986 30.5069 89.8049 30.9236 88.6479 31.676C87.5029 32.4121 86.6176 33.4887 86.1165 34.7544C85.5889 36.0533 85.3656 37.5879 85.4466 39.3584C85.5275 41.1289 85.8932 43.0703 86.5436 45.1825L95.6289 38.8399L96.6661 40.3641L96.6601 40.3686ZM70.197 64.4502C70.0934 62.8771 70.4534 61.3081 71.2326 59.9375C72.0333 58.5612 73.0294 57.3082 74.1896 56.2177C75.4395 55.0403 76.7862 53.9699 78.2152 53.0179C79.6989 52.0187 81.1522 51.053 82.575 50.1208C82.7369 51.6256 82.4826 53.1907 81.8121 54.8164C81.1287 56.4628 80.181 57.9865 79.0065 59.3275C77.8261 60.6954 76.4372 61.8684 74.891 62.8031C73.3473 63.7383 71.7826 64.2878 70.197 64.4517V64.4502ZM132.086 40.9201L130.319 39.0287C129.483 39.5912 128.698 40.224 127.97 40.9201C127.096 41.7324 126.171 42.5757 125.196 43.45C124.221 44.3242 123.258 45.1366 122.308 45.8869C121.352 46.6393 120.487 47.1783 119.715 47.5041C119.838 46.9345 119.938 46.4669 120.015 46.1012C120.092 45.7355 120.173 45.3699 120.259 45.0042C120.584 44.029 120.899 43.1243 121.203 42.29C121.495 41.5303 121.649 40.7251 121.66 39.9115C121.657 39.1489 121.423 38.4051 120.99 37.7773C120.544 37.1069 119.751 36.4464 118.612 35.796C118.106 35.5249 117.536 35.3984 116.963 35.4303C116.42 35.4747 115.886 35.5979 115.378 35.796C114.05 36.3379 112.766 36.9802 111.536 37.7173C110.196 38.5097 108.864 39.3734 107.542 40.3087C106.22 41.2439 104.93 42.209 103.67 43.2042C102.411 44.2033 101.212 45.1895 100.073 46.1627C99.0975 47.0559 98.5285 47.3807 98.3656 47.1369C98.2028 46.8931 98.3856 46.2436 98.9142 45.1885C100.54 41.8913 102.41 38.3543 104.524 34.5775C106.638 30.8007 108.945 27.1118 111.445 23.5109C113.894 19.9769 116.583 16.6154 119.493 13.4499C122.359 10.3405 125.377 7.7897 128.549 5.79739C128.833 5.63553 129.218 5.42121 129.707 5.15743C130.196 4.89365 130.337 4.53695 130.134 4.09033C128.874 2.62757 127.725 1.7638 126.687 1.49902C125.649 1.23425 124.339 1.56897 122.757 2.50317C120.033 4.69901 117.466 7.08282 115.075 9.63714C112.663 12.2131 110.384 14.9098 108.245 17.7168C106.09 20.5414 104.037 23.4889 102.087 26.5593C100.137 29.6297 98.2882 32.77 96.5417 35.9803C95.3637 38.0955 94.2966 40.2397 93.3404 42.4129C92.3842 44.586 91.4395 46.7712 90.5063 48.9683C90.4234 49.1681 90.281 49.5643 90.0791 50.1568C89.8687 50.774 89.7054 51.4063 89.5905 52.0482C89.4734 52.6715 89.4122 53.3039 89.4077 53.9381C89.4077 54.5266 89.5501 54.9023 89.8348 55.0651C90.4576 55.522 91.1083 55.9394 91.7832 56.3151C92.446 56.6887 93.1394 57.0051 93.8559 57.2608C94.1143 57.3647 94.398 57.3883 94.6699 57.3284C94.9419 57.2685 95.1894 57.1279 95.3801 56.9251C95.8278 56.4994 96.2344 56.1033 96.6001 55.7366C98.2257 54.1919 99.8519 52.6167 101.478 51.0111C103.105 49.4054 104.772 47.8508 106.478 46.347C108.186 44.8423 109.974 43.409 111.844 42.0472C113.755 40.6602 115.774 39.4269 117.881 38.3588C117.556 39.5788 117.241 40.8277 116.935 42.1056C116.629 43.3835 116.375 44.7149 116.174 46.0998C115.93 47.5215 116.499 48.5986 117.881 49.331C119.385 50.1853 120.89 50.2258 122.393 49.4524C123.234 48.9807 124.021 48.4188 124.74 47.7768C125.615 47.0245 126.499 46.2216 127.393 45.3684C128.287 44.5151 129.151 43.6818 129.984 42.8685C130.818 42.0542 131.517 41.4047 132.083 40.9201H132.086ZM145.874 40.5529C144.939 41.7329 143.963 42.9224 142.947 44.1214C141.931 45.3204 140.945 46.438 139.99 47.4741C139.036 48.5112 138.162 49.4259 137.369 50.2183C136.575 51.0106 135.951 51.6081 135.497 52.0107C135.022 52.4504 134.446 52.7651 133.82 52.9265C133.203 53.0874 132.559 53.1186 131.93 53.0179C131.27 52.9059 130.632 52.6894 130.04 52.3764C129.398 52.041 128.828 51.5827 128.363 51.0276C128.064 50.6784 127.836 50.2748 127.691 49.8391C127.529 49.3726 127.407 48.8933 127.326 48.4063C127.164 47.3492 127.264 46.1397 127.625 44.7779C128.005 43.3876 128.506 42.0335 129.124 40.7313C129.74 39.4168 130.422 38.1343 131.167 36.8885C131.764 35.8643 132.436 34.8864 133.18 33.963C133.515 33.5723 133.939 33.2683 134.417 33.077C134.895 32.8857 135.412 32.8128 135.924 32.8645C137.023 32.9474 137.937 33.4555 138.666 34.3887C138.804 34.6037 138.892 34.8468 138.923 35.1001C138.955 35.3534 138.93 35.6106 138.849 35.8529C138.47 37.0249 138.001 38.1662 137.448 39.267C136.878 40.4061 136.289 41.5446 135.68 42.6826C135.07 43.8207 134.501 44.9587 133.972 46.0968C133.459 47.1876 133.071 48.3329 132.814 49.5108C133.915 49.0377 134.95 48.4231 135.892 47.6824C136.921 46.8802 137.889 46.0036 138.789 45.0596C139.725 44.0844 140.639 43.0583 141.534 41.9812C142.428 40.9041 143.302 39.855 144.155 38.8339L145.862 40.5409L145.874 40.5529ZM136.544 28.6635C136.553 27.9485 136.615 27.2352 136.729 26.5293C136.837 25.7612 137.052 25.0121 137.369 24.3037C137.635 23.6807 138.067 23.143 138.619 22.7495C139.146 22.3818 139.817 22.3613 140.63 22.6881C141.269 22.9432 141.882 23.26 142.46 23.6338C142.906 23.9335 143.201 24.2588 143.344 24.6095C143.487 25.003 143.487 25.4344 143.344 25.8279C143.149 26.4121 142.893 26.9742 142.581 27.505C142.379 27.8302 142.226 28.0835 142.132 28.2678C142.037 28.4522 141.938 28.6335 141.857 28.8164C141.769 29.0152 141.669 29.2084 141.558 29.3949C141.435 29.5947 141.292 29.859 141.13 30.1877C140.805 30.8382 140.52 31.2039 140.276 31.2848C140.032 31.3657 139.524 31.2238 138.752 30.8592C138.24 30.6637 137.74 30.4396 137.253 30.1877C136.776 29.9429 136.537 29.4344 136.537 28.662L136.544 28.6635Z" fill="#DBE283"/>
</svg>
