<svg width="360" height="167" viewBox="0 0 360 167" fill="none" xmlns="http://www.w3.org/2000/svg">
<path fill-rule="evenodd" clip-rule="evenodd" d="M51.1755 103.463C49.2836 107.025 53.6088 112.588 55.3577 116.971C57.6085 122.601 65.1822 119.903 66.4535 117.132C67.8101 114.176 70.6358 106.842 70.6358 106.842C64.6468 105.671 54.0498 98.0704 51.1755 103.463Z" fill="#1D1D1B"/>
<path fill-rule="evenodd" clip-rule="evenodd" d="M103.601 104.6C105.496 108.159 101.168 113.725 99.4217 118.108C97.1709 123.735 90.0779 120.715 88.8065 117.947C87.4499 114.987 84.6243 107.654 84.6243 107.654C90.6284 106.474 100.73 99.2045 103.601 104.6Z" fill="#1D1D1B"/>
<path fill-rule="evenodd" clip-rule="evenodd" d="M45.7098 86.1043C41.6979 85.8944 45.284 100.567 48.6024 102.833C58.4755 109.567 83.0913 113.007 102.475 108.141C107.369 106.924 114.59 86.9072 109.711 85.6328C87.6689 79.8294 72.9444 87.5399 45.7098 86.1043Z" fill="white"/>
<path fill-rule="evenodd" clip-rule="evenodd" d="M43.2187 83.437C43.5275 83.1679 43.8863 82.9625 44.2747 82.8325C44.663 82.7025 45.0732 82.6506 45.4817 82.6796C57.0885 83.2879 65.529 83.8628 74.1854 82.9138C86.2181 81.5998 96.8424 80.4379 110.119 83.8628C110.645 83.9964 111.134 84.2461 111.55 84.5935C111.966 84.9409 112.299 85.3771 112.525 85.8703C113.285 87.3911 113.301 89.7727 112.811 92.4341C112.286 95.0957 111.482 97.6945 110.411 100.187C108.373 104.99 104.574 107.831 101.879 108.497C92.1888 110.885 81.9416 111.438 72.0715 110.483C61.2768 109.44 53.7488 107.037 48.2678 103.369C46.1387 101.942 43.0484 96.3273 42.1846 91.9261C41.8643 90.4098 41.7203 88.8614 41.7557 87.312C41.8318 85.63 42.288 84.2491 43.237 83.437H43.2187ZM49.8829 86.4786C49.0617 89.064 50.4365 98.3044 54.345 101.157C63.2539 107.484 85.8652 110.282 101.822 106.362C103.294 106 107.637 102.654 109.28 98.7819C110.251 96.5329 110.982 94.1881 111.463 91.7862C111.819 89.8457 111.877 88.2579 111.479 87.458C111.451 87.4002 111.479 87.3819 111.479 87.3759C98.8773 84.1244 86.2728 85.2467 74.6021 86.5273C65.8636 87.4854 61.6783 87.0747 49.8829 86.4877V86.4786Z" fill="#1D1D1B"/>
<path fill-rule="evenodd" clip-rule="evenodd" d="M26.4137 51.3694C27.2076 44.0057 40.244 13.255 67.2596 6.35353C77.8657 3.63737 91.8693 4.39777 98.4574 7.9595C114.493 16.6311 128.457 36.3439 130.619 53.4712C131.416 59.7765 127.192 70.0419 121.133 71.9642C94.9048 80.28 64.951 83.7718 32.6856 67.931C28.3452 65.8019 25.41 60.7954 26.4137 51.3694Z" fill="white"/>
<path fill-rule="evenodd" clip-rule="evenodd" d="M24.6041 51.1772C25.1151 46.4323 30.4197 32.4773 40.9132 20.9131C47.4679 13.6862 56.0605 7.32317 66.8126 4.57355C72.2662 3.17745 78.5928 2.67254 84.4083 2.97062C90.3334 3.27478 95.7809 4.4306 99.3122 6.34378C107.588 10.821 115.317 18.127 121.239 26.5066C127.161 34.8863 131.298 44.3701 132.417 53.2303C132.88 56.9076 131.809 61.7468 129.759 65.78C127.849 69.4999 125.035 72.6145 121.674 73.6882C108.401 77.9039 94.178 80.8938 79.1646 80.8269C64.1512 80.76 48.2892 77.621 31.8796 69.5729C24.9052 66.1511 23.8467 58.1364 24.598 51.1863L24.6041 51.1772ZM45.3722 24.0034C35.4475 34.9532 32.8712 47.3813 32.4028 51.7216C31.5146 60.1895 36.5455 66.2454 42.1664 68.3897C68.0201 78.2628 91.2824 79.5311 117.528 71.1849C126.583 68.3076 131.328 56.6856 130.267 50.3103C128.086 33.0309 106.113 7.1863 88.5662 6.28294C70.4717 5.34916 57.4079 10.7389 45.3722 24.0034Z" fill="#1D1D1B"/>
<path fill-rule="evenodd" clip-rule="evenodd" d="M16.2 15.104C25.1089 26.1268 32.6247 21.9781 36.4633 26.1998C39.5049 29.5304 32.9076 35.2182 29.1451 37.6971C22.1981 42.2839 17.3771 38.3632 13.5477 40.6749C15.3727 35.273 21.7206 30.8292 26.1704 31.5865C22.9919 30.7014 14.6792 21.4944 16.2 15.104Z" fill="url(#paint0_linear)"/>
<path fill-rule="evenodd" clip-rule="evenodd" d="M52.9458 46.5421C51.6653 45.6935 72.7985 47.415 72.0837 47.8287C67.0711 50.7456 64.2698 52.9143 61.9521 56.3452C59.245 52.3911 55.8262 48.4553 52.9458 46.5421Z" fill="#1D1D1B"/>
<path fill-rule="evenodd" clip-rule="evenodd" d="M75.6667 56.1598C75.5525 56.1037 75.4514 56.0242 75.3697 55.9267C75.288 55.8291 75.2277 55.7155 75.1925 55.5932C75.1574 55.4709 75.1482 55.3426 75.1655 55.2166C75.1829 55.0905 75.2264 54.9695 75.2933 54.8613C75.3602 54.753 75.449 54.66 75.554 54.5881C75.659 54.5162 75.7778 54.4671 75.9029 54.4439C76.028 54.4207 76.1566 54.4239 76.2804 54.4533C76.4042 54.4827 76.5205 54.5377 76.6218 54.6147L77.1023 54.9188C79.2953 56.2724 79.6147 57.1271 81.7895 57.048C83.4988 56.7438 83.1247 55.223 82.9453 53.5501C82.9201 53.4257 82.9211 53.2974 82.9483 53.1734C82.9756 53.0494 83.0283 52.9325 83.1033 52.8301C83.1783 52.7277 83.2738 52.642 83.3837 52.5786C83.4937 52.5152 83.6157 52.4754 83.7419 52.4618C83.8681 52.4482 83.9957 52.4611 84.1167 52.4996C84.2376 52.5382 84.3492 52.6015 84.4442 52.6856C84.5393 52.7697 84.6158 52.8727 84.6688 52.9881C84.7218 53.1034 84.7501 53.2285 84.752 53.3555C85.0616 54.2622 85.2399 55.2086 85.2812 56.1659C85.3269 57.6533 84.2136 59.8158 82.6046 59.8676C81.3245 59.9073 80.056 59.6133 78.9238 59.0144C77.7917 58.4155 76.8348 57.5324 76.1473 56.4518L75.6667 56.1598Z" fill="#1D1D1B"/>
<path fill-rule="evenodd" clip-rule="evenodd" d="M28.987 66.3251C26.1948 65.1084 23.6642 79.4314 29.1452 83.0539C36.2413 87.735 53.0888 95.187 77.4399 95.6919C104.751 96.2606 108.525 93.6509 123.222 87.075C128.113 84.888 128.524 68.3751 123.545 70.3461C93.594 82.2236 58.6854 79.4344 28.987 66.3251Z" fill="#1D1D1B"/>
<path fill-rule="evenodd" clip-rule="evenodd" d="M43.1701 27.7267C46.16 24.3414 53.8705 16.494 64.9268 11.3233C59.8716 2.11024 47.7082 -3.88478 39.7817 2.9406C33.592 8.28168 31.1496 18.2977 43.1701 27.7267Z" fill="#1D1D1B"/>
<path fill-rule="evenodd" clip-rule="evenodd" d="M103.558 10.2011C110.25 14.8335 111.497 16.1839 119.493 25.8989C129.12 22.912 129.479 10.9676 124.32 6.49031C118.846 1.73627 109.085 0.224591 103.558 10.2011Z" fill="#1D1D1B"/>
<path fill-rule="evenodd" clip-rule="evenodd" d="M1.96833 28.8551L47.3097 108.78C49.0556 111.855 42.3579 114.473 40.8767 111.517L0.0369083 29.8193C-0.285503 29.1775 1.6003 28.2346 1.96833 28.8551Z" fill="#1D1D1B"/>
<path fill-rule="evenodd" clip-rule="evenodd" d="M152.489 32.3925C153.039 31.5378 155.095 32.1644 154.578 33.0374L113.894 102.027C112.981 103.548 108.419 100.792 109.389 99.2898L152.489 32.3925Z" fill="#1D1D1B"/>
<path fill-rule="evenodd" clip-rule="evenodd" d="M94.9596 47.0838C93.5939 46.5272 113.79 44.1243 113.209 44.6505C109.051 48.3461 106.822 50.9162 105.301 54.5935C101.995 51.3816 98.0286 48.3339 94.9596 47.0838Z" fill="#1D1D1B"/>
<path fill-rule="evenodd" clip-rule="evenodd" d="M37.0747 25.3328C33.0172 25.9776 29.13 38.3296 33.1206 39.3242C65.1823 47.3024 95.7353 47.3084 126.553 38.2688C130.939 36.9822 125.756 25.7191 121.245 25.1533C90.6133 36.1822 48.3165 28.1919 37.0747 25.3328Z" fill="#1D1D1B"/>
<path fill-rule="evenodd" clip-rule="evenodd" d="M78.5136 49.9303C78.3797 49.7478 78.0938 48.741 79.1614 48.8201C81.3709 48.9546 83.5868 48.9465 85.7952 48.7957C87.4225 48.6741 88.6361 48.0232 88.852 48.4612C89.3083 49.3736 84.9952 52.3058 83.9216 54.4045C82.124 52.3636 79.1614 50.8154 78.5136 49.9303Z" fill="#1D1D1B"/>
<path fill-rule="evenodd" clip-rule="evenodd" d="M37.9112 24.0312C33.8537 24.6092 27.9104 34.5948 31.8797 35.6076C65.0698 44.0907 93.8465 46.156 124.67 38.0196C129.056 36.8638 124.841 25.7467 120.327 25.2449C89.6825 35.1575 49.153 26.6014 37.9112 24.0312Z" fill="url(#paint1_linear)"/>
<path fill-rule="evenodd" clip-rule="evenodd" d="M2.77428 28.2103L48.1187 108.138C49.8646 111.213 44.4688 113.491 42.9753 110.55L1.32343 29.3388C0.994935 28.697 2.4032 27.5929 2.77428 28.2103Z" fill="#60391F"/>
<path fill-rule="evenodd" clip-rule="evenodd" d="M152.166 31.9117C152.702 31.0449 154.296 31.5194 153.775 32.3923L113.091 101.382C112.178 102.903 109.255 101.291 110.195 99.7732L152.166 31.9117Z" fill="#60391F"/>
<path fill-rule="evenodd" clip-rule="evenodd" d="M101.992 100.421L101.834 115.934C103.333 121.685 144.285 127.662 178.577 127.361C214.045 127.057 240.997 120.572 241.097 113.741V101.045C225.658 112.868 114.833 113.44 101.992 100.421Z" fill="#1D1D1B"/>
<path fill-rule="evenodd" clip-rule="evenodd" d="M110.18 109.488C110.346 110.167 110.642 110.808 111.053 111.374C110.937 112.508 110.776 114.041 110.606 115.468C110.283 118.178 110.91 121.21 110.91 121.21L111.442 123.997L111.865 117.819L111.695 112.146C112.024 112.568 112.252 113.059 112.364 113.582C113.005 116.164 113.58 118.357 113.58 118.357C113.58 118.357 113.501 123.832 114.304 121.49C115.107 119.148 115.43 118.044 114.706 115.617C113.982 113.19 114.225 110.294 114.225 110.294C114.225 110.294 115.268 109.278 115.913 111.389C116.558 113.5 116.394 117.183 116.716 118.436C116.941 119.306 117.982 119.078 118.432 117.886C118.432 120.198 118.566 123.038 118.566 123.038L118.967 133.906L119.773 140.041L120.077 137.231C120.077 137.231 120.479 134.162 119.998 131.476C119.518 128.79 119.034 125.724 119.034 125.724L120.077 125.341L121.203 130.965C121.203 130.965 120.801 124.191 120.801 123.552C120.801 122.914 120.159 120.611 120.159 120.611C120.159 120.611 118.696 114.011 118.483 115.392C118.009 112.895 117.428 113.047 117.504 111.702C117.586 110.294 117.504 108.728 117.909 109.512C118.313 110.297 119.837 112.487 119.758 113.035C119.679 113.582 120.482 116.949 120.4 117.418C120.318 117.886 121.446 120.079 121.446 120.079C121.333 120.49 121.252 120.909 121.203 121.332C121.124 122.038 124.339 124.152 123.536 122.038C122.733 119.924 123.052 118.202 122.733 115.696C122.413 113.19 121.847 111 121.768 110.221C121.689 109.442 122.65 104.585 119.597 104.272C116.771 103.983 112.64 99.4811 111.336 102.079C111.272 100.996 111.193 100.001 111.095 99.4233C110.907 98.2796 110.371 100.777 110.013 102.696C109.992 102.481 109.961 102.266 109.918 102.054C109.672 100.971 108.355 105.297 108.355 105.297C108.355 105.297 107.774 106.744 107.801 107.122C107.829 107.499 107.695 111.684 107.695 111.684L108.641 108.171L109.219 108.253C109.219 108.861 109.24 109.774 109.252 110.747C109.167 111.13 109.076 111.529 108.984 111.915C108.592 113.588 109.146 115.434 109.146 115.434L109.602 117.132L110.189 113.327L110.168 109.485L110.18 109.488ZM125.637 111.617L126.042 122.482L126.845 128.62L127.167 125.806C127.167 125.806 127.569 122.737 127.085 120.055C126.602 117.372 126.121 114.3 126.121 114.3L127.088 113.947L127.328 117.901L128.131 121.658L128.454 119.936C128.454 119.936 128.855 118.056 128.372 116.414C128.262 116.034 128.15 115.644 128.046 115.264C127.992 114.294 127.943 113.375 127.912 112.776L128.454 112.654L129.579 116.1C129.579 116.1 129.178 111.952 129.178 111.559C129.178 111.167 128.533 109.759 128.533 109.759C128.533 109.759 127.012 105.531 126.845 106.626C126.818 106.842 126.801 107.059 126.796 107.277C126.334 105.382 125.662 102.927 125.558 104.08C125.397 105.859 125.637 111.611 125.637 111.611V111.617Z" fill="#1D1D1B"/>
<path fill-rule="evenodd" clip-rule="evenodd" d="M211.031 106.38L211.432 113.035L212.238 116.791L212.543 115.07C212.543 115.07 212.944 113.19 212.463 111.548C211.983 109.905 211.514 108.025 211.514 108.025L212.558 107.791L213.683 111.234C213.683 111.234 213.282 107.085 213.282 106.693C213.282 106.301 212.64 104.892 212.64 104.892C212.64 104.892 211.119 100.665 210.952 101.763C210.784 102.861 211.031 106.38 211.031 106.38ZM221.862 103.536L222.032 109.209L221.61 115.386L221.077 112.588C221.077 112.588 220.442 109.546 220.773 106.845C220.943 105.419 221.105 103.883 221.22 102.751C220.81 102.185 220.513 101.545 220.347 100.865L220.369 104.707L219.769 108.524L219.31 106.827C219.31 106.827 218.76 104.981 219.152 103.308C219.243 102.922 219.334 102.523 219.417 102.14C219.417 101.167 219.395 100.245 219.383 99.6457L218.808 99.5636L217.859 103.077C217.859 103.077 217.996 98.9096 217.969 98.5142C217.941 98.1188 218.522 96.6892 218.522 96.6892C218.522 96.6892 219.839 92.3641 220.086 93.4469C220.128 93.659 220.16 93.8732 220.18 94.0887C220.539 92.1694 221.074 89.6722 221.263 90.8159C221.36 91.3938 221.436 92.3884 221.503 93.4712C222.808 90.8737 226.939 95.3753 229.764 95.6642C232.806 95.9684 231.854 100.835 231.933 101.614C232.012 102.392 232.578 104.588 232.9 107.089C233.222 109.589 232.9 111.316 233.703 113.43C234.506 115.544 231.291 113.43 231.37 112.725C231.419 112.301 231.501 111.882 231.613 111.471C231.613 111.471 230.488 109.282 230.567 108.81C230.646 108.339 229.843 104.975 229.925 104.427C230.008 103.88 228.478 101.69 228.076 100.905C227.675 100.12 227.754 101.687 227.672 103.095C227.595 104.439 228.176 104.287 228.651 106.784C228.864 105.403 230.327 112.004 230.327 112.004C230.327 112.004 230.969 114.303 230.969 114.945C230.969 115.587 231.37 122.357 231.37 122.357L230.245 116.733L229.198 117.114C229.198 117.114 229.679 120.183 230.163 122.865C230.646 125.548 230.242 128.617 230.242 128.617L229.928 131.446L229.122 125.311L228.721 114.443C228.721 114.443 228.602 111.602 228.587 109.291C228.137 110.483 227.097 110.711 226.872 109.841C226.549 108.588 226.71 104.908 226.069 102.794C225.427 100.68 224.377 101.699 224.377 101.699C224.377 101.699 224.137 104.594 224.861 107.022C225.585 109.449 225.263 110.544 224.46 112.895C223.657 115.246 223.736 109.762 223.736 109.762C223.736 109.762 223.173 107.569 222.519 104.987C222.41 104.464 222.182 103.972 221.853 103.551L221.862 103.536ZM235.796 103.001L236.194 113.865L236.997 120.003L237.32 117.19C237.32 117.19 237.721 114.121 237.237 111.438C236.754 108.755 236.273 105.683 236.273 105.683L237.24 105.33L237.481 109.285L238.284 113.041L238.606 111.319C238.606 111.319 239.008 109.44 238.524 107.797C238.415 107.417 238.302 107.025 238.196 106.647C238.144 105.677 238.092 104.759 238.065 104.159L238.606 104.038L239.732 107.484C239.732 107.484 239.33 103.332 239.33 102.943C239.33 102.553 238.685 101.142 238.685 101.142C238.685 101.142 237.164 96.9143 236.997 98.0093C236.97 98.2253 236.954 98.4426 236.948 98.6602C236.486 96.7653 235.814 94.3107 235.711 95.4635C235.549 97.2519 235.79 103.007 235.79 103.007L235.796 103.001ZM215.532 121.162L215.937 132.027L216.728 138.165L217.05 135.351C217.05 135.351 217.452 132.282 216.968 129.6C216.484 126.917 216.016 123.842 216.016 123.842L217.062 123.458L218.188 129.082C218.188 129.082 217.786 122.309 217.786 121.67C217.786 121.031 217.141 118.729 217.141 118.729C217.141 118.729 215.621 111.827 215.453 113.616C215.286 115.404 215.532 121.162 215.532 121.162Z" fill="#1D1D1B"/>
<path fill-rule="evenodd" clip-rule="evenodd" d="M109.055 112.457L109.091 119.124L108.489 122.929L108.033 121.235C108.033 121.235 107.479 119.389 107.871 117.713C108.264 116.037 108.644 114.133 108.644 114.133L107.528 113.972L106.582 117.485C106.582 117.485 106.715 113.318 106.688 112.923C106.661 112.527 107.242 111.079 107.242 111.079C107.242 111.079 108.559 106.757 108.805 107.84C109.051 108.923 109.039 112.454 109.039 112.454L109.055 112.457ZM130.224 149.306L130.848 127.373L131.778 114.994L132.043 120.673C132.043 120.673 132.381 126.871 131.842 132.285C131.304 137.7 130.763 143.892 130.763 143.892L131.8 144.674L133.041 133.332C133.041 133.332 132.499 147.019 132.487 148.297C132.475 149.574 131.781 154.225 131.781 154.225C131.781 154.225 130.115 168.146 129.99 164.533C129.865 160.919 130.224 149.306 130.224 149.306ZM124.813 123.824L124.85 141.526L124.263 151.63L123.806 147.125C123.806 147.125 123.253 142.222 123.648 137.779C124.044 133.335 124.421 128.267 124.421 128.267L123.301 127.839L122.355 137.17C122.355 137.17 122.492 126.105 122.465 125.068C122.438 124.031 123.003 120.192 123.003 120.192C123.003 120.192 124.317 108.713 124.564 111.587C124.81 114.462 124.798 123.836 124.798 123.836L124.813 123.824ZM115.904 108.67L116.233 119.541L115.81 125.719L115.262 122.929C115.262 122.929 114.627 119.888 114.958 117.184C115.29 114.48 115.567 111.377 115.567 111.377L114.438 111.073L113.641 116.764C113.641 116.764 113.596 109.975 113.553 109.336C113.51 108.698 114.028 106.359 114.028 106.359C114.028 106.359 115.159 99.363 115.451 101.142C115.743 102.922 115.889 108.67 115.889 108.67H115.904Z" fill="#1D1D1B"/>
<path fill-rule="evenodd" clip-rule="evenodd" d="M223.334 72.5116C224.058 99.1409 225.424 92.2243 226.072 103.636C226.719 115.049 227.288 124.73 227.288 124.73C227.288 124.73 227.209 148.938 228.012 138.563C228.815 128.188 229.138 123.355 228.414 112.627C227.69 101.9 227.933 89.1127 227.933 89.1127C227.933 89.1127 228.976 84.6172 229.621 93.9519C230.266 103.287 230.102 119.544 230.424 125.077C230.747 130.609 232.757 126.114 232.273 113.318C231.79 100.522 231.148 101.562 231.227 95.3359C231.306 89.1097 231.227 82.193 231.632 85.6514C232.036 89.1097 233.56 98.7942 233.481 101.215C233.402 103.636 234.205 118.507 234.123 120.581C234.041 122.656 235.169 132.337 235.169 132.337C235.169 132.337 235.008 134.77 234.929 137.87C234.85 140.969 238.065 150.322 237.259 140.984C236.453 131.647 236.778 124.04 236.456 112.974C236.133 101.909 235.571 92.2243 235.491 88.766C235.412 85.3077 236.374 63.8673 233.32 62.4834C230.266 61.0994 225.679 37.9314 224.803 56.2602C223.927 74.589 223.355 72.5116 223.355 72.5116H223.334ZM222.288 108.05C222.288 108.05 222.048 100.084 222.209 97.608C222.37 95.1321 223.897 104.68 223.897 104.68C223.897 104.68 224.539 107.867 224.539 108.752C224.539 109.638 224.94 119.021 224.94 119.021L223.815 111.234L222.771 111.767C222.771 111.767 223.252 116.025 223.736 119.73C224.219 123.434 223.815 127.693 223.815 127.693L223.511 131.589L222.705 123.094L222.288 108.05Z" fill="#1D1D1B"/>
<path fill-rule="evenodd" clip-rule="evenodd" d="M101.992 100.421L101.834 116.341C103.333 122.248 144.285 128.389 178.577 128.079C214.045 127.775 240.997 121.107 241.097 114.087V101.06C225.658 113.196 114.833 113.804 101.992 100.421Z" fill="url(#paint2_linear)"/>
<path fill-rule="evenodd" clip-rule="evenodd" d="M110.18 109.735C110.344 110.431 110.641 111.088 111.053 111.672C110.937 112.834 110.776 114.41 110.606 115.876C110.283 118.662 110.91 121.777 110.91 121.777L111.442 124.636L111.865 118.291L111.695 112.463C112.024 112.9 112.253 113.405 112.364 113.941C113.005 116.594 113.58 118.845 113.58 118.845C113.58 118.845 113.501 124.475 114.304 122.063C115.107 119.651 115.43 118.522 114.706 116.031C113.982 113.54 114.225 110.556 114.225 110.556C114.225 110.556 115.268 109.513 115.913 111.682C116.558 113.85 116.394 117.634 116.716 118.921C116.941 119.815 117.982 119.581 118.432 118.355C118.432 120.727 118.566 123.647 118.566 123.647L118.967 134.81L119.773 141.112L120.077 138.223C120.077 138.223 120.479 135.072 119.998 132.313C119.518 129.554 119.034 126.406 119.034 126.406L120.077 126.011L121.203 131.79C121.203 131.79 120.801 124.83 120.801 124.186C120.801 123.541 120.159 121.165 120.159 121.165C120.159 121.165 118.696 114.386 118.483 115.806C118.009 113.242 117.428 113.397 117.504 112.016C117.586 110.568 117.504 108.959 117.909 109.765C118.313 110.571 119.837 112.807 119.758 113.382C119.679 113.957 120.482 117.403 120.4 117.886C120.318 118.37 121.446 120.624 121.446 120.624C121.333 121.046 121.252 121.476 121.203 121.911C121.124 122.634 124.339 124.803 123.536 122.634C122.733 120.466 123.052 118.68 122.733 116.119C122.413 113.558 121.847 111.295 121.768 110.492C121.689 109.689 122.65 104.713 119.597 104.382C116.771 104.078 112.64 99.4573 111.336 102.128C111.272 101.015 111.193 99.9987 111.095 99.3904C110.907 98.2163 110.371 100.78 110.013 102.754C109.993 102.533 109.961 102.313 109.918 102.094C109.672 100.981 108.355 105.422 108.355 105.422C108.355 105.422 107.774 106.912 107.801 107.314C107.829 107.715 107.695 111.995 107.695 111.995L108.641 108.384L109.219 108.47C109.219 109.078 109.24 110.03 109.252 111.031C109.167 111.426 109.076 111.834 108.984 112.229C108.592 113.948 109.146 115.846 109.146 115.846L109.602 117.588L110.189 113.68L110.168 109.726L110.18 109.735ZM125.637 111.916L126.042 123.075L126.845 129.378L127.167 126.488C127.167 126.488 127.569 123.337 127.085 120.581C126.602 117.826 126.121 114.671 126.121 114.671L127.088 114.306L127.328 118.364L128.131 122.221L128.454 120.454C128.454 120.454 128.855 118.522 128.372 116.834C128.262 116.445 128.15 116.043 128.046 115.657C127.992 114.659 127.943 113.713 127.912 113.099L128.454 112.974L129.579 116.512C129.579 116.512 129.178 112.253 129.178 111.849C129.178 111.444 128.533 110 128.533 110C128.533 110 127.012 105.659 126.845 106.785C126.817 107.006 126.801 107.228 126.796 107.451C126.334 105.507 125.662 102.983 125.558 104.169C125.397 106.006 125.637 111.916 125.637 111.916Z" fill="#1D1D1B"/>
<path fill-rule="evenodd" clip-rule="evenodd" d="M211.031 106.541L211.432 113.379L212.238 117.236L212.542 115.469C212.542 115.469 212.944 113.537 212.463 111.849C211.983 110.161 211.499 108.233 211.499 108.233L212.542 107.989L213.668 111.527C213.668 111.527 213.266 107.268 213.266 106.864C213.266 106.459 212.625 105.015 212.625 105.015C212.625 105.015 211.104 100.674 210.937 101.8C210.769 102.925 211.016 106.541 211.016 106.541H211.031ZM221.862 103.618L222.032 109.446L221.61 115.791L221.077 112.932C221.077 112.932 220.442 109.817 220.773 107.031C220.943 105.565 221.105 103.989 221.22 102.828C220.808 102.244 220.511 101.586 220.347 100.89L220.369 104.844L219.769 108.744L219.31 107.001C219.31 107.001 218.76 105.106 219.152 103.384C219.243 102.989 219.334 102.581 219.417 102.186C219.417 101.188 219.395 100.242 219.383 99.6248L218.808 99.5396L217.862 103.159C217.862 103.159 217.999 98.8796 217.972 98.4781C217.944 98.0766 218.525 96.5862 218.525 96.5862C218.525 96.5862 219.842 92.1455 220.089 93.2587C220.132 93.4769 220.163 93.6972 220.183 93.9187C220.542 91.9447 221.077 89.3806 221.266 90.5577C221.363 91.1478 221.439 92.1698 221.506 93.2952C222.811 90.6246 226.941 95.2509 229.767 95.549C232.809 95.8714 231.857 100.857 231.936 101.66C232.015 102.463 232.581 104.701 232.903 107.287C233.225 109.872 232.903 111.63 233.706 113.802C234.509 115.973 231.294 113.802 231.373 113.078C231.422 112.644 231.503 112.213 231.616 111.791C231.616 111.791 230.491 109.54 230.57 109.054C230.649 108.567 229.846 105.1 229.928 104.552C230.01 104.005 228.481 101.736 228.079 100.933C227.678 100.13 227.757 101.736 227.675 103.183C227.598 104.564 228.179 104.4 228.654 106.973C228.867 105.553 230.33 112.333 230.33 112.333C230.33 112.333 230.972 114.696 230.972 115.353C230.972 116.01 231.373 122.957 231.373 122.957L230.248 117.178L229.198 117.567C229.198 117.567 229.679 120.718 230.163 123.474C230.646 126.23 230.242 129.384 230.242 129.384L229.922 132.273L229.122 125.971L228.721 114.809C228.721 114.809 228.602 111.889 228.587 109.516C228.137 110.733 227.097 110.976 226.872 110.082C226.549 108.795 226.71 105.015 226.069 102.843C225.427 100.671 224.377 101.717 224.377 101.717C224.377 101.717 224.137 104.692 224.861 107.192C225.585 109.693 225.263 110.812 224.46 113.224C223.657 115.636 223.723 110 223.723 110C223.723 110 223.161 107.749 222.507 105.097C222.398 104.56 222.171 104.055 221.841 103.618H221.862ZM235.796 103.071L236.194 114.231L236.997 120.533L237.319 117.643C237.319 117.643 237.721 114.492 237.237 111.736C236.754 108.981 236.273 105.827 236.273 105.827L237.24 105.465L237.481 109.519L238.284 113.379L238.606 111.609C238.606 111.609 239.008 109.677 238.524 107.989C238.414 107.6 238.302 107.198 238.195 106.812C238.144 105.814 238.092 104.869 238.065 104.254L238.606 104.129L239.731 107.67C239.731 107.67 239.33 103.412 239.33 103.004C239.33 102.596 238.685 101.155 238.685 101.155C238.685 101.155 237.164 96.8143 236.997 97.9397C236.97 98.1608 236.954 98.3831 236.948 98.6058C236.486 96.6623 235.814 94.1377 235.71 95.3239C235.549 97.1489 235.79 103.071 235.79 103.071H235.796ZM215.532 121.713L215.937 132.873L216.728 139.187L217.05 136.298C217.05 136.298 217.452 133.146 216.968 130.391C216.484 127.635 216.004 124.481 216.004 124.481L217.05 124.088L218.176 129.868C218.176 129.868 217.774 122.908 217.774 122.264C217.774 121.619 217.129 119.246 217.129 119.246C217.129 119.246 215.608 112.153 215.441 113.993C215.274 115.834 215.532 121.713 215.532 121.713Z" fill="#1D1D1B"/>
<path fill-rule="evenodd" clip-rule="evenodd" d="M109.055 112.783L109.091 119.629L108.489 123.538L108.033 121.795C108.033 121.795 107.479 119.9 107.871 118.182C108.264 116.463 108.644 114.501 108.644 114.501L107.528 114.337L106.582 117.944C106.582 117.944 106.715 113.665 106.688 113.263C106.661 112.862 107.23 111.371 107.23 111.371C107.23 111.371 108.547 106.931 108.793 108.044C109.039 109.157 109.027 112.783 109.027 112.783H109.055ZM130.224 150.633L130.832 128.1L131.763 115.386L132.028 121.22C132.028 121.22 132.365 127.586 131.827 133.149C131.289 138.712 130.747 145.069 130.747 145.069L131.784 145.872L133.025 134.22C133.025 134.22 132.475 148.269 132.475 149.595C132.475 150.921 131.769 155.679 131.769 155.679C131.769 155.679 130.102 169.974 129.978 166.266C129.853 162.559 130.212 150.626 130.212 150.626L130.224 150.633ZM124.798 124.45L124.834 142.633L124.263 153.017L123.806 148.394C123.806 148.394 123.253 143.357 123.648 138.792C124.044 134.226 124.406 129.013 124.406 129.013L123.286 128.572L122.34 138.156C122.34 138.156 122.477 126.789 122.45 125.725C122.422 124.66 123.003 120.703 123.003 120.703C123.003 120.703 124.317 108.938 124.567 111.876C124.816 114.814 124.801 124.459 124.801 124.459L124.798 124.45ZM115.889 108.886L116.218 120.052L115.795 126.397L115.262 123.538C115.262 123.538 114.627 120.42 114.958 117.637C115.29 114.854 115.567 111.672 115.567 111.672L114.438 111.368L113.641 117.211C113.641 117.211 113.596 110.24 113.553 109.586C113.51 108.932 114.028 106.526 114.028 106.526C114.028 106.526 115.159 99.3448 115.451 101.167C115.743 102.989 115.889 108.895 115.889 108.895V108.886Z" fill="#1D1D1B"/>
<path fill-rule="evenodd" clip-rule="evenodd" d="M223.334 71.754C224.058 99.1042 225.424 92.002 226.072 103.724C226.719 115.447 227.288 125.39 227.288 125.39C227.288 125.39 227.209 150.255 228.012 139.597C228.815 128.939 229.138 123.969 228.414 112.956C227.69 101.942 227.933 88.8053 227.933 88.8053C227.933 88.8053 228.976 84.1881 229.621 93.7783C230.266 103.369 230.102 120.061 230.424 125.746C230.747 131.43 232.757 126.81 232.273 113.667C231.79 100.525 231.148 101.592 231.227 95.1987C231.306 88.8053 231.227 81.7 231.632 85.2526C232.036 88.8053 233.56 98.7483 233.481 101.236C233.402 103.724 234.205 118.996 234.123 121.129C234.041 123.261 235.169 133.204 235.169 133.204C235.169 133.204 235.008 135.689 234.929 138.888C234.85 142.088 238.065 151.663 237.259 142.085C236.453 132.507 236.778 124.681 236.456 113.315C236.133 101.948 235.571 92.002 235.491 88.4494C235.412 84.8968 236.374 62.8755 233.32 61.455C230.266 60.0346 225.679 36.234 224.803 55.0677C223.927 73.9013 223.355 71.76 223.355 71.76L223.334 71.754ZM222.288 108.253C222.288 108.253 222.048 100.071 222.209 97.5286C222.37 94.9858 223.897 104.801 223.897 104.801C223.897 104.801 224.539 108.071 224.539 108.98C224.539 109.89 224.94 119.526 224.94 119.526L223.815 111.529L222.771 112.074C222.771 112.074 223.252 116.435 223.736 120.253C224.219 124.07 223.815 128.434 223.815 128.434L223.511 132.434L222.705 123.708L222.288 108.253Z" fill="#1D1D1B"/>
<path d="M171.268 113.777C209.681 113.777 240.82 108.266 240.82 101.468C240.82 94.6693 209.681 89.1582 171.268 89.1582C132.855 89.1582 101.715 94.6693 101.715 101.468C101.715 108.266 132.855 113.777 171.268 113.777Z" fill="#1D1D1B"/>
<path d="M240.817 89.1675L101.715 113.777M101.715 89.1675L240.817 113.786L101.715 89.1675Z" stroke="#1D1D1B" stroke-width="0.0669155" stroke-miterlimit="2.61"/>
<path fill-rule="evenodd" clip-rule="evenodd" d="M173.084 90.1221C210.581 90.1221 240.978 95.0191 240.978 101.072C240.978 107.125 210.581 111.979 173.084 111.979C135.586 111.979 105.186 107.113 105.186 101.057C105.186 95.0008 135.586 90.1221 173.084 90.1221Z" fill="#D7B46A"/>
<path fill-rule="evenodd" clip-rule="evenodd" d="M165.504 94.8006V94.8219C169.951 94.2835 174.346 93.66 174.629 92.8357L176.387 92.9178C175.952 94.2014 170.486 94.9405 165.291 95.558C165.251 95.6622 165.204 95.7638 165.151 95.8621C165.385 95.8104 165.607 95.7587 165.814 95.707L166.787 96.2727C166.054 96.4583 165.197 96.6317 164.284 96.799C163.718 97.1883 162.876 97.5229 161.592 97.8392C160.043 98.191 158.475 98.4591 156.896 98.6422L157.474 98.7273C158.928 98.9342 159.25 99.2748 158.84 99.6976C158.292 100.257 155.914 100.914 153.751 101.523C152.604 101.827 151.525 102.131 150.904 102.371C149.834 102.767 148.523 102.788 147.3 102.809C146.816 102.809 146.348 102.809 145.986 102.861C145.125 102.949 144.717 103.335 145.812 104.917C146.074 105.294 143.309 106.015 140.246 106.812C137.04 107.648 124.43 110.833 124.43 110.939C124.43 110.991 124.384 110.979 124.317 110.939H124.181L124.263 111.371C123.21 111.399 122.714 111.25 122.669 110.967C122.584 110.474 135.641 107.174 139.243 106.237C141.761 105.58 144.155 105.16 144.094 105.075C142.622 102.946 143.674 102.377 145.533 102.189C146.068 102.134 146.634 102.125 147.221 102.116C148.118 102.1 149.079 102.085 149.654 101.866C150.372 101.602 151.497 101.288 152.696 100.954C154.654 100.409 156.808 99.8132 157.167 99.433C157.194 99.4056 157.106 99.3721 156.841 99.3356C156.117 99.2548 155.404 99.0988 154.712 98.8703C152.017 99.1745 148.611 99.4786 144.283 99.8466C140.246 100.184 139.72 100.759 140.091 101.428C140.299 101.742 140.542 102.03 140.815 102.289C141.102 102.567 141.361 102.873 141.588 103.202C142.315 104.351 141.725 105.425 135.2 106.027C126.848 106.803 126.158 107.959 125.631 108.85C125.105 109.741 124.719 110.395 120.5 110.504L120.382 109.826C123.277 109.75 123.548 109.291 123.901 108.701C124.533 107.633 125.361 106.243 134.784 105.37C139.839 104.899 140.353 104.154 139.851 103.36C139.648 103.07 139.419 102.799 139.167 102.551C138.867 102.266 138.6 101.947 138.373 101.602C137.764 100.564 138.446 99.6672 143.927 99.2079C148.243 98.849 151.613 98.5387 154.247 98.2467C154.263 98.225 154.282 98.2047 154.302 98.1859C154.834 97.6384 157.529 97.1944 160.446 96.7138C161.273 96.5769 162.119 96.437 162.925 96.294C163.096 96.1512 163.244 95.9817 163.363 95.7922L161.303 96.0385C158.733 96.9845 152.252 97.7723 146.539 98.4718C142.199 99.0011 138.327 99.4725 137.317 99.8497C136.618 100.114 136.821 100.342 137.047 100.589C137.792 101.41 138.662 102.371 128.621 104.345C127.163 104.659 125.729 105.075 124.33 105.592C120.802 106.848 117.178 107.811 113.492 108.473C112.723 108.619 109.234 109.157 104.818 109.835C101.356 110.371 97.32 110.991 93.6397 111.569C91.1486 112.086 89.0346 112.482 87.529 112.731L87.3465 112.564C84.5178 113.02 82.6077 113.345 82.5073 113.415C82.4496 113.439 82.386 113.445 82.325 113.431C82.2641 113.417 82.2088 113.385 82.1667 113.339L81.7743 113.254L81.312 113.558C80.7645 113.44 80.655 113.275 80.9652 113.069C81.3333 112.828 86.5892 111.949 92.7424 110.973C98.3815 109.802 106.028 108.041 112.817 106.35C120.899 104.336 127.7 102.453 128.208 101.869C130.434 99.3052 146.552 97.5198 153.03 96.802C153.376 96.7679 153.723 96.7577 154.07 96.7716L155.156 96.6073C155.886 95.9595 159.469 95.5367 163.481 95.0652L163.673 95.0439C163.7 94.9466 163.725 94.8493 163.746 94.7398L165.519 94.7945L165.504 94.8006ZM134.987 100.163C132.423 100.744 130.489 101.38 129.884 102.088C129.236 102.834 122.146 104.826 113.763 106.924C110.791 107.667 107.652 108.421 104.583 109.136C108.775 108.491 112.051 107.983 112.698 107.861C116.245 107.224 119.734 106.295 123.128 105.084C124.647 104.521 126.204 104.069 127.788 103.731C136.46 102.027 135.86 101.367 135.346 100.802C135.155 100.586 134.966 100.379 134.975 100.163H134.987ZM217.835 95.0622C223.474 94.4539 228.304 93.9155 229.232 93.6083L228.073 93.0942C227.443 93.3011 223.322 93.7695 218.309 94.3109L218.163 94.2136L217.151 94.4356L214.258 94.7398C206.35 95.5762 197.994 96.4613 196.896 96.9601C196.629 97.0818 194.627 97.3738 192.258 97.7175C189.609 98.1038 186.525 98.554 184.502 99.0041C182.472 99.4376 180.42 99.7625 178.355 99.9774C175.152 100.355 172.624 100.656 170.072 102.192C169.254 102.684 166.073 103.259 163.007 103.816C159.755 104.406 157.73 105.69 157.006 106.28C156.482 106.705 156.86 107.083 158.548 107.384C158.635 107.397 158.72 107.421 158.8 107.457C159.083 107.609 158.164 108.065 157.38 108.214C156.273 108.567 155.302 107.977 153.961 108.594C150.387 110.237 145.11 111.995 141.931 112.533C138.044 113.19 135.514 115.298 132.329 116.871C126.927 119.538 120.284 122.817 104.954 123.909C97.5056 124.438 87.8241 124.265 80.8557 124.137C77.0841 124.07 74.0912 124.015 72.5369 124.094C72.032 123.912 71.5058 123.735 70.9127 123.562C70.1858 123.352 69.3584 123.142 68.3456 122.933L67.5031 123.541C68.4155 123.729 69.179 123.921 69.836 124.113C70.493 124.304 71.0709 124.505 71.6336 124.721L71.9925 124.852L72.467 124.806C73.5619 124.7 76.6979 124.757 80.7706 124.83C87.8241 124.958 97.6242 125.135 105.274 124.59C119.509 123.574 126.516 120.776 131.83 118.224L131.867 118.264C133.773 117.956 135.661 117.543 137.521 117.026C138.865 116.673 140.216 116.32 141.779 116.031C144.009 115.62 150.789 113.963 157.143 112.32C160.598 111.426 164.22 109.778 167.788 108.67C170.221 107.913 173.512 107.651 173.196 107.128C172.427 105.86 179.909 104.193 185.576 103.886C188.985 103.7 190.606 102.35 190.658 102.195C190.716 101.988 190.774 101.772 190.822 101.586C190.947 101.112 190.996 100.929 191.126 100.875C191.34 100.814 191.558 100.766 191.777 100.732C193.497 100.409 195.194 99.9792 196.86 99.4451C201.216 98.0947 205.434 97.3556 209.939 96.5647C212.469 96.1207 215.088 95.6522 217.868 95.0713L217.835 95.0622ZM195.722 98.9007C200.032 97.5654 204.154 96.8141 208.497 96.0477C203.196 96.6225 198.782 97.1427 198.241 97.386C197.699 97.6293 195.479 97.9639 192.881 98.341C190.284 98.7182 187.27 99.1592 185.381 99.579C183.229 100.04 181.054 100.386 178.866 100.613C176.019 100.951 173.768 101.221 171.566 102.545C170.474 103.202 167.052 103.822 163.758 104.418C161.933 105.027 158.703 106.486 160.735 107.569C161.446 107.946 156.194 108.61 155.315 109.017C151.592 110.727 146.035 112.57 142.637 113.145C139.364 113.695 137.077 115.624 134.263 117.007C135.039 116.825 135.784 116.63 136.523 116.436C137.919 116.071 139.325 115.703 141.001 115.392C143.145 114.997 149.821 113.357 156.139 111.742C156.16 111.742 162.392 109.102 166.857 107.536C169.19 106.715 171.043 106.547 171.271 106.429C174.419 104.795 179.988 103.241 184.69 103.053C187.349 102.24 188.739 102.66 189.04 101.532C189.204 100.908 189.268 100.665 189.736 100.449C190.129 100.301 190.537 100.199 190.953 100.145C192.561 99.8375 194.149 99.4312 195.707 98.9281L195.722 98.9007ZM82.1667 113.336L81.7743 113.251L82.1667 113.336ZM81.7743 113.251L82.1667 113.336C82.0873 113.276 82.0263 113.195 81.9903 113.102L81.7743 113.251ZM157.112 94.974L156.248 94.3657C154.058 94.8371 152.541 95.1686 151.29 95.4454C148.057 96.1572 146.542 96.4887 144.614 96.7412C142.902 96.9632 140.809 97.1335 136.876 97.4498C134.096 97.6749 130.401 97.973 125.203 98.4232C125.151 98.4232 120.57 99.2201 117.799 99.9926C117.142 100.157 116.501 100.383 115.886 100.668C115.278 100.972 115.138 101.276 115.679 101.58C116.031 101.739 116.406 101.842 116.789 101.885C116.208 102.298 113.866 103.068 112.428 103.542C112.035 103.67 111.71 103.779 111.439 103.874C109.763 104.467 104.58 105.285 99.1054 106.149C92.0884 107.256 84.6 108.436 82.7111 109.47L84.162 109.86C85.7558 108.987 92.9827 107.846 99.7807 106.775C105.405 105.89 110.73 105.051 112.644 104.373C112.802 104.315 113.158 104.199 113.584 104.068C115.29 103.506 118.146 102.548 118.599 101.997C118.87 101.653 118.623 101.389 117.632 101.285C117.456 101.277 117.282 101.245 117.115 101.191C117.115 101.191 117.197 101.158 117.322 101.094C117.811 100.871 118.32 100.694 118.842 100.564C121.44 99.8406 125.534 99.1136 125.592 99.1075C130.705 98.6665 134.434 98.3654 137.238 98.1403C141.247 97.8148 143.382 97.6445 145.186 97.4073C147.254 97.1366 148.836 96.799 152.182 96.0568C153.572 95.7526 155.26 95.3785 157.121 94.9801L157.112 94.974ZM217.187 93.2038L216.71 92.5498C208.847 93.4015 199.953 94.3748 192.267 95.4515C184.502 96.5343 177.971 97.7145 174.902 98.9615C173.501 99.5469 172.063 100.042 170.599 100.443C168.974 100.884 166.997 101.31 164.19 101.802C159.956 102.551 152.668 106.301 154.125 106.462C156.638 106.742 144.93 109.504 138.777 110.416C137.956 110.541 130.836 112.345 126.936 113.333C125.558 113.683 124.582 113.941 124.485 113.941C124.016 114.051 122.121 114.383 120.017 114.754C116.418 115.383 112.26 116.116 112.498 116.481C112.647 116.712 113.182 116.785 114.201 116.703L113.97 116.341H114.11C114.201 116.384 114.262 116.396 114.219 116.341C114.128 116.168 117.781 115.912 120.753 115.389C122.903 115.012 124.838 114.675 125.403 114.544C125.616 114.492 126.571 114.24 127.919 113.908C131.76 112.935 138.777 111.171 139.425 111.061C146.01 110.076 156.957 107.785 155.88 107.539C153.018 106.882 161.072 103.101 164.932 102.42C167.843 101.909 169.911 101.465 171.624 100.996C173.176 100.571 174.7 100.047 176.186 99.4269C179.027 98.268 185.332 97.1396 192.863 96.0811C200.467 95.0196 209.34 94.0432 217.178 93.1946L217.187 93.2038ZM114.107 116.353H113.97L113.866 116.195C113.942 116.251 114.023 116.299 114.107 116.341V116.353ZM124.336 110.933C124.278 110.899 124.225 110.857 124.177 110.809L124.199 110.936L124.336 110.933ZM186.385 94.8371L185.569 94.2288C180.928 95.1413 176.232 96.2058 171.925 97.2886C167.484 98.4049 163.445 99.5455 160.288 100.58C156.221 101.915 155.902 102.082 154.153 103.013C153.772 103.214 153.328 103.448 152.869 103.682C152.221 104.017 146.126 105.979 149 106.064C152.504 106.167 138.354 108.172 137.186 108.372C134.659 108.807 132.159 109.753 130.355 110.438C129.36 110.812 128.609 111.098 128.53 111.104C127.678 111.117 126.829 111.205 125.993 111.368C124.984 111.648 125.099 111.934 126.498 112.281L127.134 111.898C127.383 111.861 127.949 111.821 128.764 111.779C129.446 111.742 130.382 111.39 131.617 110.921C133.324 110.273 135.69 109.379 137.916 108.996C139.233 108.771 155.6 106.654 152.03 106.158C149.788 105.854 153.55 104.47 154.305 104.09C154.889 103.786 155.275 103.588 155.6 103.414C157.249 102.545 157.55 102.386 161.452 101.109C164.54 100.096 168.518 98.9798 172.907 97.8696C177.156 96.7898 181.798 95.7405 186.369 94.8371H186.385Z" fill="#B98953"/>
<path fill-rule="evenodd" clip-rule="evenodd" d="M291.19 88.1455V88.1668C295.986 87.5859 300.731 86.9136 301.035 86.0225L302.933 86.1137C302.465 87.4977 296.564 88.2946 290.955 88.9637C290.91 89.0732 231.991 100.437 231.948 100.54C232.198 100.485 291.308 89.1705 291.53 89.1158L233.712 100.978C232.921 101.176 231.997 101.367 231.011 101.547C230.403 101.967 229.49 102.329 228.107 102.666C226.433 103.048 224.739 103.337 223.033 103.533C223.216 103.563 282.293 92.3369 282.527 92.3703C284.097 92.5924 225.576 104.233 225.132 104.674C224.542 105.282 221.975 105.994 219.639 106.642C218.401 106.985 217.236 107.311 216.567 107.554C215.411 107.983 213.997 108.004 212.676 108.029C212.153 108.029 211.645 108.044 211.259 108.083C210.325 108.178 209.887 108.594 211.07 110.304C211.353 110.711 208.366 111.487 205.06 112.351C201.599 113.263 197.727 114.261 197.745 114.373C197.745 114.431 197.696 114.419 197.623 114.373H197.474L197.554 114.851C196.419 114.878 195.884 114.72 195.832 114.413C195.744 113.884 200.09 112.749 203.98 111.736C206.697 111.031 209.282 110.577 209.218 110.483C207.627 108.187 208.765 107.572 210.769 107.369C211.35 107.311 211.962 107.299 212.594 107.289C213.562 107.289 214.602 107.256 215.237 107.019C216.013 106.733 217.227 106.41 218.513 106.039C220.627 105.452 281.825 93.5474 282.211 93.152C282.238 93.1216 282.144 93.0881 281.861 93.0486C280.778 92.8935 220.846 102.858 220.381 102.678C217.47 103.001 214.106 104.464 209.431 104.856C205.072 105.221 204.494 105.851 204.902 106.566C205.129 106.898 205.392 107.204 205.687 107.478C205.997 107.775 206.277 108.102 206.523 108.454C207.308 109.698 206.669 110.857 199.64 111.496C190.622 112.332 189.88 113.579 189.299 114.538C188.718 115.496 188.307 116.204 183.76 116.326L183.635 115.63C186.759 115.547 187.054 115.052 187.431 114.413C188.118 113.26 189.01 111.761 199.181 110.818C204.637 110.31 205.194 109.504 204.656 108.649C204.426 108.327 204.166 108.028 203.88 107.755C203.555 107.448 203.267 107.104 203.022 106.73C202.384 105.614 203.101 104.64 209.02 104.147C213.677 103.758 276.185 92.1665 279.029 91.8532C279.048 91.8289 220.195 103.065 220.217 103.043C220.791 102.453 223.702 101.973 226.85 101.453C227.745 101.307 228.657 101.148 229.527 101.002C229.725 100.832 288.747 89.3956 288.869 89.204C288.096 89.2952 229.028 99.1927 228.326 99.2778C225.552 100.297 218.474 101.632 212.308 102.383C208.761 102.852 205.269 103.674 201.885 104.835C201.127 105.121 201.349 105.367 201.581 105.635C202.384 106.52 203.32 107.557 192.483 109.689C190.913 110.03 189.369 110.482 187.863 111.043C184.056 112.399 180.143 113.439 176.165 114.151C175.335 114.306 171.563 114.89 166.8 115.623C163.062 116.198 158.706 116.871 154.734 117.491C152.045 118.051 149.761 118.489 148.136 118.75L147.939 118.568C144.897 119.06 142.826 119.413 142.716 119.48C142.654 119.507 142.586 119.513 142.52 119.499C142.454 119.485 142.394 119.451 142.348 119.401L141.925 119.307L141.427 119.644C140.837 119.517 140.718 119.34 141.049 119.115C141.445 118.857 147.117 117.899 153.763 116.852C159.847 115.59 168.105 113.689 175.426 111.864C184.149 109.689 191.495 107.657 192.039 107.028C194.442 104.257 270.714 91.0746 277.706 90.299C278.147 90.2503 209.915 99.3295 210.216 99.3417C210.617 99.2809 279.61 90.1378 279.99 90.0769C280.781 89.3774 280.097 84.7419 284.428 84.231L289.188 88.3888C289.216 88.2854 289.24 88.179 289.264 88.0847L291.178 88.1455H291.19ZM199.391 105.191C196.623 105.817 194.524 106.517 193.879 107.268C193.183 108.071 185.527 110.24 176.493 112.491C173.284 113.291 169.896 114.106 166.581 114.875C171.107 114.179 174.644 113.631 175.344 113.5C179.17 112.81 182.934 111.808 186.598 110.504C188.238 109.895 189.92 109.406 191.632 109.041C200.988 107.216 200.343 106.489 199.789 105.878C199.579 105.647 199.378 105.425 199.388 105.191H199.391ZM347.694 88.4253C353.777 87.7744 358.999 87.1874 360 86.8559L358.747 86.3023C358.069 86.5274 353.619 87.0292 348.208 87.6102L289.179 98.7607C288.811 98.8429 347.317 87.6649 346.955 87.744L343.834 88.0755C335.317 88.988 267.407 101.191 266.221 101.729C265.917 101.86 263.788 102.173 261.215 102.548C258.355 102.964 255.025 103.46 252.841 103.938C250.65 104.403 248.435 104.754 246.207 104.987C242.749 105.395 240.021 105.717 237.265 107.378C236.383 107.907 232.949 108.53 229.64 109.13C226.13 109.765 222.744 110.38 221.963 111.018C221.4 111.478 221.804 111.882 223.626 112.208C223.721 112.223 223.813 112.25 223.9 112.29C224.204 112.451 223.994 112.792 223.435 113.239C222.403 113.972 221.296 114.592 220.131 115.088C216.275 116.861 210.578 118.759 207.147 119.346C202.949 120.055 199.959 121.533 196.522 123.228C190.689 126.108 183.516 129.645 166.982 130.832C158.94 131.406 148.489 131.215 140.967 131.081C136.898 131.005 133.667 130.947 131.988 131.035C131.441 130.838 130.875 130.646 130.236 130.46C129.452 130.229 128.558 130.004 127.463 129.779L126.55 130.424C127.548 130.631 128.375 130.835 129.068 131.032C129.762 131.23 130.404 131.455 131.009 131.68L131.395 131.823L131.909 131.774C133.093 131.659 136.472 131.72 140.873 131.799C148.477 131.939 159.068 132.13 167.335 131.54C182.704 130.445 190.269 127.422 196.002 124.669L196.045 124.709C198.096 124.379 200.127 123.933 202.128 123.374C203.582 122.993 205.039 122.61 206.715 122.3C209.121 121.856 216.448 120.067 223.298 118.294C229.594 116.667 235.54 115.039 237.025 114.459C237.937 114.097 247.752 111.113 253.979 109.2C257.124 108.238 259.408 107.539 259.453 107.375C259.517 107.153 259.581 106.915 259.633 106.715C259.767 106.207 259.818 106.009 259.937 105.948C260.168 105.882 260.402 105.831 260.64 105.796C262.492 105.446 264.32 104.982 266.115 104.406C270.814 102.949 275.367 102.149 280.216 101.297C282.953 100.817 344.646 89.061 347.645 88.4253H347.694ZM264.962 103.837C269.612 102.395 274.062 101.583 278.759 100.756C273.037 101.364 268.274 101.939 267.69 102.204C267.106 102.468 264.709 102.812 261.911 103.235C259.113 103.658 255.852 104.117 253.814 104.57C251.492 105.067 249.144 105.44 246.782 105.687C243.704 106.052 241.28 106.337 238.898 107.77C237.721 108.479 234.032 109.148 230.47 109.793C227.276 110.371 224.195 110.93 223.708 111.329C223.654 111.371 223.86 111.441 224.448 111.545C224.8 111.596 225.143 111.698 225.466 111.849C226.233 112.256 226.035 112.853 225.162 113.543C224.052 114.337 222.859 115.008 221.604 115.544C217.589 117.391 211.588 119.38 207.916 120C204.382 120.609 201.651 121.877 198.615 123.37C199.451 123.173 200.251 122.963 201.048 122.762C202.569 122.37 204.072 121.971 205.881 121.637C208.199 121.208 215.42 119.441 222.224 117.683C228.438 116.074 234.272 114.486 235.65 113.945C236.669 113.546 246.527 110.535 252.786 108.622C255.575 107.77 257.519 107.435 257.562 107.292C257.647 106.988 257.698 106.803 257.741 106.642C257.917 105.966 257.987 105.705 258.492 105.474C258.918 105.31 259.361 105.196 259.812 105.133C261.549 104.808 263.264 104.374 264.947 103.834L264.962 103.837ZM142.385 119.41L141.962 119.319L142.385 119.413V119.41ZM141.962 119.319L142.385 119.41C142.3 119.346 142.235 119.26 142.196 119.161L141.962 119.319ZM283.157 85.7883L281.213 87.6923C278.847 88.2003 282.126 86.281 280.775 86.5791C277.256 87.3425 213.397 96.9753 211.317 97.246C210.201 97.392 207.779 98.5539 207.15 100.166C206.846 100.957 202.773 100.969 201.091 101.106C198.089 101.346 194.399 102.843 188.8 103.326C188.742 103.326 183.796 104.187 180.806 105.02C180.097 105.201 179.406 105.445 178.741 105.75C178.09 106.091 177.935 106.423 178.519 106.724C178.899 106.895 179.303 107.005 179.717 107.049C179.091 107.496 176.563 108.327 175.009 108.838C174.586 108.978 174.233 109.093 173.941 109.197C172.135 109.838 166.538 110.717 160.628 111.651C153.052 112.846 144.97 114.121 142.929 115.237L144.499 115.657C146.214 114.717 154.031 113.5 161.37 112.329C167.454 111.371 173.19 110.465 175.255 109.732C175.429 109.671 175.812 109.546 176.271 109.394C178.096 108.786 181.205 107.773 181.688 107.162C181.993 106.791 181.71 106.517 180.642 106.392C180.453 106.381 180.266 106.348 180.086 106.292C180.086 106.292 180.177 106.252 180.308 106.185C180.838 105.946 181.389 105.754 181.953 105.614C184.757 104.832 189.192 104.047 189.253 104.041C194.77 103.563 198.484 102.067 201.514 101.824C205.842 101.474 207.293 101.151 207.646 100.82C208.525 99.9622 208.035 98.7182 211.648 97.9243C211.648 96.9905 281.575 86.1289 283.163 85.7883H283.157ZM346.97 86.43L346.45 85.7244C337.964 86.6369 328.364 87.6984 320.067 88.8572C311.681 90.0252 245.748 102.545 242.451 103.904C240.938 104.534 239.387 105.068 237.806 105.501C236.054 105.979 233.916 106.435 230.887 106.97C226.324 107.776 222.778 109.403 219.024 111.146C214.699 113.151 210.088 115.286 203.445 116.28C202.557 116.411 194.871 118.361 190.67 119.429L188.024 120.098C187.519 120.213 185.475 120.572 183.2 120.971C179.316 121.655 174.83 122.443 175.082 122.838C175.243 123.088 175.824 123.182 176.925 123.078L176.673 122.689L176.825 122.674C176.922 122.723 176.989 122.735 176.944 122.674C176.843 122.485 180.788 122.212 183.997 121.646C186.318 121.238 188.407 120.873 189.016 120.733C189.247 120.682 190.278 120.429 191.729 120.052C195.878 119 203.451 117.08 204.154 116.974C211.259 115.909 216.034 113.701 220.512 111.627C224.116 109.96 227.507 108.384 231.687 107.648C234.829 107.095 237.061 106.614 238.916 106.109C240.595 105.652 242.242 105.087 243.847 104.418C246.913 103.165 312.587 90.6914 320.721 89.5568C328.933 88.4132 338.505 87.3577 346.97 86.4422V86.43ZM176.822 122.668H176.673L176.563 122.498C176.645 122.557 176.731 122.61 176.822 122.656V122.668ZM197.608 114.386C197.547 114.349 197.489 114.305 197.438 114.255L197.459 114.389L197.608 114.386ZM313.716 88.1851L312.837 87.5341C307.827 88.5227 302.754 89.6633 298.106 90.8373C293.313 92.054 230.081 104.525 226.674 105.647C222.282 107.086 221.938 107.268 220.052 108.263C219.642 108.479 219.161 108.734 218.665 108.987C217.963 109.349 214.197 110.559 210.325 111.724C206.675 112.813 203.007 113.853 201.736 114.06C198.998 114.525 196.31 115.547 194.363 116.287C193.289 116.691 192.477 117.001 192.38 117.004C191.461 117.021 190.545 117.117 189.642 117.29C188.553 117.594 188.678 117.899 190.187 118.273L190.874 117.862C191.142 117.82 191.753 117.777 192.635 117.731C193.371 117.692 194.381 117.312 195.713 116.819C197.557 116.119 200.108 115.152 202.514 114.741C203.935 114.495 207.767 113.43 211.502 112.308C215.484 111.116 219.411 109.85 220.204 109.437C220.837 109.114 221.251 108.895 221.604 108.71C223.383 107.77 223.708 107.6 227.921 106.219C231.267 105.127 235.549 103.913 240.285 102.724C244.899 101.55 308.782 89.1675 313.716 88.1851Z" fill="#B98953"/>
<path fill-rule="evenodd" clip-rule="evenodd" d="M145.174 74.6437L131.748 80.955L151.607 89.5202L151.89 109.218C156.756 106.243 160.963 104.074 165.838 101.1C166.684 100.427 166.751 99.8374 166.806 98.6056V83.3275C166.763 82.0683 166.885 81.1497 165.358 80.514L148.151 74.4034C147.178 74.1023 146.57 74.2422 145.174 74.6437Z" fill="url(#paint3_linear)" stroke="#1D1D1B" stroke-width="0.0669155" stroke-miterlimit="22.93"/>
<path fill-rule="evenodd" clip-rule="evenodd" d="M134.96 81.1191C140.222 82.9866 141.347 83.3547 146.91 85.6024C148.796 86.3659 152.765 87.4457 152.689 89.7634C152.613 92.0811 152.458 103.971 152.288 108.299C152.108 112.861 138.762 105.866 132.548 103.153C131.185 102.544 129.85 100.455 129.975 98.9703C130.434 93.5593 130.148 88.4707 130.297 83.2117C130.29 82.8456 130.369 82.483 130.528 82.1529C130.686 81.8228 130.92 81.5343 131.21 81.3107C132.07 80.6507 133.479 80.5929 134.96 81.1191Z" fill="white"/>
<path fill-rule="evenodd" clip-rule="evenodd" d="M135.924 88.8388C135.964 88.3825 136.572 88.3916 137.01 88.5163C140.201 89.4288 143.063 90.7002 146.016 91.6918C147.078 92.0507 146.807 93.4924 146.78 94.3076C146.701 96.5858 146.67 98.721 146.579 101.261C146.558 101.869 145.712 102.578 145.131 102.386C141.944 101.34 140.04 99.9863 137.01 98.9704C136.502 98.8 135.559 97.9758 135.562 97.4496C135.577 94.4323 135.666 91.853 135.924 88.8388Z" fill="#FDD5A5"/>
<path fill-rule="evenodd" clip-rule="evenodd" d="M153.626 97.0574L152.288 95.0256L138.065 104.175L139.404 106.207L153.626 97.0574ZM148.641 83.0355L127.876 96.3973L125.92 93.4257L146.685 80.0669L148.641 83.0325V83.0355ZM148.641 87.2481L134.418 96.3973L133.08 94.3655L147.303 85.2133L148.641 87.2451V87.2481ZM149.122 91.2022L134.908 100.351L133.57 98.3196L147.783 89.1674L149.122 91.1992V91.2022ZM151.214 94.0005L136.992 103.159L135.653 101.127L149.876 91.9779L151.214 94.0005Z" fill="#F07F3C"/>
<path fill-rule="evenodd" clip-rule="evenodd" d="M185.378 73.679L171.949 79.9904L191.811 88.5586L192.094 108.259C196.96 105.284 201.164 103.113 206.043 100.138C206.888 99.4689 206.955 98.8788 207.007 97.6469V82.3628C206.967 81.1036 207.089 80.185 205.562 79.5493L188.353 73.4357C187.382 73.1346 186.771 73.2775 185.378 73.679Z" fill="url(#paint4_linear)" stroke="#1D1D1B" stroke-width="0.0669155" stroke-miterlimit="22.93"/>
<path fill-rule="evenodd" clip-rule="evenodd" d="M175.164 80.155C180.426 82.0225 181.551 82.3875 187.114 84.6383C189 85.3987 192.97 86.4815 192.894 88.7992C192.818 91.1169 192.662 103.007 192.492 107.332C192.31 111.894 178.963 104.899 172.752 102.185C171.386 101.577 170.051 99.4875 170.179 98.0062C170.638 92.5921 170.349 87.5065 170.483 82.2446C170.476 81.8785 170.555 81.5159 170.714 81.1859C170.872 80.8558 171.106 80.5673 171.395 80.3435C172.274 79.6896 173.683 79.6288 175.164 80.155Z" fill="white"/>
<path fill-rule="evenodd" clip-rule="evenodd" d="M176.128 87.8749C176.168 87.4186 176.773 87.4278 177.214 87.5525C180.402 88.465 183.267 89.7364 186.217 90.7279C187.279 91.0838 187.011 92.5285 186.984 93.3407C186.902 95.6219 186.871 97.7571 186.783 100.297C186.759 100.905 185.913 101.614 185.335 101.422C182.144 100.376 180.24 99.0224 177.214 98.0065C176.706 97.8362 175.763 97.0119 175.766 96.4857C175.781 93.4684 175.87 90.8861 176.128 87.8749Z" fill="#FDD5A5"/>
<path fill-rule="evenodd" clip-rule="evenodd" d="M193.827 96.093L192.489 94.0582L178.269 103.207L179.608 105.242L193.827 96.093ZM188.842 82.0712L168.077 95.4299L166.124 92.4644L186.889 79.1025L188.842 82.0712ZM188.842 86.2808L174.623 95.4299L173.284 93.3981L187.504 84.249L188.842 86.2808ZM189.326 90.2349L175.106 99.3871L173.768 97.3553L187.987 88.2061L189.326 90.2379V90.2349ZM191.415 93.0332L177.187 102.185L175.848 100.154L190.077 90.9922L191.415 93.0332Z" fill="#F07F3C"/>
<defs>
<linearGradient id="paint0_linear" x1="17.9003" y1="18.03" x2="24.6557" y2="32.5142" gradientUnits="userSpaceOnUse">
<stop stop-color="#005C3C"/>
<stop offset="0.19" stop-color="#005B3B"/>
<stop offset="0.56" stop-color="#003E25"/>
<stop offset="1" stop-color="#003D23"/>
</linearGradient>
<linearGradient id="paint1_linear" x1="53628.7" y1="7904" x2="49036.7" y2="1298.43" gradientUnits="userSpaceOnUse">
<stop stop-color="#005C3C"/>
<stop offset="0.19" stop-color="#005B3B"/>
<stop offset="0.56" stop-color="#003E25"/>
<stop offset="1" stop-color="#003D23"/>
</linearGradient>
<linearGradient id="paint2_linear" x1="101.803" y1="114.252" x2="241.112" y2="114.252" gradientUnits="userSpaceOnUse">
<stop stop-color="#46260C"/>
<stop offset="0.73" stop-color="#754A2A"/>
<stop offset="1" stop-color="#5A351B"/>
</linearGradient>
<linearGradient id="paint3_linear" x1="25647.8" y1="19812.5" x2="26350.4" y2="21322.3" gradientUnits="userSpaceOnUse">
<stop stop-color="#005C3C"/>
<stop offset="0.19" stop-color="#005B3B"/>
<stop offset="0.56" stop-color="#003E25"/>
<stop offset="1" stop-color="#003D23"/>
</linearGradient>
<linearGradient id="paint4_linear" x1="30321.9" y1="19705.3" x2="31024.8" y2="21215.3" gradientUnits="userSpaceOnUse">
<stop stop-color="#005C3C"/>
<stop offset="0.19" stop-color="#005B3B"/>
<stop offset="0.56" stop-color="#003E25"/>
<stop offset="1" stop-color="#003D23"/>
</linearGradient>
</defs>
</svg>
