<svg width="26" height="26" viewBox="0 0 26 26" fill="none" xmlns="http://www.w3.org/2000/svg">
<g clip-path="url(#clip0)">
<path d="M25.8622 18.9799C25.8307 18.912 25.8013 18.8557 25.7741 18.8106C25.323 17.9982 24.4609 17.001 23.1885 15.8187L23.1616 15.7916L23.1481 15.7783L23.1345 15.7647H23.1209C22.5434 15.2142 22.1777 14.844 22.0245 14.6545C21.7443 14.2935 21.6815 13.9281 21.8347 13.5578C21.9429 13.2781 22.3493 12.6873 23.053 11.7847C23.4232 11.3063 23.7163 10.9229 23.9328 10.6341C25.4942 8.55827 26.1712 7.23181 25.9635 6.65416L25.8828 6.51917C25.8286 6.4379 25.6888 6.36356 25.4634 6.29576C25.2375 6.2281 24.9488 6.21691 24.5968 6.262L20.6982 6.28893C20.635 6.26655 20.5448 6.26863 20.4274 6.29576C20.31 6.32288 20.2513 6.33649 20.2513 6.33649L20.1835 6.37039L20.1296 6.41112C20.0845 6.43805 20.0348 6.48541 19.9806 6.55312C19.9267 6.62059 19.8816 6.69977 19.8456 6.79C19.4211 7.882 18.9385 8.89729 18.3969 9.83581C18.063 10.3954 17.7563 10.8804 17.4762 11.2911C17.1965 11.7016 16.9619 12.0041 16.7725 12.1979C16.5829 12.392 16.4117 12.5475 16.258 12.6649C16.1045 12.7824 15.9873 12.8321 15.9062 12.8139C15.8249 12.7957 15.7483 12.7777 15.6758 12.7597C15.5496 12.6784 15.448 12.5679 15.3714 12.428C15.2945 12.2882 15.2427 12.1121 15.2157 11.9C15.1887 11.6878 15.1728 11.5053 15.1683 11.3518C15.164 11.1985 15.166 10.9817 15.1751 10.7019C15.1845 10.422 15.1887 10.2327 15.1887 10.1334C15.1887 9.79038 15.1954 9.41813 15.2088 9.01653C15.2225 8.61493 15.2335 8.29674 15.2428 8.06232C15.252 7.82767 15.2563 7.5794 15.2563 7.31768C15.2563 7.05595 15.2403 6.85069 15.2088 6.70172C15.1777 6.55293 15.13 6.40851 15.0671 6.26849C15.0038 6.12862 14.9111 6.02042 14.7896 5.94361C14.6678 5.86689 14.5163 5.80601 14.3361 5.76078C13.8577 5.65253 13.2486 5.59398 12.5084 5.58487C10.8299 5.56686 9.75136 5.67524 9.27305 5.9099C9.08353 6.00904 8.91204 6.1445 8.7587 6.31586C8.59621 6.51448 8.57355 6.62287 8.69085 6.6407C9.23241 6.72182 9.61581 6.91589 9.84145 7.22271L9.92277 7.38529C9.98602 7.50259 10.0492 7.71027 10.1124 8.00803C10.1755 8.30579 10.2162 8.63518 10.2341 8.996C10.2792 9.65492 10.2792 10.219 10.2341 10.6882C10.189 11.1576 10.1463 11.523 10.1055 11.7847C10.0648 12.0465 10.0039 12.2585 9.92277 12.4209C9.84145 12.5834 9.78735 12.6827 9.76023 12.7187C9.73316 12.7547 9.71059 12.7774 9.69267 12.7864C9.57536 12.8313 9.45336 12.8542 9.3271 12.8542C9.20065 12.8542 9.04731 12.791 8.86685 12.6645C8.68644 12.5381 8.4992 12.3645 8.30513 12.1434C8.11107 11.9222 7.8922 11.6131 7.64845 11.216C7.40488 10.819 7.15216 10.3497 6.89043 9.80826L6.67389 9.41557C6.53852 9.16295 6.35361 8.79511 6.11896 8.31238C5.88416 7.82947 5.67663 7.36234 5.49622 6.9111C5.4241 6.72158 5.31576 6.5773 5.17138 6.47802L5.10363 6.43729C5.05858 6.40125 4.98628 6.36299 4.88709 6.32221C4.78775 6.28148 4.6841 6.25228 4.57572 6.23431L0.866543 6.26124C0.487514 6.26124 0.230339 6.34711 0.0949234 6.5186L0.0407289 6.59973C0.0136553 6.64492 0 6.71708 0 6.81641C0 6.9157 0.0270736 7.03755 0.0812681 7.18184C0.622739 8.45444 1.21158 9.68176 1.84778 10.864C2.48399 12.0462 3.03684 12.9985 3.506 13.7201C3.97526 14.4422 4.45358 15.1236 4.94095 15.7642C5.42832 16.405 5.75093 16.8157 5.90877 16.9961C6.0668 17.1768 6.19093 17.312 6.28116 17.4022L6.61965 17.727C6.83624 17.9437 7.15429 18.2031 7.57396 18.5054C7.99372 18.8078 8.45842 19.1056 8.96832 19.3991C9.4783 19.6922 10.0716 19.9314 10.7485 20.1163C11.4254 20.3015 12.0841 20.3758 12.725 20.3399H14.2818C14.5975 20.3127 14.8367 20.2134 14.9993 20.042L15.0531 19.9742C15.0894 19.9203 15.1233 19.8366 15.1546 19.724C15.1862 19.6112 15.202 19.4869 15.202 19.3518C15.1927 18.9638 15.2223 18.6141 15.2898 18.3028C15.3572 17.9915 15.4342 17.7569 15.5202 17.5989C15.6061 17.441 15.7031 17.3077 15.8111 17.1997C15.9193 17.0915 15.9964 17.0259 16.0416 17.0033C16.0866 16.9806 16.1225 16.9652 16.1495 16.956C16.3661 16.8838 16.621 16.9537 16.9146 17.166C17.208 17.3781 17.4831 17.6399 17.7405 17.9511C17.9977 18.2627 18.3067 18.6122 18.6677 19.0001C19.0288 19.3883 19.3446 19.6768 19.6152 19.8666L19.8859 20.029C20.0666 20.1374 20.3013 20.2367 20.5901 20.3269C20.8785 20.4171 21.1311 20.4397 21.348 20.3946L24.8134 20.3405C25.1561 20.3405 25.4228 20.2838 25.612 20.1712C25.8016 20.0584 25.9142 19.9341 25.9505 19.7989C25.9867 19.6636 25.9887 19.5101 25.9574 19.3384C25.9253 19.1672 25.8937 19.0475 25.8622 18.9799Z" fill="white"/>
</g>
<defs>
<clipPath id="clip0">
<rect width="26" height="26" fill="white"/>
</clipPath>
</defs>
</svg>
